<?xml version="1.0" encoding="UTF-8" standalone="no"?>
<!DOCTYPE svg PUBLIC "-//W3C//DTD SVG 1.1//EN"
 "http://www.w3.org/Graphics/SVG/1.1/DTD/svg11.dtd">
<!-- Generated by graphviz version 2.40.1 (20161225.0304)
 -->
<!-- Title: mnefun flow diagram Pages: 1 -->
<svg width="572pt" height="772pt"
 viewBox="0.00 0.00 571.50 772.00" xmlns="http://www.w3.org/2000/svg" xmlns:xlink="http://www.w3.org/1999/xlink">
<g id="graph0" class="graph" transform="scale(1 1) rotate(0) translate(4 768)">
<title>mnefun flow diagram</title>
<polygon fill="#ffffff" stroke="transparent" points="-4,4 -4,-768 567.5,-768 567.5,4 -4,4"/>
<!-- sco -->
<g id="node1" class="node">
<title>sco</title>
<polygon fill="#c37d8b" stroke="#000000" points="78,-624 7,-624 7,-588 78,-588 78,-624"/>
<text text-anchor="start" x="40" y="-609.8" font-family="Arial" font-size="9.00" fill="#000000">./</text>
<text text-anchor="start" x="21" y="-599.2" font-family="Arial" font-size="11.00" fill="#000000">score.py</text>
</g>
<!-- lst -->
<g id="node2" class="node">
<title>lst</title>
<polygon fill="#adc7f7" stroke="#000000" points="95,-540 0,-540 0,-504 95,-504 95,-540"/>
<text text-anchor="start" x="26" y="-525.8" font-family="Arial" font-size="9.00" fill="#000000">./subj/lists/</text>
<text text-anchor="start" x="14" y="-515.2" font-family="Arial" font-size="11.00" fill="#000000">ALL_*&#45;eve.lst</text>
</g>
<!-- sco&#45;&gt;lst -->
<g id="edge1" class="edge">
<title>sco&#45;&gt;lst</title>
<path fill="none" stroke="#000000" d="M43.5849,-587.7733C44.2336,-576.8758 45.0717,-562.7946 45.806,-550.4587"/>
<polygon fill="#000000" stroke="#000000" points="49.3167,-550.3815 46.4172,-540.1912 42.3291,-549.9655 49.3167,-550.3815"/>
<text text-anchor="start" x="44.5" y="-562.2" font-family="Arial" font-weight="bold" font-size="11.00" fill="#000000">2. do_score</text>
</g>
<!-- evo -->
<g id="node3" class="node">
<title>evo</title>
<polygon fill="#adc7f7" stroke="#000000" points="152.5,-120 6.5,-120 6.5,-84 152.5,-84 152.5,-120"/>
<text text-anchor="start" x="20.5" y="-105.8" font-family="Arial" font-size="9.00" fill="#000000">./subj/inverse/, ./subj/epochs/</text>
<text text-anchor="start" x="38.5" y="-95.2" font-family="Arial" font-size="11.00" fill="#000000">*&#45;evo.fif, *&#45;epo.fif</text>
</g>
<!-- lst&#45;&gt;evo -->
<g id="edge2" class="edge">
<title>lst&#45;&gt;evo</title>
<path fill="none" stroke="#000000" d="M47.5,-503.9756C47.5,-486.9658 47.5,-460.75 47.5,-438 47.5,-438 47.5,-438 47.5,-186 47.5,-166.2271 55.3387,-145.4501 63.2568,-129.5066"/>
<polygon fill="#000000" stroke="#000000" points="66.5654,-130.7352 68.1279,-120.2563 60.3717,-127.4737 66.5654,-130.7352"/>
</g>
<!-- bem -->
<g id="node4" class="node">
<title>bem</title>
<polygon fill="#adc7f7" stroke="#000000" points="360,-204 271,-204 271,-168 360,-168 360,-204"/>
<text text-anchor="start" x="285" y="-189.8" font-family="Arial" font-size="9.00" fill="#000000">structural/bem/</text>
<text text-anchor="start" x="285.5" y="-179.2" font-family="Arial" font-size="11.00" fill="#000000">*&#45;bem&#45;sol.fif</text>
</g>
<!-- fwd -->
<g id="node5" class="node">
<title>fwd</title>
<polygon fill="#adc7f7" stroke="#000000" points="358.5,-120 272.5,-120 272.5,-84 358.5,-84 358.5,-120"/>
<text text-anchor="start" x="286.5" y="-105.8" font-family="Arial" font-size="9.00" fill="#000000">./subj/forward/</text>
<text text-anchor="start" x="297" y="-95.2" font-family="Arial" font-size="11.00" fill="#000000">*&#45;fwd.fif</text>
</g>
<!-- bem&#45;&gt;fwd -->
<g id="edge3" class="edge">
<title>bem&#45;&gt;fwd</title>
<path fill="none" stroke="#000000" d="M315.5,-167.7733C315.5,-156.8758 315.5,-142.7946 315.5,-130.4587"/>
<polygon fill="#000000" stroke="#000000" points="319.0001,-130.1911 315.5,-120.1912 312.0001,-130.1912 319.0001,-130.1911"/>
</g>
<!-- inv -->
<g id="node6" class="node">
<title>inv</title>
<polygon fill="#adc7f7" stroke="#000000" points="309,-36 224,-36 224,0 309,0 309,-36"/>
<text text-anchor="start" x="238" y="-21.8" font-family="Arial" font-size="9.00" fill="#000000">./subj/inverse/</text>
<text text-anchor="start" x="249.5" y="-11.2" font-family="Arial" font-size="11.00" fill="#000000">*&#45;inv.fif</text>
</g>
<!-- fwd&#45;&gt;inv -->
<g id="edge4" class="edge">
<title>fwd&#45;&gt;inv</title>
<path fill="none" stroke="#000000" d="M304.8677,-83.7733C298.2541,-72.4355 289.6301,-57.6515 282.2338,-44.9723"/>
<polygon fill="#000000" stroke="#000000" points="285.1735,-43.0654 277.1115,-36.1912 279.127,-46.5925 285.1735,-43.0654"/>
<text text-anchor="start" x="293.5" y="-58.2" font-family="Arial" font-weight="bold" font-size="11.00" fill="#000000">12. gen_inv</text>
</g>
<!-- pbd -->
<g id="node7" class="node">
<title>pbd</title>
<polygon fill="#c37d8b" stroke="#000000" points="284.5,-624 196.5,-624 196.5,-588 284.5,-588 284.5,-624"/>
<text text-anchor="start" x="213.5" y="-609.8" font-family="Arial" font-size="9.00" fill="#000000">./subj/raw_fif/</text>
<text text-anchor="start" x="210.5" y="-599.2" font-family="Arial" font-size="11.00" fill="#000000">*_prebad.txt</text>
</g>
<!-- mfr -->
<g id="node8" class="node">
<title>mfr</title>
<polygon fill="#a8a564" stroke="#000000" points="315,-540 160,-540 160,-504 315,-504 315,-540"/>
<text text-anchor="start" x="174" y="-525.8" font-family="Arial" font-size="9.00" fill="#000000">user@kasga:/data00/user/subj/</text>
<text text-anchor="start" x="185" y="-515.2" font-family="Arial" font-size="11.00" fill="#000000">*_raw.fif, *_prebad.txt</text>
</g>
<!-- pbd&#45;&gt;mfr -->
<g id="edge5" class="edge">
<title>pbd&#45;&gt;mfr</title>
<path fill="none" stroke="#000000" d="M239.849,-587.7733C239.4599,-576.8758 238.957,-562.7946 238.5164,-550.4587"/>
<polygon fill="#000000" stroke="#000000" points="242.0045,-550.0599 238.1497,-540.1912 235.0089,-550.3098 242.0045,-550.0599"/>
</g>
<!-- mfs -->
<g id="node9" class="node">
<title>mfs</title>
<polygon fill="#a8a564" stroke="#000000" points="315,-456 160,-456 160,-420 315,-420 315,-456"/>
<text text-anchor="start" x="174" y="-441.8" font-family="Arial" font-size="9.00" fill="#000000">user@kasga:/data00/user/subj/</text>
<text text-anchor="start" x="182.5" y="-431.2" font-family="Arial" font-size="11.00" fill="#000000">*_raw_sss.fif, *_log.txt</text>
</g>
<!-- mfr&#45;&gt;mfs -->
<g id="edge6" class="edge">
<title>mfr&#45;&gt;mfs</title>
<path fill="none" stroke="#000000" d="M237.5,-503.7733C237.5,-492.8758 237.5,-478.7946 237.5,-466.4587"/>
<polygon fill="#000000" stroke="#000000" points="241.0001,-466.1911 237.5,-456.1912 234.0001,-466.1912 241.0001,-466.1911"/>
<text text-anchor="start" x="237.5" y="-478.2" font-family="Arial" font-weight="bold" font-size="11.00" fill="#000000">4. do_sss</text>
</g>
<!-- sss -->
<g id="node10" class="node">
<title>sss</title>
<polygon fill="#adc7f7" stroke="#000000" points="388.5,-372 296.5,-372 296.5,-336 388.5,-336 388.5,-372"/>
<text text-anchor="start" x="316.5" y="-357.8" font-family="Arial" font-size="9.00" fill="#000000">./subj/sss_fif/</text>
<text text-anchor="start" x="310.5" y="-347.2" font-family="Arial" font-size="11.00" fill="#000000">*_raw_sss.fif</text>
</g>
<!-- mfs&#45;&gt;sss -->
<g id="edge7" class="edge">
<title>mfs&#45;&gt;sss</title>
<path fill="none" stroke="#000000" d="M260.0251,-419.9799C275.1463,-407.883 295.2566,-391.7947 311.8333,-378.5333"/>
<polygon fill="#000000" stroke="#000000" points="314.0276,-381.2602 319.6498,-372.2801 309.6547,-375.7941 314.0276,-381.2602"/>
<text text-anchor="start" x="295.5" y="-394.2" font-family="Arial" font-weight="bold" font-size="11.00" fill="#000000">5. fetch_sss</text>
</g>
<!-- ssl -->
<g id="node11" class="node">
<title>ssl</title>
<polygon fill="#adc7f7" stroke="#000000" points="278.5,-372 192.5,-372 192.5,-336 278.5,-336 278.5,-372"/>
<text text-anchor="start" x="206.5" y="-357.8" font-family="Arial" font-size="9.00" fill="#000000">./subj/sss_log/</text>
<text text-anchor="start" x="215.5" y="-347.2" font-family="Arial" font-size="11.00" fill="#000000">*_log.txt</text>
</g>
<!-- mfs&#45;&gt;ssl -->
<g id="edge8" class="edge">
<title>mfs&#45;&gt;ssl</title>
<path fill="none" stroke="#000000" d="M237.066,-419.7733C236.8066,-408.8758 236.4713,-394.7946 236.1776,-382.4587"/>
<polygon fill="#000000" stroke="#000000" points="239.6703,-382.105 235.9331,-372.1912 232.6722,-382.2717 239.6703,-382.105"/>
</g>
<!-- sss&#45;&gt;sss -->
<g id="edge22" class="edge">
<title>sss&#45;&gt;sss</title>
<path fill="none" stroke="#000000" d="M388.5242,-361.6827C398.9063,-360.9906 406.5,-358.4297 406.5,-354 406.5,-351.2314 403.5337,-349.1929 398.7743,-347.8843"/>
<polygon fill="#000000" stroke="#000000" points="398.9383,-344.3688 388.5242,-346.3173 397.8804,-351.2884 398.9383,-344.3688"/>
<text text-anchor="start" x="406.5" y="-352.2" font-family="Arial" font-weight="bold" font-size="11.00" fill="#000000">6. do_ch_fix</text>
</g>
<!-- pca -->
<g id="node13" class="node">
<title>pca</title>
<polygon fill="#adc7f7" stroke="#000000" points="253,-204 152,-204 152,-168 253,-168 253,-204"/>
<text text-anchor="start" x="166" y="-189.8" font-family="Arial" font-size="9.00" fill="#000000">./subj/sss_pca_fif/</text>
<text text-anchor="start" x="170.5" y="-179.2" font-family="Arial" font-size="11.00" fill="#000000">*_raw_sss.fif</text>
</g>
<!-- sss&#45;&gt;pca -->
<g id="edge20" class="edge">
<title>sss&#45;&gt;pca</title>
<path fill="none" stroke="#000000" d="M329.9049,-335.9374C323.4018,-326.8175 315.2283,-315.6665 307.5,-306 280.7869,-272.5874 248.0641,-235.7876 226.3207,-211.8647"/>
<polygon fill="#000000" stroke="#000000" points="228.7172,-209.2985 219.3923,-204.2689 223.5455,-214.0158 228.7172,-209.2985"/>
</g>
<!-- pro -->
<g id="node14" class="node">
<title>pro</title>
<polygon fill="#adc7f7" stroke="#000000" points="177,-288 76,-288 76,-252 177,-252 177,-288"/>
<text text-anchor="start" x="90" y="-273.8" font-family="Arial" font-size="9.00" fill="#000000">./subj/sss_pca_fif/</text>
<text text-anchor="start" x="107.5" y="-263.2" font-family="Arial" font-size="11.00" fill="#000000">*&#45;proj.fif</text>
</g>
<!-- sss&#45;&gt;pro -->
<g id="edge21" class="edge">
<title>sss&#45;&gt;pro</title>
<path fill="none" stroke="#000000" d="M296.4275,-336.0829C263.1313,-323.1344 217.9742,-305.5733 182.5798,-291.8088"/>
<polygon fill="#000000" stroke="#000000" points="183.4623,-288.3967 172.8737,-288.0342 180.9251,-294.9208 183.4623,-288.3967"/>
<text text-anchor="start" x="246.5" y="-310.2" font-family="Arial" font-weight="bold" font-size="11.00" fill="#000000">7. gen_ssp</text>
</g>
<!-- bad -->
<g id="node12" class="node">
<title>bad</title>
<polygon fill="#c37d8b" stroke="#000000" points="174,-372 77,-372 77,-336 174,-336 174,-372"/>
<text text-anchor="start" x="102" y="-357.8" font-family="Arial" font-size="9.00" fill="#000000">./subj/bads/</text>
<text text-anchor="start" x="91" y="-347.2" font-family="Arial" font-size="11.00" fill="#000000">*_post&#45;sss.txt</text>
</g>
<!-- bad&#45;&gt;pca -->
<g id="edge9" class="edge">
<title>bad&#45;&gt;pca</title>
<path fill="none" stroke="#000000" d="M147.952,-335.8684C161.3469,-323.763 177.4584,-306.6784 186.5,-288 197.7244,-264.8124 201.3887,-235.5124 202.4439,-214.2711"/>
<polygon fill="#000000" stroke="#000000" points="205.9423,-214.375 202.7791,-204.2634 198.9462,-214.1406 205.9423,-214.375"/>
</g>
<!-- bad&#45;&gt;pro -->
<g id="edge10" class="edge">
<title>bad&#45;&gt;pro</title>
<path fill="none" stroke="#000000" d="M125.717,-335.7733C125.8467,-324.8758 126.0143,-310.7946 126.1612,-298.4587"/>
<polygon fill="#000000" stroke="#000000" points="129.6641,-298.2322 126.2834,-288.1912 122.6646,-298.1488 129.6641,-298.2322"/>
</g>
<!-- pca&#45;&gt;evo -->
<g id="edge11" class="edge">
<title>pca&#45;&gt;evo</title>
<path fill="none" stroke="#000000" d="M151.6769,-169.3644C139.825,-164.1967 127.6995,-157.768 117.5,-150 109.676,-144.0411 102.5434,-136.1189 96.6246,-128.4312"/>
<polygon fill="#000000" stroke="#000000" points="99.4141,-126.316 90.7031,-120.2851 93.7519,-130.4319 99.4141,-126.316"/>
<text text-anchor="start" x="117.5" y="-142.2" font-family="Arial" font-weight="bold" font-size="11.00" fill="#000000">9. write_epochs</text>
</g>
<!-- pca&#45;&gt;fwd -->
<g id="edge12" class="edge">
<title>pca&#45;&gt;fwd</title>
<path fill="none" stroke="#000000" d="M246.7399,-167.8805C256.6815,-162.8255 266.8409,-156.8195 275.5,-150 283.3855,-143.7897 290.7965,-135.7978 297.0457,-128.1236"/>
<polygon fill="#000000" stroke="#000000" points="299.9693,-130.0652 303.3382,-120.0203 294.4405,-125.7719 299.9693,-130.0652"/>
</g>
<!-- cov -->
<g id="node15" class="node">
<title>cov</title>
<polygon fill="#adc7f7" stroke="#000000" points="246,-120 177,-120 177,-84 246,-84 246,-120"/>
<text text-anchor="start" x="191" y="-105.8" font-family="Arial" font-size="9.00" fill="#000000">./subj/cov/</text>
<text text-anchor="start" x="193" y="-95.2" font-family="Arial" font-size="11.00" fill="#000000">*&#45;cov.fif</text>
</g>
<!-- pca&#45;&gt;cov -->
<g id="edge13" class="edge">
<title>pca&#45;&gt;cov</title>
<path fill="none" stroke="#000000" d="M203.7847,-167.7428C204.4762,-158.7716 205.4111,-147.8072 206.5,-138 206.7803,-135.4757 207.096,-132.8553 207.4291,-130.2314"/>
<polygon fill="#000000" stroke="#000000" points="210.902,-130.6662 208.7618,-120.2898 203.9641,-129.7361 210.902,-130.6662"/>
<text text-anchor="start" x="206.5" y="-142.2" font-family="Arial" font-weight="bold" font-size="11.00" fill="#000000">10. gen_covs</text>
</g>
<!-- pro&#45;&gt;pca -->
<g id="edge14" class="edge">
<title>pro&#45;&gt;pca</title>
<path fill="none" stroke="#000000" d="M122.0926,-251.8399C120.8016,-242.2664 120.9743,-230.7318 126.5,-222 130.7269,-215.3207 136.5652,-209.8563 143.1442,-205.3919"/>
<polygon fill="#000000" stroke="#000000" points="144.9911,-208.3658 151.8082,-200.2554 141.4213,-202.3444 144.9911,-208.3658"/>
<text text-anchor="start" x="126.5" y="-226.2" font-family="Arial" font-weight="bold" font-size="11.00" fill="#000000">8. apply_ssp</text>
</g>
<!-- cov&#45;&gt;inv -->
<g id="edge15" class="edge">
<title>cov&#45;&gt;inv</title>
<path fill="none" stroke="#000000" d="M223.4342,-83.7733C230.9298,-72.3254 240.7259,-57.3641 249.081,-44.6036"/>
<polygon fill="#000000" stroke="#000000" points="252.0394,-46.4746 254.5891,-36.1912 246.183,-42.6401 252.0394,-46.4746"/>
</g>
<!-- tra -->
<g id="node16" class="node">
<title>tra</title>
<polygon fill="#c37d8b" stroke="#000000" points="453,-204 378,-204 378,-168 453,-168 453,-204"/>
<text text-anchor="start" x="392" y="-189.8" font-family="Arial" font-size="9.00" fill="#000000">./subj/trans/</text>
<text text-anchor="start" x="393" y="-179.2" font-family="Arial" font-size="11.00" fill="#000000">*&#45;trans.fif</text>
</g>
<!-- tra&#45;&gt;fwd -->
<g id="edge16" class="edge">
<title>tra&#45;&gt;fwd</title>
<path fill="none" stroke="#000000" d="M393.8015,-167.7733C379.5179,-155.7751 360.6398,-139.9174 344.9988,-126.779"/>
<polygon fill="#000000" stroke="#000000" points="347.0644,-123.9432 337.1562,-120.1912 342.5621,-129.3031 347.0644,-123.9432"/>
<text text-anchor="start" x="370.5" y="-142.2" font-family="Arial" font-weight="bold" font-size="11.00" fill="#000000">11. gen_fwd</text>
</g>
<!-- acq -->
<g id="node17" class="node">
<title>acq</title>
<polygon fill="#61c5ad" stroke="#000000" points="178,-736 97,-736 97,-700 178,-700 178,-736"/>
<text text-anchor="start" x="111" y="-721.8" font-family="Arial" font-size="9.00" fill="#000000">user@minea</text>
<text text-anchor="start" x="117.5" y="-711.2" font-family="Arial" font-size="11.00" fill="#000000">*_raw.fif</text>
</g>
<!-- raw -->
<g id="node18" class="node">
<title>raw</title>
<polygon fill="#adc7f7" stroke="#000000" points="178.5,-624 96.5,-624 96.5,-588 178.5,-588 178.5,-624"/>
<text text-anchor="start" x="110.5" y="-609.8" font-family="Arial" font-size="9.00" fill="#000000">./subj/raw_fif/</text>
<text text-anchor="start" x="117.5" y="-599.2" font-family="Arial" font-size="11.00" fill="#000000">*_raw.fif</text>
</g>
<!-- acq&#45;&gt;raw -->
<g id="edge17" class="edge">
<title>acq&#45;&gt;raw</title>
<path fill="none" stroke="#000000" d="M137.5,-699.5055C137.5,-681.7282 137.5,-654.6184 137.5,-634.1587"/>
<polygon fill="#000000" stroke="#000000" points="141.0001,-634.1503 137.5,-624.1504 134.0001,-634.1504 141.0001,-634.1503"/>
<text text-anchor="start" x="137.5" y="-646.2" font-family="Arial" font-weight="bold" font-size="11.00" fill="#000000">1. fetch_raw</text>
</g>
<!-- raw&#45;&gt;lst -->
<g id="edge18" class="edge">
<title>raw&#45;&gt;lst</title>
<path fill="none" stroke="#000000" d="M128.7319,-587.6852C123.5047,-578.0663 116.1945,-566.5378 107.5,-558 103.0064,-553.5874 97.8722,-549.4856 92.541,-545.7496"/>
<polygon fill="#000000" stroke="#000000" points="94.346,-542.7479 84.0651,-540.188 90.5057,-548.6004 94.346,-542.7479"/>
</g>
<!-- raw&#45;&gt;mfr -->
<g id="edge19" class="edge">
<title>raw&#45;&gt;mfr</title>
<path fill="none" stroke="#000000" d="M147.3253,-587.5511C153.1279,-577.893 161.1622,-566.3697 170.5,-558 175.6531,-553.3812 181.5041,-549.1448 187.5514,-545.3277"/>
<polygon fill="#000000" stroke="#000000" points="189.6675,-548.1427 196.4934,-540.0398 186.1043,-542.1174 189.6675,-548.1427"/>
<text text-anchor="start" x="170.5" y="-562.2" font-family="Arial" font-weight="bold" font-size="11.00" fill="#000000">3. push_raw</text>
</g>
<!-- src -->
<g id="node19" class="node">
<title>src</title>
<polygon fill="#adc7f7" stroke="#000000" points="563.5,-204 471.5,-204 471.5,-168 563.5,-168 563.5,-204"/>
<text text-anchor="start" x="487" y="-189.8" font-family="Arial" font-size="9.00" fill="#000000">structural/bem/</text>
<text text-anchor="start" x="485.5" y="-179.2" font-family="Arial" font-size="11.00" fill="#000000">*&#45;oct&#45;6&#45;src.fif</text>
</g>
<!-- src&#45;&gt;fwd -->
<g id="edge23" class="edge">
<title>src&#45;&gt;fwd</title>
<path fill="none" stroke="#000000" d="M491.7429,-167.9837C476.7369,-158.1018 457.1485,-146.2243 438.5,-138 416.2556,-128.1898 390.5924,-120.1957 368.4812,-114.2546"/>
<polygon fill="#000000" stroke="#000000" points="369.1571,-110.8137 358.597,-111.6702 367.3863,-117.586 369.1571,-110.8137"/>
</g>
<!-- legend -->
<g id="node20" class="node">
<title>legend</title>
<polygon fill="#61c5ad" stroke="transparent" points="200.5,-742 200.5,-760 218.5,-760 218.5,-742 200.5,-742"/>
<text text-anchor="start" x="204.5" y="-748.8" font-family="Arial" font-size="9.00" fill="#000000"> &#160;&#160;&#160;</text>
<text text-anchor="start" x="226.5" y="-748.8" font-family="Arial" font-size="9.00" fill="#000000">Remote: acquisiton machine</text>
<polygon fill="#c37d8b" stroke="transparent" points="200.5,-720 200.5,-738 218.5,-738 218.5,-720 200.5,-720"/>
<text text-anchor="start" x="204.5" y="-726.8" font-family="Arial" font-size="9.00" fill="#000000"> &#160;&#160;&#160;</text>
<text text-anchor="start" x="226.5" y="-726.8" font-family="Arial" font-size="9.00" fill="#000000">Local: user&#45;created files</text>
<polygon fill="#adc7f7" stroke="transparent" points="200.5,-698 200.5,-716 218.5,-716 218.5,-698 200.5,-698"/>
<text text-anchor="start" x="204.5" y="-704.8" font-family="Arial" font-size="9.00" fill="#000000"> &#160;&#160;&#160;</text>
<text text-anchor="start" x="226.5" y="-704.8" font-family="Arial" font-size="9.00" fill="#000000">Local: pipeline&#45;created files</text>
<polygon fill="#a8a564" stroke="transparent" points="200.5,-676 200.5,-694 218.5,-694 218.5,-676 200.5,-676"/>
<text text-anchor="start" x="204.5" y="-682.8" font-family="Arial" font-size="9.00" fill="#000000"> &#160;&#160;&#160;</text>
<text text-anchor="start" x="226.5" y="-682.8" font-family="Arial" font-size="9.00" fill="#000000">Remote: SSS machine</text>
</g>
</g>
</svg>
