<?xml version="1.0" encoding="UTF-8" standalone="no"?>
<!DOCTYPE svg PUBLIC "-//W3C//DTD SVG 1.1//EN"
 "http://www.w3.org/Graphics/SVG/1.1/DTD/svg11.dtd">
<!-- Generated by graphviz version 2.40.1 (20161225.0304)
 -->
<!-- Title: mnefun flow diagram Pages: 1 -->
<svg width="576pt" height="877pt"
 viewBox="0.00 0.00 575.50 877.00" xmlns="http://www.w3.org/2000/svg" xmlns:xlink="http://www.w3.org/1999/xlink">
<g id="graph0" class="graph" transform="scale(1 1) rotate(0) translate(4 873)">
<title>mnefun flow diagram</title>
<polygon fill="transparent" stroke="transparent" points="-4,4 -4,-873 571.5,-873 571.5,4 -4,4"/>
<!-- htm -->
<g id="node1" class="node">
<title>htm</title>
<polygon fill="#66ccee" stroke="#000000" points="299.5,-62 185.5,-62 185.5,-26 299.5,-26 299.5,-62"/>
<text text-anchor="start" x="228" y="-47.6" font-family="sans-serif" font-size="8.00" fill="#000000">./SUBJ/</text>
<text text-anchor="start" x="192.5" y="-38" font-family="sans-serif" font-size="10.00" fill="#000000">subj_fil*_report.html</text>
</g>
<!-- legend -->
<g id="node2" class="node">
<title>legend</title>
<polygon fill="#ccbb44" stroke="transparent" points="318.5,-67 318.5,-84 339.5,-84 339.5,-67 318.5,-67"/>
<text text-anchor="start" x="322.5" y="-73.6" font-family="sans-serif" font-size="8.00" fill="#000000"> &#160;&#160;&#160;</text>
<text text-anchor="start" x="347.5" y="-73.6" font-family="sans-serif" font-size="8.00" fill="#000000">Remote: acquisiton machine</text>
<polygon fill="#ee6677" stroke="transparent" points="318.5,-46 318.5,-63 339.5,-63 339.5,-46 318.5,-46"/>
<text text-anchor="start" x="322.5" y="-52.6" font-family="sans-serif" font-size="8.00" fill="#000000"> &#160;&#160;&#160;</text>
<text text-anchor="start" x="347.5" y="-52.6" font-family="sans-serif" font-size="8.00" fill="#000000">Local: obligatory user&#45;created files</text>
<polygon fill="#ffd8df" stroke="transparent" points="318.5,-25 318.5,-42 339.5,-42 339.5,-25 318.5,-25"/>
<text text-anchor="start" x="322.5" y="-31.6" font-family="sans-serif" font-size="8.00" fill="#000000"> &#160;&#160;&#160;</text>
<text text-anchor="start" x="347.5" y="-31.6" font-family="sans-serif" font-size="8.00" fill="#000000">Local: optional user&#45;created files</text>
<polygon fill="#66ccee" stroke="transparent" points="318.5,-4 318.5,-21 339.5,-21 339.5,-4 318.5,-4"/>
<text text-anchor="start" x="322.5" y="-10.6" font-family="sans-serif" font-size="8.00" fill="#000000"> &#160;&#160;&#160;</text>
<text text-anchor="start" x="347.5" y="-10.6" font-family="sans-serif" font-size="8.00" fill="#000000">Local: pipeline&#45;created files</text>
</g>
<!-- sco -->
<g id="node3" class="node">
<title>sco</title>
<polygon fill="#ee6677" stroke="#000000" points="104.5,-709 48.5,-709 48.5,-673 104.5,-673 104.5,-709"/>
<text text-anchor="start" x="73" y="-694.6" font-family="sans-serif" font-size="8.00" fill="#000000">./</text>
<text text-anchor="start" x="55.5" y="-685" font-family="sans-serif" font-size="10.00" fill="#000000">score.py</text>
</g>
<!-- lst -->
<g id="node4" class="node">
<title>lst</title>
<polygon fill="#66ccee" stroke="#000000" points="79,-621 0,-621 0,-585 79,-585 79,-621"/>
<text text-anchor="start" x="15" y="-606.6" font-family="sans-serif" font-size="8.00" fill="#000000">./SUBJ/lists/</text>
<text text-anchor="start" x="7" y="-597" font-family="sans-serif" font-size="10.00" fill="#000000">ALL_*&#45;eve.lst</text>
</g>
<!-- sco&#45;&gt;lst -->
<g id="edge1" class="edge">
<title>sco&#45;&gt;lst</title>
<g id="a_edge1"><a xlink:href="../overview.html#do-score" xlink:title="&lt;B&gt;2. do_score&lt;/B&gt;" target="_top">
<path fill="none" stroke="#000000" d="M52.0392,-672.8801C49.8916,-670.4421 47.9768,-667.8054 46.5,-665 41.1083,-654.758 38.998,-642.2646 38.3692,-631.1835"/>
<polygon fill="#000000" stroke="#000000" points="41.867,-631.0373 38.1614,-621.1116 34.8685,-631.1817 41.867,-631.0373"/>
</a>
</g>
<g id="a_edge1&#45;label"><a xlink:href="../overview.html#do-score" xlink:title="2. do_score" target="_top">
<text text-anchor="start" x="46.5" y="-645.5" font-family="sans-serif" font-weight="bold" font-size="10.00" fill="#000000">2. do_score</text>
</a>
</g>
</g>
<!-- evo -->
<g id="node5" class="node">
<title>evo</title>
<polygon fill="#66ccee" stroke="#000000" points="202,-204 57,-204 57,-168 202,-168 202,-204"/>
<text text-anchor="start" x="64" y="-189.6" font-family="sans-serif" font-size="8.00" fill="#000000">./SUBJ/inverse/, ./SUBJ/epochs/</text>
<text text-anchor="start" x="86.5" y="-180" font-family="sans-serif" font-size="10.00" fill="#000000">*&#45;evo.fif, *&#45;epo.fif</text>
</g>
<!-- lst&#45;&gt;evo -->
<g id="edge2" class="edge">
<title>lst&#45;&gt;evo</title>
<path fill="none" stroke="#000000" d="M39.5,-584.7978C39.5,-567.0023 39.5,-539.1389 39.5,-515 39.5,-515 39.5,-515 39.5,-249 39.5,-231.7012 50.7972,-218.7521 65.3865,-209.2419"/>
<polygon fill="#000000" stroke="#000000" points="67.4299,-212.1016 74.2963,-204.033 63.8969,-206.0585 67.4299,-212.1016"/>
</g>
<!-- evo&#45;&gt;htm -->
<g id="edge3" class="edge">
<title>evo&#45;&gt;htm</title>
<g id="a_edge3"><a xlink:href="../overview.html#gen-report" xlink:title="&lt;B&gt;11. gen_report&lt;/B&gt;" target="_top">
<path fill="none" stroke="#000000" d="M133.3345,-167.8142C137.692,-150.3728 146.1334,-123.9627 160.5,-105 171.517,-90.4585 186.9122,-77.7577 201.3913,-67.7647"/>
<polygon fill="#000000" stroke="#000000" points="203.3762,-70.6481 209.7706,-62.2005 199.5038,-64.8167 203.3762,-70.6481"/>
</a>
</g>
<g id="a_edge3&#45;label"><a xlink:href="../overview.html#gen-report" xlink:title="11. gen_report" target="_top">
<text text-anchor="start" x="160.5" y="-121.5" font-family="sans-serif" font-weight="bold" font-size="10.00" fill="#000000">11. gen_report</text>
</a>
</g>
</g>
<!-- mri -->
<g id="node6" class="node">
<title>mri</title>
<polygon fill="#66ccee" stroke="#000000" points="488,-330 413,-330 413,-294 488,-294 488,-330"/>
<text text-anchor="start" x="420" y="-315.6" font-family="sans-serif" font-size="8.00" fill="#000000">structural/mri/</text>
<text text-anchor="start" x="432" y="-306" font-family="sans-serif" font-size="10.00" fill="#000000">T1.mgz</text>
</g>
<!-- bem -->
<g id="node7" class="node">
<title>bem</title>
<polygon fill="#66ccee" stroke="#000000" points="567.5,-267 487.5,-267 487.5,-231 567.5,-231 567.5,-267"/>
<text text-anchor="start" x="494.5" y="-252.6" font-family="sans-serif" font-size="8.00" fill="#000000">structural/bem/</text>
<text text-anchor="start" x="496.5" y="-243" font-family="sans-serif" font-size="10.00" fill="#000000">*&#45;bem&#45;sol.fif</text>
</g>
<!-- mri&#45;&gt;bem -->
<g id="edge4" class="edge">
<title>mri&#45;&gt;bem</title>
<path fill="none" stroke="#000000" d="M472.7716,-293.7778C480.4334,-287.5091 489.1447,-280.3816 497.3287,-273.6856"/>
<polygon fill="#000000" stroke="#000000" points="499.7552,-276.2225 505.2785,-267.1813 495.3225,-270.8048 499.7552,-276.2225"/>
<g id="a_edge4&#45;label"><a xlink:title="Freesurfer">
<text text-anchor="middle" x="518" y="-278" font-family="sans-serif" font-size="10.00" fill="#000000">Freesurfer</text>
</a>
</g>
</g>
<!-- tra -->
<g id="node8" class="node">
<title>tra</title>
<polygon fill="#ee6677" stroke="#000000" points="379.5,-267 311.5,-267 311.5,-231 379.5,-231 379.5,-267"/>
<text text-anchor="start" x="318.5" y="-252.6" font-family="sans-serif" font-size="8.00" fill="#000000">./SUBJ/trans/</text>
<text text-anchor="start" x="322" y="-243" font-family="sans-serif" font-size="10.00" fill="#000000">*&#45;trans.fif</text>
</g>
<!-- mri&#45;&gt;tra -->
<g id="edge5" class="edge">
<title>mri&#45;&gt;tra</title>
<path fill="none" stroke="#000000" d="M412.9118,-299.6716C403.6224,-295.904 393.9255,-291.3233 385.5,-286 380.0418,-282.5515 374.6509,-278.3119 369.6793,-273.9481"/>
<polygon fill="#000000" stroke="#000000" points="371.9793,-271.3078 362.2626,-267.0845 367.2248,-276.4454 371.9793,-271.3078"/>
<g id="a_edge5&#45;label"><a xlink:title="mne coreg">
<text text-anchor="middle" x="411.5" y="-278" font-family="sans-serif" font-size="10.00" fill="#000000">mne coreg</text>
</a>
</g>
</g>
<!-- src -->
<g id="node9" class="node">
<title>src</title>
<polygon fill="#66ccee" stroke="#000000" points="473.5,-267 393.5,-267 393.5,-231 473.5,-231 473.5,-267"/>
<text text-anchor="start" x="400.5" y="-252.6" font-family="sans-serif" font-size="8.00" fill="#000000">structural/bem/</text>
<text text-anchor="start" x="415" y="-243" font-family="sans-serif" font-size="10.00" fill="#000000">*&#45;src.fif</text>
</g>
<!-- mri&#45;&gt;src -->
<g id="edge6" class="edge">
<title>mri&#45;&gt;src</title>
<path fill="none" stroke="#000000" d="M445.5829,-293.7778C444.1855,-288.5993 442.63,-282.8348 441.1126,-277.2115"/>
<polygon fill="#000000" stroke="#000000" points="444.4494,-276.1423 438.4649,-267.3995 437.6911,-277.9661 444.4494,-276.1423"/>
</g>
<!-- fwd -->
<g id="node10" class="node">
<title>fwd</title>
<polygon fill="#66ccee" stroke="#000000" points="388,-204 309,-204 309,-168 388,-168 388,-204"/>
<text text-anchor="start" x="316" y="-189.6" font-family="sans-serif" font-size="8.00" fill="#000000">./SUBJ/forward/</text>
<text text-anchor="start" x="328.5" y="-180" font-family="sans-serif" font-size="10.00" fill="#000000">*&#45;fwd.fif</text>
</g>
<!-- bem&#45;&gt;fwd -->
<g id="edge7" class="edge">
<title>bem&#45;&gt;fwd</title>
<path fill="none" stroke="#000000" d="M487.2797,-233.496C484.9888,-232.6443 482.7168,-231.8071 480.5,-231 453.2855,-221.0911 422.6829,-210.6171 397.8007,-202.2696"/>
<polygon fill="#000000" stroke="#000000" points="398.8094,-198.9165 388.2156,-199.0641 396.5892,-205.5551 398.8094,-198.9165"/>
</g>
<!-- tra&#45;&gt;fwd -->
<g id="edge8" class="edge">
<title>tra&#45;&gt;fwd</title>
<g id="a_edge8"><a xlink:href="../overview.html#gen-fwd" xlink:title="&lt;B&gt;9. gen_fwd&lt;/B&gt;" target="_top">
<path fill="none" stroke="#000000" d="M346.3677,-230.7778C346.6082,-225.7287 346.8751,-220.1226 347.1365,-214.6335"/>
<polygon fill="#000000" stroke="#000000" points="350.6441,-214.5547 347.6238,-204.3995 343.652,-214.2217 350.6441,-214.5547"/>
</a>
</g>
<g id="a_edge8&#45;label"><a xlink:href="../overview.html#gen-fwd" xlink:title="9. gen_fwd" target="_top">
<text text-anchor="start" x="346.5" y="-216" font-family="sans-serif" font-weight="bold" font-size="10.00" fill="#000000">9. gen_fwd</text>
</a>
</g>
</g>
<!-- src&#45;&gt;fwd -->
<g id="edge9" class="edge">
<title>src&#45;&gt;fwd</title>
<path fill="none" stroke="#000000" d="M425.135,-230.7545C421.4049,-224.1658 416.4865,-217.1026 410.5,-212 406.5484,-208.6319 402.098,-205.6492 397.4416,-203.0198"/>
<polygon fill="#000000" stroke="#000000" points="398.8117,-199.7903 388.3098,-198.3901 395.6463,-206.0338 398.8117,-199.7903"/>
</g>
<!-- inv -->
<g id="node11" class="node">
<title>inv</title>
<polygon fill="#66ccee" stroke="#000000" points="342.5,-141 264.5,-141 264.5,-105 342.5,-105 342.5,-141"/>
<text text-anchor="start" x="271.5" y="-126.6" font-family="sans-serif" font-size="8.00" fill="#000000">./SUBJ/inverse/</text>
<text text-anchor="start" x="285" y="-117" font-family="sans-serif" font-size="10.00" fill="#000000">*&#45;inv.fif</text>
</g>
<!-- fwd&#45;&gt;inv -->
<g id="edge10" class="edge">
<title>fwd&#45;&gt;inv</title>
<g id="a_edge10"><a xlink:href="../overview.html#gen-inv" xlink:title="&lt;B&gt;10. gen_inv&lt;/B&gt;" target="_top">
<path fill="none" stroke="#000000" d="M335.4841,-167.7778C331.5078,-162.2109 327.0477,-155.9668 322.7493,-149.949"/>
<polygon fill="#000000" stroke="#000000" points="325.303,-147.5025 316.6425,-141.3995 319.6069,-151.5712 325.303,-147.5025"/>
</a>
</g>
<g id="a_edge10&#45;label"><a xlink:href="../overview.html#gen-inv" xlink:title="10. gen_inv" target="_top">
<text text-anchor="start" x="328.5" y="-153" font-family="sans-serif" font-weight="bold" font-size="10.00" fill="#000000">10. gen_inv</text>
</a>
</g>
</g>
<!-- inv&#45;&gt;htm -->
<g id="edge11" class="edge">
<title>inv&#45;&gt;htm</title>
<path fill="none" stroke="#000000" d="M289.3521,-104.6772C281.4991,-94.507 271.5928,-81.6775 262.9142,-70.438"/>
<polygon fill="#000000" stroke="#000000" points="265.4532,-67.9994 256.5712,-62.2234 259.9126,-72.2775 265.4532,-67.9994"/>
</g>
<!-- pbd -->
<g id="node12" class="node">
<title>pbd</title>
<polygon fill="#ee6677" stroke="#000000" points="297,-753 176,-753 176,-717 297,-717 297,-753"/>
<text text-anchor="middle" x="236.5" y="-733.1" font-family="sans-serif" font-size="8.00" fill="#000000">params.mf_prebad[SUBJ]</text>
</g>
<!-- mfb -->
<g id="node13" class="node">
<title>mfb</title>
<polygon fill="#66ccee" stroke="#000000" points="223,-665 118,-665 118,-629 223,-629 223,-665"/>
<text text-anchor="start" x="140" y="-650.6" font-family="sans-serif" font-size="8.00" fill="#000000">./SUBJ/raw_fif/</text>
<text text-anchor="start" x="125" y="-641" font-family="sans-serif" font-size="10.00" fill="#000000">*_raw_maxbad.txt</text>
</g>
<!-- pbd&#45;&gt;mfb -->
<g id="edge12" class="edge">
<title>pbd&#45;&gt;mfb</title>
<g id="a_edge12"><a xlink:href="../overview.html#do-sss" xlink:title="&lt;B&gt;3. do_sss&lt;/B&gt;" target="_top">
<path fill="none" stroke="#000000" d="M190.4695,-716.9713C187.498,-714.6135 184.7866,-711.9669 182.5,-709 175.1212,-699.4261 171.8723,-686.5992 170.5647,-675.097"/>
<polygon fill="#000000" stroke="#000000" points="174.0499,-674.7628 169.8468,-665.0373 167.0676,-675.2612 174.0499,-674.7628"/>
</a>
</g>
<g id="a_edge12&#45;label"><a xlink:href="../overview.html#do-sss" xlink:title="3. do_sss" target="_top">
<text text-anchor="start" x="182.5" y="-689.5" font-family="sans-serif" font-weight="bold" font-size="10.00" fill="#000000">3. do_sss</text>
</a>
</g>
</g>
<!-- mfp -->
<g id="node14" class="node">
<title>mfp</title>
<polygon fill="#66ccee" stroke="#000000" points="253,-577 178,-577 178,-541 253,-541 253,-577"/>
<text text-anchor="start" x="185" y="-562.6" font-family="sans-serif" font-size="8.00" fill="#000000">./SUBJ/raw_fif/</text>
<text text-anchor="start" x="191" y="-553" font-family="sans-serif" font-size="10.00" fill="#000000">*_raw.pos</text>
</g>
<!-- pbd&#45;&gt;mfp -->
<g id="edge13" class="edge">
<title>pbd&#45;&gt;mfp</title>
<path fill="none" stroke="#000000" d="M235.8226,-716.8115C235.3124,-704.4489 234.5253,-687.7281 233.5,-673 232.1363,-653.4112 232.3184,-648.4329 229.5,-629 227.4849,-615.1059 224.5118,-599.8015 221.8232,-587.0555"/>
<polygon fill="#000000" stroke="#000000" points="225.1918,-586.0731 219.6589,-577.0377 218.3497,-587.5514 225.1918,-586.0731"/>
</g>
<!-- sss -->
<g id="node15" class="node">
<title>sss</title>
<polygon fill="#66ccee" stroke="#000000" points="306,-436 229,-436 229,-400 306,-400 306,-436"/>
<text text-anchor="start" x="238.5" y="-421.6" font-family="sans-serif" font-size="8.00" fill="#000000">./SUBJ/sss_fif/</text>
<text text-anchor="start" x="236" y="-412" font-family="sans-serif" font-size="10.00" fill="#000000">*_raw_sss.fif</text>
</g>
<!-- pbd&#45;&gt;sss -->
<g id="edge14" class="edge">
<title>pbd&#45;&gt;sss</title>
<path fill="none" stroke="#000000" d="M255.335,-716.9784C270.5688,-700.3905 289.5,-674.2871 289.5,-647 289.5,-647 289.5,-647 289.5,-471 289.5,-462.359 286.9746,-453.4894 283.6351,-445.538"/>
<polygon fill="#000000" stroke="#000000" points="286.7304,-443.8971 279.2729,-436.3715 280.4097,-446.9052 286.7304,-443.8971"/>
</g>
<!-- mfb&#45;&gt;mfp -->
<g id="edge15" class="edge">
<title>mfb&#45;&gt;mfp</title>
<path fill="none" stroke="#000000" d="M179.824,-628.7663C186.0991,-616.4952 194.4852,-600.0957 201.5501,-586.2798"/>
<polygon fill="#000000" stroke="#000000" points="204.7512,-587.7073 206.1879,-577.2103 198.5188,-584.5202 204.7512,-587.7073"/>
</g>
<!-- mfb&#45;&gt;sss -->
<g id="edge16" class="edge">
<title>mfb&#45;&gt;sss</title>
<path fill="none" stroke="#000000" d="M161.9512,-628.8162C145.9088,-591.725 116.2809,-506.3455 155.5,-453 163.3912,-442.2664 192.4536,-433.3647 218.9945,-427.2248"/>
<polygon fill="#000000" stroke="#000000" points="219.9879,-430.5896 228.9937,-425.0087 218.4732,-423.7554 219.9879,-430.5896"/>
</g>
<!-- mfp&#45;&gt;sss -->
<g id="edge17" class="edge">
<title>mfp&#45;&gt;sss</title>
<path fill="none" stroke="#000000" d="M223.5349,-540.7346C229.5939,-526.7009 237.951,-506.7742 244.5,-489 249.6607,-474.9936 254.8344,-459.215 258.9643,-446.0957"/>
<polygon fill="#000000" stroke="#000000" points="262.4051,-446.8174 262.0324,-436.2291 255.7209,-444.7388 262.4051,-446.8174"/>
</g>
<!-- aan -->
<g id="node16" class="node">
<title>aan</title>
<polygon fill="#66ccee" stroke="#000000" points="238,-489 163,-489 163,-453 238,-453 238,-489"/>
<text text-anchor="start" x="170" y="-474.6" font-family="sans-serif" font-size="8.00" fill="#000000">./SUBJ/raw_fif/</text>
<text text-anchor="start" x="175.5" y="-465" font-family="sans-serif" font-size="10.00" fill="#000000">*&#45;annot.fif</text>
</g>
<!-- mfp&#45;&gt;aan -->
<g id="edge18" class="edge">
<title>mfp&#45;&gt;aan</title>
<path fill="none" stroke="#000000" d="M212.392,-540.7663C210.3405,-528.7312 207.6122,-512.7249 205.2863,-499.0797"/>
<polygon fill="#000000" stroke="#000000" points="208.7347,-498.48 203.604,-489.2103 201.8342,-499.6563 208.7347,-498.48"/>
</g>
<!-- sss&#45;&gt;sss -->
<g id="edge19" class="edge">
<title>sss&#45;&gt;sss</title>
<g id="a_edge19"><a xlink:href="../overview.html#do-ch-fix" xlink:title="&lt;B&gt;4. do_ch_fix&lt;/B&gt;" target="_top">
<path fill="none" stroke="#000000" d="M306.1909,-422.7036C314.2236,-422.2085 320,-420.6406 320,-418 320,-416.6797 318.5559,-415.6276 316.1077,-414.8436"/>
<polygon fill="#000000" stroke="#000000" points="316.6109,-411.3799 306.1909,-413.2964 315.5318,-418.2962 316.6109,-411.3799"/>
</a>
</g>
<g id="a_edge19&#45;label"><a xlink:href="../overview.html#do-ch-fix" xlink:title="4. do_ch_fix" target="_top">
<text text-anchor="start" x="320" y="-416.5" font-family="sans-serif" font-weight="bold" font-size="10.00" fill="#000000">4. do_ch_fix</text>
</a>
</g>
</g>
<!-- bad -->
<g id="node17" class="node">
<title>bad</title>
<polygon fill="#ee6677" stroke="#000000" points="230.5,-383 148.5,-383 148.5,-347 230.5,-347 230.5,-383"/>
<text text-anchor="start" x="163.5" y="-368.6" font-family="sans-serif" font-size="8.00" fill="#000000">./SUBJ/bads/</text>
<text text-anchor="start" x="155.5" y="-359" font-family="sans-serif" font-size="10.00" fill="#000000">*_post&#45;sss.txt</text>
</g>
<!-- sss&#45;&gt;bad -->
<g id="edge20" class="edge">
<title>sss&#45;&gt;bad</title>
<path fill="none" stroke="#000000" d="M240.6568,-399.7604C235.4513,-396.2233 229.9248,-392.4681 224.5024,-388.7837"/>
<polygon fill="#000000" stroke="#000000" points="226.3668,-385.819 216.1284,-383.0937 222.4326,-391.6089 226.3668,-385.819"/>
</g>
<!-- pca -->
<g id="node18" class="node">
<title>pca</title>
<polygon fill="#66ccee" stroke="#000000" points="295,-267 192,-267 192,-231 295,-231 295,-267"/>
<text text-anchor="start" x="204.5" y="-252.6" font-family="sans-serif" font-size="8.00" fill="#000000">./SUBJ/sss_pca_fif/</text>
<text text-anchor="start" x="199" y="-243" font-family="sans-serif" font-size="10.00" fill="#000000">*_fil55_raw_sss.fif</text>
</g>
<!-- sss&#45;&gt;pca -->
<g id="edge21" class="edge">
<title>sss&#45;&gt;pca</title>
<path fill="none" stroke="#000000" d="M306.2486,-409.5342C320.4652,-404.351 335.1175,-396.0891 343.5,-383 352.1289,-369.5262 347.089,-362.5923 343.5,-347 335.5188,-312.3261 334.5481,-299.2378 308.5,-275 306.9985,-273.6028 305.4125,-272.2769 303.7597,-271.0189"/>
<polygon fill="#000000" stroke="#000000" points="305.3004,-267.8434 295.0206,-265.2792 301.4576,-273.6944 305.3004,-267.8434"/>
</g>
<!-- pro -->
<g id="node19" class="node">
<title>pro</title>
<polygon fill="#66ccee" stroke="#000000" points="278.5,-330 186.5,-330 186.5,-294 278.5,-294 278.5,-330"/>
<text text-anchor="start" x="193.5" y="-315.6" font-family="sans-serif" font-size="8.00" fill="#000000">./SUBJ/sss_pca_fif/</text>
<text text-anchor="start" x="212" y="-306" font-family="sans-serif" font-size="10.00" fill="#000000">*&#45;proj.fif</text>
</g>
<!-- sss&#45;&gt;pro -->
<g id="edge22" class="edge">
<title>sss&#45;&gt;pro</title>
<g id="a_edge22"><a xlink:href="../overview.html#gen-ssp" xlink:title="&lt;B&gt;5. gen_ssp&lt;/B&gt;" target="_top">
<path fill="none" stroke="#000000" d="M228.7205,-416.2941C180.043,-413.2454 100.6961,-404.9613 82.5,-383 72.2919,-370.6795 72.5544,-359.5334 82.5,-347 94.1992,-332.2567 138.3853,-323.1447 175.7941,-317.9288"/>
<polygon fill="#000000" stroke="#000000" points="176.6791,-321.3423 186.133,-316.5595 175.76,-314.4029 176.6791,-321.3423"/>
</a>
</g>
<g id="a_edge22&#45;label"><a xlink:href="../overview.html#gen-ssp" xlink:title="5. gen_ssp" target="_top">
<text text-anchor="start" x="82.5" y="-363.5" font-family="sans-serif" font-weight="bold" font-size="10.00" fill="#000000">5. gen_ssp</text>
</a>
</g>
</g>
<!-- pex -->
<g id="node20" class="node">
<title>pex</title>
<polygon fill="#ffd8df" stroke="#000000" points="336.5,-383 244.5,-383 244.5,-347 336.5,-347 336.5,-383"/>
<text text-anchor="start" x="251.5" y="-368.6" font-family="sans-serif" font-size="8.00" fill="#000000">./SUBJ/sss_pca_fif/</text>
<text text-anchor="start" x="255.5" y="-359" font-family="sans-serif" font-size="10.00" fill="#000000">*&#45;extra&#45;proj.fif</text>
</g>
<!-- sss&#45;&gt;pex -->
<g id="edge23" class="edge">
<title>sss&#45;&gt;pex</title>
<path fill="none" stroke="#000000" d="M275.4153,-399.7604C276.4386,-397.4024 277.504,-394.9474 278.5743,-392.481"/>
<polygon fill="#000000" stroke="#000000" points="281.8777,-393.6605 282.648,-383.0937 275.4563,-390.8738 281.8777,-393.6605"/>
</g>
<!-- aan&#45;&gt;sss -->
<g id="edge24" class="edge">
<title>aan&#45;&gt;sss</title>
<path fill="none" stroke="#000000" d="M223.5576,-452.7604C227.8161,-449.3918 232.3246,-445.8253 236.7679,-442.3105"/>
<polygon fill="#000000" stroke="#000000" points="238.9554,-445.0427 244.6269,-436.0937 234.6126,-439.5527 238.9554,-445.0427"/>
</g>
<!-- bad&#45;&gt;pca -->
<g id="edge25" class="edge">
<title>bad&#45;&gt;pca</title>
<path fill="none" stroke="#000000" d="M181.2394,-346.7847C175.7418,-331.8118 170.9518,-310.4603 179.5,-294 183.6395,-286.0292 189.9105,-279.1737 196.9358,-273.3892"/>
<polygon fill="#000000" stroke="#000000" points="199.4923,-275.8514 205.4467,-267.0881 195.3271,-270.2254 199.4923,-275.8514"/>
</g>
<!-- bad&#45;&gt;pro -->
<g id="edge26" class="edge">
<title>bad&#45;&gt;pro</title>
<path fill="none" stroke="#000000" d="M204.2982,-346.7604C206.6212,-343.8971 209.0603,-340.8908 211.491,-337.8948"/>
<polygon fill="#000000" stroke="#000000" points="214.2378,-340.0645 217.8202,-330.0937 208.8018,-335.6542 214.2378,-340.0645"/>
</g>
<!-- pca&#45;&gt;evo -->
<g id="edge27" class="edge">
<title>pca&#45;&gt;evo</title>
<g id="a_edge27"><a xlink:href="../overview.html#write-epochs" xlink:title="&lt;B&gt;7. write_epochs&lt;/B&gt;" target="_top">
<path fill="none" stroke="#000000" d="M191.9672,-239.9934C179.2663,-236.157 166.2401,-230.7125 155.5,-223 151.4864,-220.1179 147.8748,-216.4165 144.7101,-212.4729"/>
<polygon fill="#000000" stroke="#000000" points="147.4976,-210.3531 138.8563,-204.223 141.7887,-214.4039 147.4976,-210.3531"/>
</a>
</g>
<g id="a_edge27&#45;label"><a xlink:href="../overview.html#write-epochs" xlink:title="7. write_epochs" target="_top">
<text text-anchor="start" x="155.5" y="-216" font-family="sans-serif" font-weight="bold" font-size="10.00" fill="#000000">7. write_epochs</text>
</a>
</g>
</g>
<!-- pca&#45;&gt;fwd -->
<g id="edge28" class="edge">
<title>pca&#45;&gt;fwd</title>
<path fill="none" stroke="#000000" d="M295.2633,-230.863C300.2055,-228.468 305.0336,-225.8451 309.5,-223 314.7445,-219.6592 319.9008,-215.5513 324.6595,-211.3018"/>
<polygon fill="#000000" stroke="#000000" points="327.3825,-213.5435 332.2382,-204.1269 322.57,-208.4602 327.3825,-213.5435"/>
</g>
<!-- cov -->
<g id="node21" class="node">
<title>cov</title>
<polygon fill="#66ccee" stroke="#000000" points="277,-204 216,-204 216,-168 277,-168 277,-204"/>
<text text-anchor="start" x="223" y="-189.6" font-family="sans-serif" font-size="8.00" fill="#000000">./SUBJ/cov/</text>
<text text-anchor="start" x="227" y="-180" font-family="sans-serif" font-size="10.00" fill="#000000">*&#45;cov.fif</text>
</g>
<!-- pca&#45;&gt;cov -->
<g id="edge29" class="edge">
<title>pca&#45;&gt;cov</title>
<g id="a_edge29"><a xlink:href="../overview.html#gen-covs" xlink:title="&lt;B&gt;8. gen_covs&lt;/B&gt;" target="_top">
<path fill="none" stroke="#000000" d="M244.3677,-230.7778C244.6082,-225.7287 244.8751,-220.1226 245.1365,-214.6335"/>
<polygon fill="#000000" stroke="#000000" points="248.6441,-214.5547 245.6238,-204.3995 241.652,-214.2217 248.6441,-214.5547"/>
</a>
</g>
<g id="a_edge29&#45;label"><a xlink:href="../overview.html#gen-covs" xlink:title="8. gen_covs" target="_top">
<text text-anchor="start" x="245.5" y="-216" font-family="sans-serif" font-weight="bold" font-size="10.00" fill="#000000">8. gen_covs</text>
</a>
</g>
</g>
<!-- pro&#45;&gt;pca -->
<g id="edge30" class="edge">
<title>pro&#45;&gt;pca</title>
<g id="a_edge30"><a xlink:href="../overview.html#apply-ssp" xlink:title="&lt;B&gt;6. apply_ssp&lt;/B&gt;" target="_top">
<path fill="none" stroke="#000000" d="M227.8855,-293.7283C227.29,-289.3901 227.0392,-284.7082 228.6327,-277.3084"/>
<polygon fill="#000000" stroke="#000000" points="232.1281,-277.8034 231.4406,-267.2309 225.3849,-275.9246 232.1281,-277.8034"/>
</a>
</g>
<g id="a_edge30&#45;label"><a xlink:href="../overview.html#apply-ssp" xlink:title="6. apply_ssp" target="_top">
<text text-anchor="start" x="228.5" y="-279" font-family="sans-serif" font-weight="bold" font-size="10.00" fill="#000000">6. apply_ssp</text>
</a>
</g>
</g>
<!-- pex&#45;&gt;pca -->
<g id="edge31" class="edge">
<title>pex&#45;&gt;pca</title>
<path fill="none" stroke="#000000" d="M297.2009,-346.9425C303.1458,-327.6275 308.9926,-296.8315 295.5,-275 295.4436,-274.9088 295.3868,-274.8179 295.3296,-274.7273"/>
<polygon fill="#000000" stroke="#000000" points="298.055,-272.5297 288.9216,-267.1601 292.713,-277.0533 298.055,-272.5297"/>
</g>
<!-- pex&#45;&gt;pro -->
<g id="edge32" class="edge">
<title>pex&#45;&gt;pro</title>
<path fill="none" stroke="#000000" d="M270.5397,-346.7604C267.1297,-343.6444 263.5345,-340.3591 259.9702,-337.1021"/>
<polygon fill="#000000" stroke="#000000" points="262.0438,-334.2557 252.3006,-330.0937 257.3217,-339.4232 262.0438,-334.2557"/>
</g>
<!-- cov&#45;&gt;htm -->
<g id="edge33" class="edge">
<title>cov&#45;&gt;htm</title>
<path fill="none" stroke="#000000" d="M245.9853,-167.7267C245.3042,-143.5496 244.0968,-100.6853 243.2973,-72.3028"/>
<polygon fill="#000000" stroke="#000000" points="246.7931,-72.1006 243.0128,-62.2032 239.7958,-72.2978 246.7931,-72.1006"/>
</g>
<!-- cov&#45;&gt;inv -->
<g id="edge34" class="edge">
<title>cov&#45;&gt;inv</title>
<path fill="none" stroke="#000000" d="M262.9868,-167.7778C268.2577,-161.952 274.1998,-155.3845 279.8759,-149.1109"/>
<polygon fill="#000000" stroke="#000000" points="282.739,-151.1631 286.8528,-141.3995 277.5483,-146.4667 282.739,-151.1631"/>
</g>
<!-- acq -->
<g id="node22" class="node">
<title>acq</title>
<polygon fill="#ccbb44" stroke="#000000" points="270.5,-869 202.5,-869 202.5,-833 270.5,-833 270.5,-869"/>
<text text-anchor="start" x="209.5" y="-854.6" font-family="sans-serif" font-size="8.00" fill="#000000">user@minea</text>
<text text-anchor="start" x="216" y="-845" font-family="sans-serif" font-size="10.00" fill="#000000">*_raw.fif</text>
</g>
<!-- raw -->
<g id="node23" class="node">
<title>raw</title>
<polygon fill="#66ccee" stroke="#000000" points="274,-806 199,-806 199,-770 274,-770 274,-806"/>
<text text-anchor="start" x="206" y="-791.6" font-family="sans-serif" font-size="8.00" fill="#000000">./SUBJ/raw_fif/</text>
<text text-anchor="start" x="216" y="-782" font-family="sans-serif" font-size="10.00" fill="#000000">*_raw.fif</text>
</g>
<!-- acq&#45;&gt;raw -->
<g id="edge35" class="edge">
<title>acq&#45;&gt;raw</title>
<g id="a_edge35"><a xlink:href="../overview.html#fetch-raw" xlink:title="&lt;B&gt;1. fetch_raw&lt;/B&gt;" target="_top">
<path fill="none" stroke="#000000" d="M236.5,-832.7778C236.5,-827.7287 236.5,-822.1226 236.5,-816.6335"/>
<polygon fill="#000000" stroke="#000000" points="240.0001,-816.3995 236.5,-806.3995 233.0001,-816.3995 240.0001,-816.3995"/>
</a>
</g>
<g id="a_edge35&#45;label"><a xlink:href="../overview.html#fetch-raw" xlink:title="1. fetch_raw" target="_top">
<text text-anchor="start" x="236.5" y="-818" font-family="sans-serif" font-weight="bold" font-size="10.00" fill="#000000">1. fetch_raw</text>
</a>
</g>
</g>
<!-- raw&#45;&gt;sco -->
<g id="edge36" class="edge">
<title>raw&#45;&gt;sco</title>
<path fill="none" stroke="#000000" d="M198.8901,-782.5223C180.8821,-778.7072 159.5765,-772.3727 142.5,-762 123.6886,-750.5734 106.8725,-732.292 94.9225,-717.1416"/>
<polygon fill="#000000" stroke="#000000" points="97.6474,-714.9428 88.8025,-709.1103 92.0797,-719.1855 97.6474,-714.9428"/>
</g>
<!-- raw&#45;&gt;pbd -->
<g id="edge37" class="edge">
<title>raw&#45;&gt;pbd</title>
<path fill="none" stroke="#000000" d="M236.5,-769.7604C236.5,-767.655 236.5,-765.4723 236.5,-763.2733"/>
<polygon fill="#000000" stroke="#000000" points="240.0001,-763.0936 236.5,-753.0937 233.0001,-763.0937 240.0001,-763.0936"/>
</g>
<!-- raw&#45;&gt;mfb -->
<g id="edge38" class="edge">
<title>raw&#45;&gt;mfb</title>
<path fill="none" stroke="#000000" d="M198.6528,-777.0659C186.9844,-771.7452 175.4017,-764.0308 168.5,-753 153.9381,-729.7264 157.0239,-697.5892 162.1362,-674.8177"/>
<polygon fill="#000000" stroke="#000000" points="165.5407,-675.63 164.5715,-665.0796 158.7499,-673.9317 165.5407,-675.63"/>
</g>
<!-- raw&#45;&gt;sss -->
<g id="edge39" class="edge">
<title>raw&#45;&gt;sss</title>
<path fill="none" stroke="#000000" d="M274.1144,-779.3083C296.0752,-771.7566 319.5,-758.2519 319.5,-735 319.5,-735 319.5,-735 319.5,-471 319.5,-460.3653 314.0995,-451.0807 306.7794,-443.3804"/>
<polygon fill="#000000" stroke="#000000" points="308.6892,-440.384 298.9482,-436.217 303.9645,-445.549 308.6892,-440.384"/>
</g>
<!-- can -->
<g id="node24" class="node">
<title>can</title>
<polygon fill="#ffd8df" stroke="#000000" points="436.5,-533 332.5,-533 332.5,-497 436.5,-497 436.5,-533"/>
<text text-anchor="start" x="354" y="-518.6" font-family="sans-serif" font-size="8.00" fill="#000000">./SUBJ/raw_fif/</text>
<text text-anchor="start" x="339.5" y="-509" font-family="sans-serif" font-size="10.00" fill="#000000">*&#45;custom&#45;annot.fif</text>
</g>
<!-- raw&#45;&gt;can -->
<g id="edge40" class="edge">
<title>raw&#45;&gt;can</title>
<path fill="none" stroke="#000000" d="M274.1014,-780.2925C312.4953,-771.3127 366.5,-755.1078 366.5,-735 366.5,-735 366.5,-735 366.5,-603 366.5,-582.7252 371.1428,-560.3462 375.7126,-543.2298"/>
<polygon fill="#000000" stroke="#000000" points="379.162,-543.893 378.5063,-533.3184 372.4245,-541.9938 379.162,-543.893"/>
</g>
<!-- can&#45;&gt;sss -->
<g id="edge41" class="edge">
<title>can&#45;&gt;sss</title>
<path fill="none" stroke="#000000" d="M374.4282,-496.7867C364.8976,-480.9902 349.2764,-458.4521 330.5,-444 325.8748,-440.44 320.6929,-437.2865 315.3406,-434.5152"/>
<polygon fill="#000000" stroke="#000000" points="316.7764,-431.3226 306.2404,-430.2077 313.7815,-437.6496 316.7764,-431.3226"/>
</g>
</g>
</svg>
