<?xml version="1.0" encoding="UTF-8" standalone="no"?>
<!DOCTYPE svg PUBLIC "-//W3C//DTD SVG 1.1//EN"
 "http://www.w3.org/Graphics/SVG/1.1/DTD/svg11.dtd">
<!-- Generated by graphviz version 2.40.1 (20161225.0304)
 -->
<!-- Title: mnefun flow diagram Pages: 1 -->
<svg width="553pt" height="810pt"
 viewBox="0.00 0.00 552.50 810.00" xmlns="http://www.w3.org/2000/svg" xmlns:xlink="http://www.w3.org/1999/xlink">
<g id="graph0" class="graph" transform="scale(1 1) rotate(0) translate(4 806)">
<title>mnefun flow diagram</title>
<polygon fill="transparent" stroke="transparent" points="-4,4 -4,-806 548.5,-806 548.5,4 -4,4"/>
<!-- htm -->
<g id="node1" class="node">
<title>htm</title>
<polygon fill="#66ccee" stroke="#000000" points="271.5,-72.5 157.5,-72.5 157.5,-36.5 271.5,-36.5 271.5,-72.5"/>
<text text-anchor="start" x="200" y="-58.1" font-family="sans-serif" font-size="8.00" fill="#000000">./SUBJ/</text>
<text text-anchor="start" x="164.5" y="-48.5" font-family="sans-serif" font-size="10.00" fill="#000000">subj_fil*_report.html</text>
</g>
<!-- legend -->
<g id="node2" class="node">
<title>legend</title>
<polygon fill="#4477aa" stroke="transparent" points="290.5,-87.5 290.5,-104.5 311.5,-104.5 311.5,-87.5 290.5,-87.5"/>
<text text-anchor="start" x="294.5" y="-94.1" font-family="sans-serif" font-size="8.00" fill="#000000"> &#160;&#160;&#160;</text>
<text text-anchor="start" x="319.5" y="-94.1" font-family="sans-serif" font-size="8.00" fill="#000000">Remote: acquisiton machine</text>
<polygon fill="#ee6677" stroke="transparent" points="290.5,-66.5 290.5,-83.5 311.5,-83.5 311.5,-66.5 290.5,-66.5"/>
<text text-anchor="start" x="294.5" y="-73.1" font-family="sans-serif" font-size="8.00" fill="#000000"> &#160;&#160;&#160;</text>
<text text-anchor="start" x="319.5" y="-73.1" font-family="sans-serif" font-size="8.00" fill="#000000">Local: obligatory user&#45;created files</text>
<polygon fill="#ffd8df" stroke="transparent" points="290.5,-45.5 290.5,-62.5 311.5,-62.5 311.5,-45.5 290.5,-45.5"/>
<text text-anchor="start" x="294.5" y="-52.1" font-family="sans-serif" font-size="8.00" fill="#000000"> &#160;&#160;&#160;</text>
<text text-anchor="start" x="319.5" y="-52.1" font-family="sans-serif" font-size="8.00" fill="#000000">Local: optional user&#45;created files</text>
<polygon fill="#66ccee" stroke="transparent" points="290.5,-24.5 290.5,-41.5 311.5,-41.5 311.5,-24.5 290.5,-24.5"/>
<text text-anchor="start" x="294.5" y="-31.1" font-family="sans-serif" font-size="8.00" fill="#000000"> &#160;&#160;&#160;</text>
<text text-anchor="start" x="319.5" y="-31.1" font-family="sans-serif" font-size="8.00" fill="#000000">Local: pipeline&#45;created files</text>
<polygon fill="#ccbb44" stroke="transparent" points="290.5,-3.5 290.5,-20.5 311.5,-20.5 311.5,-3.5 290.5,-3.5"/>
<text text-anchor="start" x="294.5" y="-10.1" font-family="sans-serif" font-size="8.00" fill="#000000"> &#160;&#160;&#160;</text>
<text text-anchor="start" x="319.5" y="-10.1" font-family="sans-serif" font-size="8.00" fill="#000000">Remote: SSS machine (SWS)</text>
</g>
<!-- sco -->
<g id="node3" class="node">
<title>sco</title>
<polygon fill="#ee6677" stroke="#000000" points="75.5,-642 19.5,-642 19.5,-606 75.5,-606 75.5,-642"/>
<text text-anchor="start" x="44" y="-627.6" font-family="sans-serif" font-size="8.00" fill="#000000">./</text>
<text text-anchor="start" x="26.5" y="-618" font-family="sans-serif" font-size="10.00" fill="#000000">score.py</text>
</g>
<!-- lst -->
<g id="node4" class="node">
<title>lst</title>
<polygon fill="#66ccee" stroke="#000000" points="79,-554 0,-554 0,-518 79,-518 79,-554"/>
<text text-anchor="start" x="15" y="-539.6" font-family="sans-serif" font-size="8.00" fill="#000000">./SUBJ/lists/</text>
<text text-anchor="start" x="7" y="-530" font-family="sans-serif" font-size="10.00" fill="#000000">ALL_*&#45;eve.lst</text>
</g>
<!-- sco&#45;&gt;lst -->
<g id="edge1" class="edge">
<title>sco&#45;&gt;lst</title>
<g id="a_edge1"><a xlink:href="../overview.html#do-score" xlink:title="&lt;B&gt;2. do_score&lt;/B&gt;" target="_top">
<path fill="none" stroke="#000000" d="M45.8424,-605.7663C44.759,-593.8492 43.3217,-578.0384 42.0892,-564.4817"/>
<polygon fill="#000000" stroke="#000000" points="45.5466,-563.8523 41.1555,-554.2103 38.5753,-564.4861 45.5466,-563.8523"/>
</a>
</g>
<g id="a_edge1&#45;label"><a xlink:href="../overview.html#do-score" xlink:title="2. do_score" target="_top">
<text text-anchor="start" x="45.5" y="-578.5" font-family="sans-serif" font-weight="bold" font-size="10.00" fill="#000000">2. do_score</text>
</a>
</g>
</g>
<!-- evo -->
<g id="node5" class="node">
<title>evo</title>
<polygon fill="#66ccee" stroke="#000000" points="187,-225 42,-225 42,-189 187,-189 187,-225"/>
<text text-anchor="start" x="49" y="-210.6" font-family="sans-serif" font-size="8.00" fill="#000000">./SUBJ/inverse/, ./SUBJ/epochs/</text>
<text text-anchor="start" x="71.5" y="-201" font-family="sans-serif" font-size="10.00" fill="#000000">*&#45;evo.fif, *&#45;epo.fif</text>
</g>
<!-- lst&#45;&gt;evo -->
<g id="edge2" class="edge">
<title>lst&#45;&gt;evo</title>
<path fill="none" stroke="#000000" d="M39.5,-517.7409C39.5,-503.5079 39.5,-483.2474 39.5,-465.5 39.5,-465.5 39.5,-465.5 39.5,-270 39.5,-253.6645 50.0606,-240.7177 63.2562,-230.9166"/>
<polygon fill="#000000" stroke="#000000" points="65.3913,-233.6989 71.742,-225.2184 61.4889,-227.8875 65.3913,-233.6989"/>
</g>
<!-- evo&#45;&gt;htm -->
<g id="edge3" class="edge">
<title>evo&#45;&gt;htm</title>
<path fill="none" stroke="#000000" d="M126.2773,-188.9769C137.0104,-172.5575 153.307,-147.6413 167.5,-126 177.1639,-111.2646 187.9636,-94.8329 196.7714,-81.4409"/>
<polygon fill="#000000" stroke="#000000" points="199.9408,-82.9914 202.5124,-72.7134 194.0926,-79.1444 199.9408,-82.9914"/>
<g id="a_edge3&#45;label"><a xlink:title="gen_report">
<text text-anchor="middle" x="194" y="-141.5" font-family="sans-serif" font-size="10.00" fill="#000000">gen_report</text>
</a>
</g>
</g>
<!-- mri -->
<g id="node6" class="node">
<title>mri</title>
<polygon fill="#66ccee" stroke="#000000" points="488,-351 381,-351 381,-315 488,-315 488,-351"/>
<text text-anchor="middle" x="434.5" y="-331.1" font-family="sans-serif" font-size="8.00" fill="#000000">structural/mri/T1.mgz</text>
</g>
<!-- bem -->
<g id="node7" class="node">
<title>bem</title>
<polygon fill="#66ccee" stroke="#000000" points="462.5,-288 382.5,-288 382.5,-252 462.5,-252 462.5,-288"/>
<text text-anchor="start" x="389.5" y="-273.6" font-family="sans-serif" font-size="8.00" fill="#000000">structural/bem/</text>
<text text-anchor="start" x="391.5" y="-264" font-family="sans-serif" font-size="10.00" fill="#000000">*&#45;bem&#45;sol.fif</text>
</g>
<!-- mri&#45;&gt;bem -->
<g id="edge4" class="edge">
<title>mri&#45;&gt;bem</title>
<path fill="none" stroke="#000000" d="M431.0291,-314.7778C430.0674,-309.7287 428.9995,-304.1226 427.954,-298.6335"/>
<polygon fill="#000000" stroke="#000000" points="431.3141,-297.568 426.0047,-288.3995 424.4377,-298.8778 431.3141,-297.568"/>
<g id="a_edge4&#45;label"><a xlink:title="Freesurfer">
<text text-anchor="middle" x="453" y="-299" font-family="sans-serif" font-size="10.00" fill="#000000">Freesurfer</text>
</a>
</g>
</g>
<!-- tra -->
<g id="node8" class="node">
<title>tra</title>
<polygon fill="#ee6677" stroke="#000000" points="544.5,-288 476.5,-288 476.5,-252 544.5,-252 544.5,-288"/>
<text text-anchor="start" x="483.5" y="-273.6" font-family="sans-serif" font-size="8.00" fill="#000000">./SUBJ/trans/</text>
<text text-anchor="start" x="487" y="-264" font-family="sans-serif" font-size="10.00" fill="#000000">*&#45;trans.fif</text>
</g>
<!-- mri&#45;&gt;tra -->
<g id="edge5" class="edge">
<title>mri&#45;&gt;tra</title>
<path fill="none" stroke="#000000" d="M470.0735,-314.7175C473.7285,-312.3099 477.2779,-309.7248 480.5,-307 484.3243,-303.7659 488.0181,-299.9913 491.4291,-296.1129"/>
<polygon fill="#000000" stroke="#000000" points="494.3335,-298.0917 497.9849,-288.1459 488.9282,-293.6438 494.3335,-298.0917"/>
<g id="a_edge5&#45;label"><a xlink:title="mne coreg">
<text text-anchor="middle" x="516.5" y="-299" font-family="sans-serif" font-size="10.00" fill="#000000">mne coreg</text>
</a>
</g>
</g>
<!-- src -->
<g id="node9" class="node">
<title>src</title>
<polygon fill="#66ccee" stroke="#000000" points="368.5,-288 288.5,-288 288.5,-252 368.5,-252 368.5,-288"/>
<text text-anchor="start" x="295.5" y="-273.6" font-family="sans-serif" font-size="8.00" fill="#000000">structural/bem/</text>
<text text-anchor="start" x="310" y="-264" font-family="sans-serif" font-size="10.00" fill="#000000">*&#45;src.fif</text>
</g>
<!-- mri&#45;&gt;src -->
<g id="edge6" class="edge">
<title>mri&#45;&gt;src</title>
<path fill="none" stroke="#000000" d="M404.1247,-314.9467C392.8145,-308.2247 379.8121,-300.4968 367.8142,-293.366"/>
<polygon fill="#000000" stroke="#000000" points="369.2643,-290.1564 358.8798,-288.0559 365.6879,-296.1738 369.2643,-290.1564"/>
</g>
<!-- fwd -->
<g id="node10" class="node">
<title>fwd</title>
<polygon fill="#66ccee" stroke="#000000" points="368,-225 289,-225 289,-189 368,-189 368,-225"/>
<text text-anchor="start" x="296" y="-210.6" font-family="sans-serif" font-size="8.00" fill="#000000">./SUBJ/forward/</text>
<text text-anchor="start" x="308.5" y="-201" font-family="sans-serif" font-size="10.00" fill="#000000">*&#45;fwd.fif</text>
</g>
<!-- bem&#45;&gt;fwd -->
<g id="edge7" class="edge">
<title>bem&#45;&gt;fwd</title>
<path fill="none" stroke="#000000" d="M395.5634,-251.9467C385.7303,-245.3565 374.4548,-237.7995 363.9904,-230.7861"/>
<polygon fill="#000000" stroke="#000000" points="365.6961,-227.7159 355.4406,-225.0559 361.7989,-233.5307 365.6961,-227.7159"/>
</g>
<!-- tra&#45;&gt;fwd -->
<g id="edge8" class="edge">
<title>tra&#45;&gt;fwd</title>
<g id="a_edge8"><a xlink:href="../overview.html#gen-fwd" xlink:title="&lt;B&gt;9. gen_fwd&lt;/B&gt;" target="_top">
<path fill="none" stroke="#000000" d="M476.1579,-254.6112C473.9149,-253.7028 471.6816,-252.8244 469.5,-252 439.4224,-240.6337 405.0601,-229.6274 377.7882,-221.345"/>
<polygon fill="#000000" stroke="#000000" points="378.6671,-217.9544 368.0826,-218.4211 376.648,-224.6569 378.6671,-217.9544"/>
</a>
</g>
<g id="a_edge8&#45;label"><a xlink:href="../overview.html#gen-fwd" xlink:title="9. gen_fwd" target="_top">
<text text-anchor="start" x="446.5" y="-237" font-family="sans-serif" font-weight="bold" font-size="10.00" fill="#000000">9. gen_fwd</text>
</a>
</g>
</g>
<!-- src&#45;&gt;fwd -->
<g id="edge9" class="edge">
<title>src&#45;&gt;fwd</title>
<path fill="none" stroke="#000000" d="M328.5,-251.7778C328.5,-246.7287 328.5,-241.1226 328.5,-235.6335"/>
<polygon fill="#000000" stroke="#000000" points="332.0001,-235.3995 328.5,-225.3995 325.0001,-235.3995 332.0001,-235.3995"/>
</g>
<!-- inv -->
<g id="node11" class="node">
<title>inv</title>
<polygon fill="#66ccee" stroke="#000000" points="314.5,-162 236.5,-162 236.5,-126 314.5,-126 314.5,-162"/>
<text text-anchor="start" x="243.5" y="-147.6" font-family="sans-serif" font-size="8.00" fill="#000000">./SUBJ/inverse/</text>
<text text-anchor="start" x="257" y="-138" font-family="sans-serif" font-size="10.00" fill="#000000">*&#45;inv.fif</text>
</g>
<!-- fwd&#45;&gt;inv -->
<g id="edge10" class="edge">
<title>fwd&#45;&gt;inv</title>
<g id="a_edge10"><a xlink:href="../overview.html#gen-inv" xlink:title="&lt;B&gt;10. gen_inv&lt;/B&gt;" target="_top">
<path fill="none" stroke="#000000" d="M313.1702,-188.7778C308.2691,-182.952 302.7441,-176.3845 297.4663,-170.1109"/>
<polygon fill="#000000" stroke="#000000" points="300.0949,-167.7986 290.979,-162.3995 294.7383,-172.305 300.0949,-167.7986"/>
</a>
</g>
<g id="a_edge10&#45;label"><a xlink:href="../overview.html#gen-inv" xlink:title="10. gen_inv" target="_top">
<text text-anchor="start" x="304.5" y="-174" font-family="sans-serif" font-weight="bold" font-size="10.00" fill="#000000">10. gen_inv</text>
</a>
</g>
</g>
<!-- inv&#45;&gt;htm -->
<g id="edge11" class="edge">
<title>inv&#45;&gt;htm</title>
<path fill="none" stroke="#000000" d="M263.1557,-125.8883C254.3915,-113.0293 242.4826,-95.5564 232.6404,-81.1158"/>
<polygon fill="#000000" stroke="#000000" points="235.35,-78.8768 226.8259,-72.5847 229.5657,-82.8192 235.35,-78.8768"/>
</g>
<!-- pbd -->
<g id="node12" class="node">
<title>pbd</title>
<polygon fill="#ee6677" stroke="#000000" points="176,-686 101,-686 101,-650 176,-650 176,-686"/>
<text text-anchor="start" x="108" y="-671.6" font-family="sans-serif" font-size="8.00" fill="#000000">./SUBJ/raw_fif/</text>
<text text-anchor="start" x="108" y="-662" font-family="sans-serif" font-size="10.00" fill="#000000">*_prebad.txt</text>
</g>
<!-- mfp -->
<g id="node13" class="node">
<title>mfp</title>
<polygon fill="#ccbb44" stroke="#000000" points="277,-598 118,-598 118,-562 277,-562 277,-598"/>
<text text-anchor="start" x="130" y="-583.6" font-family="sans-serif" font-size="8.00" fill="#000000">user@kasga:/data00/user/SUBJ/</text>
<text text-anchor="start" x="125" y="-574" font-family="sans-serif" font-size="10.00" fill="#000000">*_raw.pos, *_raw_maxbad.txt</text>
</g>
<!-- pbd&#45;&gt;mfp -->
<g id="edge12" class="edge">
<title>pbd&#45;&gt;mfp</title>
<g id="a_edge12"><a xlink:href="../overview.html#do-sss" xlink:title="&lt;B&gt;3. do_sss&lt;/B&gt;" target="_top">
<path fill="none" stroke="#000000" d="M133.1491,-649.9463C130.3535,-636.7064 129.0514,-618.8688 137.5,-606 137.5604,-605.9081 137.6211,-605.8165 137.6823,-605.7252"/>
<polygon fill="#000000" stroke="#000000" points="140.3966,-607.9392 144.4024,-598.1308 135.1543,-603.3004 140.3966,-607.9392"/>
</a>
</g>
<g id="a_edge12&#45;label"><a xlink:href="../overview.html#do-sss" xlink:title="3. do_sss" target="_top">
<text text-anchor="start" x="137.5" y="-622.5" font-family="sans-serif" font-weight="bold" font-size="10.00" fill="#000000">3. do_sss</text>
</a>
</g>
</g>
<!-- sss -->
<g id="node14" class="node">
<title>sss</title>
<polygon fill="#66ccee" stroke="#000000" points="256,-457 179,-457 179,-421 256,-421 256,-457"/>
<text text-anchor="start" x="188.5" y="-442.6" font-family="sans-serif" font-size="8.00" fill="#000000">./SUBJ/sss_fif/</text>
<text text-anchor="start" x="186" y="-433" font-family="sans-serif" font-size="10.00" fill="#000000">*_raw_sss.fif</text>
</g>
<!-- mfp&#45;&gt;sss -->
<g id="edge13" class="edge">
<title>mfp&#45;&gt;sss</title>
<path fill="none" stroke="#000000" d="M179.1173,-561.6595C159.668,-539.941 134.0228,-503.0509 151.5,-474 155.9692,-466.5712 162.6042,-460.6357 169.9694,-455.92"/>
<polygon fill="#000000" stroke="#000000" points="171.8568,-458.8743 178.8647,-450.9283 168.4312,-452.7698 171.8568,-458.8743"/>
</g>
<!-- aan -->
<g id="node15" class="node">
<title>aan</title>
<polygon fill="#66ccee" stroke="#000000" points="276,-510 159,-510 159,-474 276,-474 276,-510"/>
<text text-anchor="middle" x="217.5" y="-490.1" font-family="sans-serif" font-size="8.00" fill="#000000">./SUBJ/raw_fif/*&#45;annot.fif</text>
</g>
<!-- mfp&#45;&gt;aan -->
<g id="edge14" class="edge">
<title>mfp&#45;&gt;aan</title>
<path fill="none" stroke="#000000" d="M201.644,-561.7663C204.3793,-549.7312 208.0171,-533.7249 211.1182,-520.0797"/>
<polygon fill="#000000" stroke="#000000" points="214.558,-520.7373 213.3613,-510.2103 207.732,-519.1859 214.558,-520.7373"/>
</g>
<!-- sss&#45;&gt;sss -->
<g id="edge15" class="edge">
<title>sss&#45;&gt;sss</title>
<g id="a_edge15"><a xlink:href="../overview.html#do-ch-fix" xlink:title="&lt;B&gt;4. do_ch_fix&lt;/B&gt;" target="_top">
<path fill="none" stroke="#000000" d="M256.1909,-443.7036C264.2236,-443.2085 270,-441.6406 270,-439 270,-437.6797 268.5559,-436.6276 266.1077,-435.8436"/>
<polygon fill="#000000" stroke="#000000" points="266.6109,-432.3799 256.1909,-434.2964 265.5318,-439.2962 266.6109,-432.3799"/>
</a>
</g>
<g id="a_edge15&#45;label"><a xlink:href="../overview.html#do-ch-fix" xlink:title="4. do_ch_fix" target="_top">
<text text-anchor="start" x="270" y="-437.5" font-family="sans-serif" font-weight="bold" font-size="10.00" fill="#000000">4. do_ch_fix</text>
</a>
</g>
</g>
<!-- bad -->
<g id="node16" class="node">
<title>bad</title>
<polygon fill="#ee6677" stroke="#000000" points="143.5,-404 61.5,-404 61.5,-368 143.5,-368 143.5,-404"/>
<text text-anchor="start" x="76.5" y="-389.6" font-family="sans-serif" font-size="8.00" fill="#000000">./SUBJ/bads/</text>
<text text-anchor="start" x="68.5" y="-380" font-family="sans-serif" font-size="10.00" fill="#000000">*_post&#45;sss.txt</text>
</g>
<!-- sss&#45;&gt;bad -->
<g id="edge16" class="edge">
<title>sss&#45;&gt;bad</title>
<path fill="none" stroke="#000000" d="M178.8485,-421.4183C172.7068,-418.6105 166.427,-415.7313 160.5,-413 157.1774,-411.4689 153.7497,-409.8848 150.2989,-408.2868"/>
<polygon fill="#000000" stroke="#000000" points="151.7112,-405.0837 141.1668,-404.0507 148.7656,-411.4338 151.7112,-405.0837"/>
</g>
<!-- pca -->
<g id="node17" class="node">
<title>pca</title>
<polygon fill="#66ccee" stroke="#000000" points="274.5,-288 182.5,-288 182.5,-252 274.5,-252 274.5,-288"/>
<text text-anchor="start" x="189.5" y="-273.6" font-family="sans-serif" font-size="8.00" fill="#000000">./SUBJ/sss_pca_fif/</text>
<text text-anchor="start" x="197" y="-264" font-family="sans-serif" font-size="10.00" fill="#000000">*_raw_sss.fif</text>
</g>
<!-- sss&#45;&gt;pca -->
<g id="edge17" class="edge">
<title>sss&#45;&gt;pca</title>
<path fill="none" stroke="#000000" d="M256.21,-433.4417C289.1912,-427.8201 332.8871,-417.9627 343.5,-404 374.219,-363.5848 317.0806,-319.3878 272.8917,-293.2114"/>
<polygon fill="#000000" stroke="#000000" points="274.3865,-290.033 263.976,-288.065 270.887,-296.0955 274.3865,-290.033"/>
</g>
<!-- pro -->
<g id="node18" class="node">
<title>pro</title>
<polygon fill="#66ccee" stroke="#000000" points="226.5,-351 134.5,-351 134.5,-315 226.5,-315 226.5,-351"/>
<text text-anchor="start" x="141.5" y="-336.6" font-family="sans-serif" font-size="8.00" fill="#000000">./SUBJ/sss_pca_fif/</text>
<text text-anchor="start" x="160" y="-327" font-family="sans-serif" font-size="10.00" fill="#000000">*&#45;proj.fif</text>
</g>
<!-- sss&#45;&gt;pro -->
<g id="edge18" class="edge">
<title>sss&#45;&gt;pro</title>
<g id="a_edge18"><a xlink:href="../overview.html#gen-ssp" xlink:title="&lt;B&gt;5. gen_ssp&lt;/B&gt;" target="_top">
<path fill="none" stroke="#000000" d="M190.9496,-420.7874C185.8993,-415.9639 181.3174,-410.3141 178.5,-404 172.5923,-390.7603 172.5328,-374.7063 174.1958,-361.2154"/>
<polygon fill="#000000" stroke="#000000" points="177.6986,-361.4752 175.82,-351.0483 170.7862,-360.3709 177.6986,-361.4752"/>
</a>
</g>
<g id="a_edge18&#45;label"><a xlink:href="../overview.html#gen-ssp" xlink:title="5. gen_ssp" target="_top">
<text text-anchor="start" x="178.5" y="-384.5" font-family="sans-serif" font-weight="bold" font-size="10.00" fill="#000000">5. gen_ssp</text>
</a>
</g>
</g>
<!-- pex -->
<g id="node19" class="node">
<title>pex</title>
<polygon fill="#ffd8df" stroke="#000000" points="336.5,-404 244.5,-404 244.5,-368 336.5,-368 336.5,-404"/>
<text text-anchor="start" x="251.5" y="-389.6" font-family="sans-serif" font-size="8.00" fill="#000000">./SUBJ/sss_pca_fif/</text>
<text text-anchor="start" x="255.5" y="-380" font-family="sans-serif" font-size="10.00" fill="#000000">*&#45;extra&#45;proj.fif</text>
</g>
<!-- sss&#45;&gt;pex -->
<g id="edge19" class="edge">
<title>sss&#45;&gt;pex</title>
<path fill="none" stroke="#000000" d="M242.6225,-420.7604C247.3783,-417.3076 252.4204,-413.6468 257.3787,-410.047"/>
<polygon fill="#000000" stroke="#000000" points="259.5427,-412.8011 265.5785,-404.0937 255.43,-407.1366 259.5427,-412.8011"/>
</g>
<!-- aan&#45;&gt;sss -->
<g id="edge20" class="edge">
<title>aan&#45;&gt;sss</title>
<path fill="none" stroke="#000000" d="M217.5,-473.7604C217.5,-471.655 217.5,-469.4723 217.5,-467.2733"/>
<polygon fill="#000000" stroke="#000000" points="221.0001,-467.0936 217.5,-457.0937 214.0001,-467.0937 221.0001,-467.0936"/>
</g>
<!-- bad&#45;&gt;pca -->
<g id="edge21" class="edge">
<title>bad&#45;&gt;pca</title>
<path fill="none" stroke="#000000" d="M104.8005,-367.9052C107.6609,-352.1865 113.9429,-329.6962 127.5,-315 139.6863,-301.7898 156.4681,-292.2233 172.854,-285.4021"/>
<polygon fill="#000000" stroke="#000000" points="174.3582,-288.5729 182.4183,-281.6964 171.8292,-282.0457 174.3582,-288.5729"/>
</g>
<!-- bad&#45;&gt;pro -->
<g id="edge22" class="edge">
<title>bad&#45;&gt;pro</title>
<path fill="none" stroke="#000000" d="M129.3432,-367.7604C134.5487,-364.2233 140.0752,-360.4681 145.4976,-356.7837"/>
<polygon fill="#000000" stroke="#000000" points="147.5674,-359.6089 153.8716,-351.0937 143.6332,-353.819 147.5674,-359.6089"/>
</g>
<!-- pca&#45;&gt;evo -->
<g id="edge23" class="edge">
<title>pca&#45;&gt;evo</title>
<g id="a_edge23"><a xlink:href="../overview.html#write-epochs" xlink:title="&lt;B&gt;7. write_epochs&lt;/B&gt;" target="_top">
<path fill="none" stroke="#000000" d="M182.2887,-262.9015C167.6194,-259.0429 151.983,-253.1093 139.5,-244 135.6623,-241.1995 132.2294,-237.6196 129.2274,-233.7939"/>
<polygon fill="#000000" stroke="#000000" points="131.8975,-231.499 123.3539,-225.2333 126.1254,-235.4593 131.8975,-231.499"/>
</a>
</g>
<g id="a_edge23&#45;label"><a xlink:href="../overview.html#write-epochs" xlink:title="7. write_epochs" target="_top">
<text text-anchor="start" x="139.5" y="-237" font-family="sans-serif" font-weight="bold" font-size="10.00" fill="#000000">7. write_epochs</text>
</a>
</g>
</g>
<!-- pca&#45;&gt;fwd -->
<g id="edge24" class="edge">
<title>pca&#45;&gt;fwd</title>
<path fill="none" stroke="#000000" d="M274.8309,-253.792C283.7194,-250.2698 291.5013,-246.7729 295.5,-244 300.0975,-240.8118 304.4878,-236.8573 308.4797,-232.7311"/>
<polygon fill="#000000" stroke="#000000" points="311.1211,-235.028 315.1936,-225.2471 305.9105,-230.3536 311.1211,-235.028"/>
</g>
<!-- cov -->
<g id="node20" class="node">
<title>cov</title>
<polygon fill="#66ccee" stroke="#000000" points="262,-225 201,-225 201,-189 262,-189 262,-225"/>
<text text-anchor="start" x="208" y="-210.6" font-family="sans-serif" font-size="8.00" fill="#000000">./SUBJ/cov/</text>
<text text-anchor="start" x="212" y="-201" font-family="sans-serif" font-size="10.00" fill="#000000">*&#45;cov.fif</text>
</g>
<!-- pca&#45;&gt;cov -->
<g id="edge25" class="edge">
<title>pca&#45;&gt;cov</title>
<g id="a_edge25"><a xlink:href="../overview.html#gen-covs" xlink:title="&lt;B&gt;8. gen_covs&lt;/B&gt;" target="_top">
<path fill="none" stroke="#000000" d="M229.3677,-251.7778C229.6082,-246.7287 229.8751,-241.1226 230.1365,-235.6335"/>
<polygon fill="#000000" stroke="#000000" points="233.6441,-235.5547 230.6238,-225.3995 226.652,-235.2217 233.6441,-235.5547"/>
</a>
</g>
<g id="a_edge25&#45;label"><a xlink:href="../overview.html#gen-covs" xlink:title="8. gen_covs" target="_top">
<text text-anchor="start" x="229.5" y="-237" font-family="sans-serif" font-weight="bold" font-size="10.00" fill="#000000">8. gen_covs</text>
</a>
</g>
</g>
<!-- pro&#45;&gt;pca -->
<g id="edge26" class="edge">
<title>pro&#45;&gt;pca</title>
<g id="a_edge26"><a xlink:href="../overview.html#apply-ssp" xlink:title="&lt;B&gt;6. apply_ssp&lt;/B&gt;" target="_top">
<path fill="none" stroke="#000000" d="M183.9006,-314.9855C185.7162,-308.5727 188.4449,-301.5679 192.5,-296 192.5624,-295.9143 192.6252,-295.8288 192.6883,-295.7434"/>
<polygon fill="#000000" stroke="#000000" points="195.3001,-298.0736 199.4335,-288.3184 190.1188,-293.3668 195.3001,-298.0736"/>
</a>
</g>
<g id="a_edge26&#45;label"><a xlink:href="../overview.html#apply-ssp" xlink:title="6. apply_ssp" target="_top">
<text text-anchor="start" x="192.5" y="-300" font-family="sans-serif" font-weight="bold" font-size="10.00" fill="#000000">6. apply_ssp</text>
</a>
</g>
</g>
<!-- pex&#45;&gt;pca -->
<g id="edge35" class="edge">
<title>pex&#45;&gt;pca</title>
<path fill="none" stroke="#000000" d="M287.2412,-367.7853C283.1559,-348.6146 274.7611,-318.1971 259.5,-296 259.4403,-295.9132 259.3802,-295.8265 259.3198,-295.7399"/>
<polygon fill="#000000" stroke="#000000" points="261.9864,-293.4729 252.8561,-288.0981 256.6419,-297.9935 261.9864,-293.4729"/>
</g>
<!-- pex&#45;&gt;pro -->
<g id="edge36" class="edge">
<title>pex&#45;&gt;pro</title>
<path fill="none" stroke="#000000" d="M252.9519,-367.9086C244.6333,-363.9006 235.7205,-359.6063 227.0907,-355.4482"/>
<polygon fill="#000000" stroke="#000000" points="228.407,-352.1974 217.8789,-351.0098 225.3685,-358.5036 228.407,-352.1974"/>
</g>
<!-- cov&#45;&gt;htm -->
<g id="edge27" class="edge">
<title>cov&#45;&gt;htm</title>
<path fill="none" stroke="#000000" d="M229.4831,-188.9074C226.5564,-162.6529 221.105,-113.7503 217.6469,-82.7294"/>
<polygon fill="#000000" stroke="#000000" points="221.1007,-82.1197 216.5143,-72.5691 214.1438,-82.8953 221.1007,-82.1197"/>
</g>
<!-- cov&#45;&gt;inv -->
<g id="edge28" class="edge">
<title>cov&#45;&gt;inv</title>
<path fill="none" stroke="#000000" d="M244.2266,-188.7778C248.1146,-183.2109 252.4756,-176.9668 256.6785,-170.949"/>
<polygon fill="#000000" stroke="#000000" points="259.7931,-172.602 262.6495,-162.3995 254.0542,-168.5939 259.7931,-172.602"/>
</g>
<!-- acq -->
<g id="node21" class="node">
<title>acq</title>
<polygon fill="#4477aa" stroke="#000000" points="218.5,-802 150.5,-802 150.5,-766 218.5,-766 218.5,-802"/>
<text text-anchor="start" x="157.5" y="-787.6" font-family="sans-serif" font-size="8.00" fill="#000000">user@minea</text>
<text text-anchor="start" x="164" y="-778" font-family="sans-serif" font-size="10.00" fill="#000000">*_raw.fif</text>
</g>
<!-- raw -->
<g id="node22" class="node">
<title>raw</title>
<polygon fill="#66ccee" stroke="#000000" points="222,-739 147,-739 147,-703 222,-703 222,-739"/>
<text text-anchor="start" x="154" y="-724.6" font-family="sans-serif" font-size="8.00" fill="#000000">./SUBJ/raw_fif/</text>
<text text-anchor="start" x="164" y="-715" font-family="sans-serif" font-size="10.00" fill="#000000">*_raw.fif</text>
</g>
<!-- acq&#45;&gt;raw -->
<g id="edge29" class="edge">
<title>acq&#45;&gt;raw</title>
<g id="a_edge29"><a xlink:href="../overview.html#fetch-raw" xlink:title="&lt;B&gt;1. fetch_raw&lt;/B&gt;" target="_top">
<path fill="none" stroke="#000000" d="M184.5,-765.7778C184.5,-760.7287 184.5,-755.1226 184.5,-749.6335"/>
<polygon fill="#000000" stroke="#000000" points="188.0001,-749.3995 184.5,-739.3995 181.0001,-749.3995 188.0001,-749.3995"/>
</a>
</g>
<g id="a_edge29&#45;label"><a xlink:href="../overview.html#fetch-raw" xlink:title="1. fetch_raw" target="_top">
<text text-anchor="start" x="184.5" y="-751" font-family="sans-serif" font-weight="bold" font-size="10.00" fill="#000000">1. fetch_raw</text>
</a>
</g>
</g>
<!-- raw&#45;&gt;sco -->
<g id="edge30" class="edge">
<title>raw&#45;&gt;sco</title>
<path fill="none" stroke="#000000" d="M146.6468,-711.7054C129.2833,-706.1802 109.1333,-697.8802 93.5,-686 81.1697,-676.6298 70.5989,-663.0875 62.7112,-651.0481"/>
<polygon fill="#000000" stroke="#000000" points="65.4756,-648.8662 57.2178,-642.2285 59.5339,-652.5671 65.4756,-648.8662"/>
</g>
<!-- raw&#45;&gt;pbd -->
<g id="edge31" class="edge">
<title>raw&#45;&gt;pbd</title>
<path fill="none" stroke="#000000" d="M168.6694,-702.7604C166.1843,-699.8971 163.575,-696.8908 160.9747,-693.8948"/>
<polygon fill="#000000" stroke="#000000" points="163.402,-691.3517 154.2039,-686.0937 158.1154,-695.94 163.402,-691.3517"/>
</g>
<!-- raw&#45;&gt;mfp -->
<g id="edge32" class="edge">
<title>raw&#45;&gt;mfp</title>
<path fill="none" stroke="#000000" d="M186.1729,-702.8554C188.3863,-678.8485 192.3105,-636.2861 194.9089,-608.1035"/>
<polygon fill="#000000" stroke="#000000" points="198.4005,-608.3541 195.8335,-598.075 191.4301,-607.7114 198.4005,-608.3541"/>
</g>
<!-- can -->
<g id="node23" class="node">
<title>can</title>
<polygon fill="#ffd8df" stroke="#000000" points="371,-642 220,-642 220,-606 371,-606 371,-642"/>
<text text-anchor="middle" x="295.5" y="-622.1" font-family="sans-serif" font-size="8.00" fill="#000000">./SUBJ/raw_fif/*&#45;custom&#45;annot.fif</text>
</g>
<!-- raw&#45;&gt;can -->
<g id="edge33" class="edge">
<title>raw&#45;&gt;can</title>
<path fill="none" stroke="#000000" d="M205.1181,-702.9824C222.531,-687.7657 247.6477,-665.8169 266.9865,-648.9172"/>
<polygon fill="#000000" stroke="#000000" points="269.3887,-651.4661 274.6156,-642.2503 264.7825,-646.1951 269.3887,-651.4661"/>
</g>
<!-- can&#45;&gt;sss -->
<g id="edge34" class="edge">
<title>can&#45;&gt;sss</title>
<path fill="none" stroke="#000000" d="M299.286,-605.5956C304.4315,-575.3899 310.1913,-514.6052 283.5,-474 278.8403,-466.9113 272.2534,-461.1601 265.0282,-456.5258"/>
<polygon fill="#000000" stroke="#000000" points="266.7544,-453.4811 256.3305,-451.5852 263.297,-459.5677 266.7544,-453.4811"/>
</g>
</g>
</svg>
