<?xml version="1.0" encoding="UTF-8" standalone="no"?>
<!DOCTYPE svg PUBLIC "-//W3C//DTD SVG 1.1//EN"
 "http://www.w3.org/Graphics/SVG/1.1/DTD/svg11.dtd">
<!-- Generated by graphviz version 2.43.0 (0)
 -->
<!-- Title: mnefun flow diagram Pages: 1 -->
<svg width="576pt" height="842pt"
 viewBox="0.00 0.00 575.50 842.00" xmlns="http://www.w3.org/2000/svg" xmlns:xlink="http://www.w3.org/1999/xlink">
<g id="graph0" class="graph" transform="scale(1 1) rotate(0) translate(4 838)">
<title>mnefun flow diagram</title>
<polygon fill="transparent" stroke="transparent" points="-4,4 -4,-838 571.5,-838 571.5,4 -4,4"/>
<!-- htm -->
<g id="node1" class="node">
<title>htm</title>
<polygon fill="#66ccee" stroke="black" points="303.5,-62 189.5,-62 189.5,-26 303.5,-26 303.5,-62"/>
<text text-anchor="start" x="232.5" y="-47.6" font-family="sans-serif" font-size="8.00" fill="#000000">./SUBJ/</text>
<text text-anchor="start" x="196.5" y="-38" font-family="sans-serif" font-size="10.00" fill="#000000">subj_fil*_report.html</text>
</g>
<!-- legend -->
<g id="node2" class="node">
<title>legend</title>
<polygon fill="#ccbb44" stroke="transparent" points="322.5,-67 322.5,-84 340.5,-84 340.5,-67 322.5,-67"/>
<text text-anchor="start" x="326.5" y="-73.6" font-family="sans-serif" font-size="8.00"> &#160;&#160;&#160;</text>
<text text-anchor="start" x="348.5" y="-73.6" font-family="sans-serif" font-size="8.00">Remote: acquisiton machine</text>
<polygon fill="#ee6677" stroke="transparent" points="322.5,-46 322.5,-63 340.5,-63 340.5,-46 322.5,-46"/>
<text text-anchor="start" x="326.5" y="-52.6" font-family="sans-serif" font-size="8.00"> &#160;&#160;&#160;</text>
<text text-anchor="start" x="348.5" y="-52.6" font-family="sans-serif" font-size="8.00">Local: obligatory user&#45;created files</text>
<polygon fill="#ffd8df" stroke="transparent" points="322.5,-25 322.5,-42 340.5,-42 340.5,-25 322.5,-25"/>
<text text-anchor="start" x="326.5" y="-31.6" font-family="sans-serif" font-size="8.00"> &#160;&#160;&#160;</text>
<text text-anchor="start" x="348.5" y="-31.6" font-family="sans-serif" font-size="8.00">Local: optional user&#45;created files</text>
<polygon fill="#66ccee" stroke="transparent" points="322.5,-4 322.5,-21 340.5,-21 340.5,-4 322.5,-4"/>
<text text-anchor="start" x="326.5" y="-10.6" font-family="sans-serif" font-size="8.00"> &#160;&#160;&#160;</text>
<text text-anchor="start" x="348.5" y="-10.6" font-family="sans-serif" font-size="8.00">Local: pipeline&#45;created files</text>
</g>
<!-- sco -->
<g id="node3" class="node">
<title>sco</title>
<polygon fill="#ee6677" stroke="black" points="81.5,-718 25.5,-718 25.5,-682 81.5,-682 81.5,-718"/>
<text text-anchor="start" x="50.5" y="-703.6" font-family="sans-serif" font-size="8.00" fill="#000000">./</text>
<text text-anchor="start" x="32.5" y="-694" font-family="sans-serif" font-size="10.00" fill="#000000">score.py</text>
</g>
<!-- lst -->
<g id="node4" class="node">
<title>lst</title>
<polygon fill="#66ccee" stroke="black" points="79,-586 0,-586 0,-550 79,-550 79,-586"/>
<text text-anchor="start" x="16" y="-571.6" font-family="sans-serif" font-size="8.00" fill="#000000">./SUBJ/lists/</text>
<text text-anchor="start" x="7" y="-562" font-family="sans-serif" font-size="10.00" fill="#000000">ALL_*&#45;eve.lst</text>
</g>
<!-- sco&#45;&gt;lst -->
<g id="edge1" class="edge">
<title>sco&#45;&gt;lst</title>
<g id="a_edge1"><a xlink:href="../overview.html#do-score" xlink:title="&lt;B&gt;2. do_score&lt;/B&gt;" target="_top">
<path fill="none" stroke="black" d="M44.11,-681.87C43.05,-679.29 42.12,-676.62 41.5,-674 35.33,-648.05 35.56,-617.47 36.89,-596.03"/>
<polygon fill="black" stroke="black" points="40.38,-596.24 37.63,-586.01 33.4,-595.72 40.38,-596.24"/>
</a>
</g>
<g id="a_edge1&#45;label"><a xlink:href="../overview.html#do-score" xlink:title="2. do_score" target="_top">
<text text-anchor="start" x="41.5" y="-654.5" font-family="sans-serif" font-weight="bold" font-size="10.00">2. do_score</text>
</a>
</g>
</g>
<!-- evo -->
<g id="node5" class="node">
<title>evo</title>
<polygon fill="#66ccee" stroke="black" points="205,-204 66,-204 66,-168 205,-168 205,-204"/>
<text text-anchor="start" x="73" y="-189.6" font-family="sans-serif" font-size="8.00" fill="#000000">./SUBJ/inverse/, ./SUBJ/epochs/</text>
<text text-anchor="start" x="92.5" y="-180" font-family="sans-serif" font-size="10.00" fill="#000000">*&#45;evo.fif, *&#45;epo.fif</text>
</g>
<!-- lst&#45;&gt;evo -->
<g id="edge2" class="edge">
<title>lst&#45;&gt;evo</title>
<path fill="none" stroke="black" d="M39.5,-549.99C39.5,-536.02 39.5,-515.73 39.5,-498 39.5,-498 39.5,-498 39.5,-248 39.5,-230.75 50.68,-218.17 65.41,-209.08"/>
<polygon fill="black" stroke="black" points="67.35,-212.01 74.43,-204.12 63.98,-205.87 67.35,-212.01"/>
</g>
<!-- evo&#45;&gt;htm -->
<g id="edge3" class="edge">
<title>evo&#45;&gt;htm</title>
<g id="a_edge3"><a xlink:href="../overview.html#gen-report" xlink:title="&lt;B&gt;11. gen_report&lt;/B&gt;" target="_top">
<path fill="none" stroke="black" d="M137.29,-167.92C139.81,-150.65 145.76,-123.87 159.5,-105 170.51,-89.87 186.56,-77.28 201.88,-67.59"/>
<polygon fill="black" stroke="black" points="204.01,-70.39 210.77,-62.23 200.4,-64.4 204.01,-70.39"/>
</a>
</g>
<g id="a_edge3&#45;label"><a xlink:href="../overview.html#gen-report" xlink:title="11. gen_report" target="_top">
<text text-anchor="start" x="159.5" y="-121.5" font-family="sans-serif" font-weight="bold" font-size="10.00">11. gen_report</text>
</a>
</g>
</g>
<!-- mri -->
<g id="node6" class="node">
<title>mri</title>
<polygon fill="#66ccee" stroke="black" points="486.5,-330 414.5,-330 414.5,-294 486.5,-294 486.5,-330"/>
<text text-anchor="start" x="421.5" y="-315.6" font-family="sans-serif" font-size="8.00" fill="#000000">structural/mri/</text>
<text text-anchor="start" x="432" y="-306" font-family="sans-serif" font-size="10.00" fill="#000000">T1.mgz</text>
</g>
<!-- bem -->
<g id="node7" class="node">
<title>bem</title>
<polygon fill="#66ccee" stroke="black" points="567.5,-267 489.5,-267 489.5,-231 567.5,-231 567.5,-267"/>
<text text-anchor="start" x="496.5" y="-252.6" font-family="sans-serif" font-size="8.00" fill="#000000">structural/bem/</text>
<text text-anchor="start" x="497.5" y="-243" font-family="sans-serif" font-size="10.00" fill="#000000">*&#45;bem&#45;sol.fif</text>
</g>
<!-- mri&#45;&gt;bem -->
<g id="edge4" class="edge">
<title>mri&#45;&gt;bem</title>
<path fill="none" stroke="black" d="M472.64,-293.68C480.7,-287.38 489.94,-280.16 498.56,-273.42"/>
<polygon fill="black" stroke="black" points="500.85,-276.07 506.57,-267.15 496.54,-270.55 500.85,-276.07"/>
<g id="a_edge4&#45;label"><a xlink:title="Freesurfer">
<text text-anchor="middle" x="520.5" y="-278" font-family="sans-serif" font-size="10.00">Freesurfer</text>
</a>
</g>
</g>
<!-- tra -->
<g id="node8" class="node">
<title>tra</title>
<polygon fill="#ee6677" stroke="black" points="383.5,-267 317.5,-267 317.5,-231 383.5,-231 383.5,-267"/>
<text text-anchor="start" x="324.5" y="-252.6" font-family="sans-serif" font-size="8.00" fill="#000000">./SUBJ/trans/</text>
<text text-anchor="start" x="327" y="-243" font-family="sans-serif" font-size="10.00" fill="#000000">*&#45;trans.fif</text>
</g>
<!-- mri&#45;&gt;tra -->
<g id="edge5" class="edge">
<title>mri&#45;&gt;tra</title>
<path fill="none" stroke="black" d="M414.34,-299.86C404.89,-296.17 394.99,-291.55 386.5,-286 381.48,-282.72 376.58,-278.64 372.11,-274.43"/>
<polygon fill="black" stroke="black" points="374.56,-271.93 365.02,-267.32 369.6,-276.87 374.56,-271.93"/>
<g id="a_edge5&#45;label"><a xlink:title="mne coreg">
<text text-anchor="middle" x="412.5" y="-278" font-family="sans-serif" font-size="10.00">mne coreg</text>
</a>
</g>
</g>
<!-- src -->
<g id="node9" class="node">
<title>src</title>
<polygon fill="#66ccee" stroke="black" points="475.5,-267 397.5,-267 397.5,-231 475.5,-231 475.5,-267"/>
<text text-anchor="start" x="404.5" y="-252.6" font-family="sans-serif" font-size="8.00" fill="#000000">structural/bem/</text>
<text text-anchor="start" x="418" y="-243" font-family="sans-serif" font-size="10.00" fill="#000000">*&#45;src.fif</text>
</g>
<!-- mri&#45;&gt;src -->
<g id="edge6" class="edge">
<title>mri&#45;&gt;src</title>
<path fill="none" stroke="black" d="M446.53,-293.68C445.33,-288.49 444,-282.66 442.7,-277"/>
<polygon fill="black" stroke="black" points="446.08,-276.11 440.44,-267.15 439.26,-277.68 446.08,-276.11"/>
</g>
<!-- fwd -->
<g id="node10" class="node">
<title>fwd</title>
<polygon fill="#66ccee" stroke="black" points="392.5,-204 316.5,-204 316.5,-168 392.5,-168 392.5,-204"/>
<text text-anchor="start" x="323.5" y="-189.6" font-family="sans-serif" font-size="8.00" fill="#000000">./SUBJ/forward/</text>
<text text-anchor="start" x="334.5" y="-180" font-family="sans-serif" font-size="10.00" fill="#000000">*&#45;fwd.fif</text>
</g>
<!-- bem&#45;&gt;fwd -->
<g id="edge7" class="edge">
<title>bem&#45;&gt;fwd</title>
<path fill="none" stroke="black" d="M489.42,-232.85C472.06,-226.25 451.33,-218.54 432.5,-212 422.83,-208.64 412.43,-205.19 402.47,-201.97"/>
<polygon fill="black" stroke="black" points="403.3,-198.56 392.71,-198.84 401.16,-205.23 403.3,-198.56"/>
</g>
<!-- tra&#45;&gt;fwd -->
<g id="edge8" class="edge">
<title>tra&#45;&gt;fwd</title>
<g id="a_edge8"><a xlink:href="../overview.html#gen-fwd" xlink:title="&lt;B&gt;9. gen_fwd&lt;/B&gt;" target="_top">
<path fill="none" stroke="black" d="M351.64,-230.68C351.97,-225.62 352.34,-219.95 352.7,-214.42"/>
<polygon fill="black" stroke="black" points="356.21,-214.36 353.38,-204.15 349.23,-213.9 356.21,-214.36"/>
</a>
</g>
<g id="a_edge8&#45;label"><a xlink:href="../overview.html#gen-fwd" xlink:title="9. gen_fwd" target="_top">
<text text-anchor="start" x="352.5" y="-216" font-family="sans-serif" font-weight="bold" font-size="10.00">9. gen_fwd</text>
</a>
</g>
</g>
<!-- src&#45;&gt;fwd -->
<g id="edge9" class="edge">
<title>src&#45;&gt;fwd</title>
<path fill="none" stroke="black" d="M430.49,-230.93C427.45,-224.3 423.18,-217.1 417.5,-212 412.85,-207.82 407.41,-204.3 401.71,-201.34"/>
<polygon fill="black" stroke="black" points="403.17,-198.16 392.63,-197.15 400.24,-204.52 403.17,-198.16"/>
</g>
<!-- inv -->
<g id="node11" class="node">
<title>inv</title>
<polygon fill="#66ccee" stroke="black" points="343,-141 268,-141 268,-105 343,-105 343,-141"/>
<text text-anchor="start" x="275" y="-126.6" font-family="sans-serif" font-size="8.00" fill="#000000">./SUBJ/inverse/</text>
<text text-anchor="start" x="287" y="-117" font-family="sans-serif" font-size="10.00" fill="#000000">*&#45;inv.fif</text>
</g>
<!-- fwd&#45;&gt;inv -->
<g id="edge10" class="edge">
<title>fwd&#45;&gt;inv</title>
<g id="a_edge10"><a xlink:href="../overview.html#gen-inv" xlink:title="&lt;B&gt;10. gen_inv&lt;/B&gt;" target="_top">
<path fill="none" stroke="black" d="M340.59,-167.68C336,-161.97 330.79,-155.49 325.83,-149.3"/>
<polygon fill="black" stroke="black" points="328.27,-146.75 319.28,-141.15 322.81,-151.14 328.27,-146.75"/>
</a>
</g>
<g id="a_edge10&#45;label"><a xlink:href="../overview.html#gen-inv" xlink:title="10. gen_inv" target="_top">
<text text-anchor="start" x="333.5" y="-153" font-family="sans-serif" font-weight="bold" font-size="10.00">10. gen_inv</text>
</a>
</g>
</g>
<!-- inv&#45;&gt;htm -->
<g id="edge11" class="edge">
<title>inv&#45;&gt;htm</title>
<path fill="none" stroke="black" d="M292.41,-104.91C284.61,-94.74 274.58,-81.65 265.89,-70.3"/>
<polygon fill="black" stroke="black" points="268.42,-67.85 259.56,-62.04 262.86,-72.11 268.42,-67.85"/>
</g>
<!-- pbd -->
<g id="node12" class="node">
<title>pbd</title>
<polygon fill="#ee6677" stroke="black" points="255.5,-718 139.5,-718 139.5,-682 255.5,-682 255.5,-718"/>
<text text-anchor="middle" x="197.5" y="-698.1" font-family="sans-serif" font-size="8.00" fill="#000000">params.mf_prebad[SUBJ]</text>
</g>
<!-- mfb -->
<g id="node13" class="node">
<title>mfb</title>
<polygon fill="#66ccee" stroke="black" points="176,-630 71,-630 71,-594 176,-594 176,-630"/>
<text text-anchor="start" x="94.5" y="-615.6" font-family="sans-serif" font-size="8.00" fill="#000000">./SUBJ/raw_fif/</text>
<text text-anchor="start" x="78" y="-606" font-family="sans-serif" font-size="10.00" fill="#000000">*_raw_maxbad.txt</text>
</g>
<!-- pbd&#45;&gt;mfb -->
<g id="edge12" class="edge">
<title>pbd&#45;&gt;mfb</title>
<g id="a_edge12"><a xlink:href="../overview.html#do-sss" xlink:title="&lt;B&gt;3. do_sss&lt;/B&gt;" target="_top">
<path fill="none" stroke="black" d="M155.51,-681.87C152.22,-679.54 149.15,-676.92 146.5,-674 137.84,-664.48 132.34,-651.38 128.9,-639.76"/>
<polygon fill="black" stroke="black" points="132.28,-638.86 126.37,-630.06 125.5,-640.62 132.28,-638.86"/>
</a>
</g>
<g id="a_edge12&#45;label"><a xlink:href="../overview.html#do-sss" xlink:title="3. do_sss" target="_top">
<text text-anchor="start" x="146.5" y="-654.5" font-family="sans-serif" font-weight="bold" font-size="10.00">3. do_sss</text>
</a>
</g>
</g>
<!-- mfp -->
<g id="node14" class="node">
<title>mfp</title>
<polygon fill="#66ccee" stroke="black" points="210.5,-542 138.5,-542 138.5,-506 210.5,-506 210.5,-542"/>
<text text-anchor="start" x="145.5" y="-527.6" font-family="sans-serif" font-size="8.00" fill="#000000">./SUBJ/raw_fif/</text>
<text text-anchor="start" x="150" y="-518" font-family="sans-serif" font-size="10.00" fill="#000000">*_raw.pos</text>
</g>
<!-- pbd&#45;&gt;mfp -->
<g id="edge13" class="edge">
<title>pbd&#45;&gt;mfp</title>
<path fill="none" stroke="black" d="M198.42,-681.86C198.85,-669.61 198.99,-652.75 197.5,-638 194.5,-608.25 187.18,-574.75 181.59,-552.01"/>
<polygon fill="black" stroke="black" points="184.92,-550.91 179.09,-542.07 178.13,-552.62 184.92,-550.91"/>
</g>
<!-- sss -->
<g id="node15" class="node">
<title>sss</title>
<polygon fill="#66ccee" stroke="black" points="271,-436 194,-436 194,-400 271,-400 271,-436"/>
<text text-anchor="start" x="204.5" y="-421.6" font-family="sans-serif" font-size="8.00" fill="#000000">./SUBJ/sss_fif/</text>
<text text-anchor="start" x="201" y="-412" font-family="sans-serif" font-size="10.00" fill="#000000">*_raw_sss.fif</text>
</g>
<!-- pbd&#45;&gt;sss -->
<g id="edge14" class="edge">
<title>pbd&#45;&gt;sss</title>
<path fill="none" stroke="black" d="M214.71,-681.9C229.17,-665.65 247.5,-639.77 247.5,-613 247.5,-613 247.5,-613 247.5,-470 247.5,-461.91 245.74,-453.39 243.43,-445.67"/>
<polygon fill="black" stroke="black" points="246.71,-444.44 240.18,-436.1 240.08,-446.7 246.71,-444.44"/>
</g>
<!-- mfb&#45;&gt;mfp -->
<g id="edge15" class="edge">
<title>mfb&#45;&gt;mfp</title>
<path fill="none" stroke="black" d="M133.82,-593.6C141.13,-581.28 151.05,-564.55 159.26,-550.7"/>
<polygon fill="black" stroke="black" points="162.28,-552.47 164.37,-542.08 156.26,-548.9 162.28,-552.47"/>
</g>
<!-- mfb&#45;&gt;sss -->
<g id="edge16" class="edge">
<title>mfb&#45;&gt;sss</title>
<path fill="none" stroke="black" d="M116.29,-593.73C104.43,-562.27 85.06,-494.98 116.5,-453 131.97,-432.35 159.33,-423.69 183.6,-420.27"/>
<polygon fill="black" stroke="black" points="184.23,-423.72 193.76,-419.11 183.43,-416.77 184.23,-423.72"/>
</g>
<!-- mfp&#45;&gt;sss -->
<g id="edge17" class="edge">
<title>mfp&#45;&gt;sss</title>
<path fill="none" stroke="black" d="M190.33,-505.72C194.6,-500.56 199,-494.75 202.5,-489 210.77,-475.41 217.9,-459.13 223.12,-445.69"/>
<polygon fill="black" stroke="black" points="226.5,-446.65 226.74,-436.06 219.95,-444.19 226.5,-446.65"/>
</g>
<!-- aan -->
<g id="node16" class="node">
<title>aan</title>
<polygon fill="#66ccee" stroke="black" points="195.5,-489 123.5,-489 123.5,-453 195.5,-453 195.5,-489"/>
<text text-anchor="start" x="130.5" y="-474.6" font-family="sans-serif" font-size="8.00" fill="#000000">./SUBJ/raw_fif/</text>
<text text-anchor="start" x="134.5" y="-465" font-family="sans-serif" font-size="10.00" fill="#000000">*&#45;annot.fif</text>
</g>
<!-- mfp&#45;&gt;aan -->
<g id="edge18" class="edge">
<title>mfp&#45;&gt;aan</title>
<path fill="none" stroke="black" d="M169.42,-505.73C168.79,-503.57 168.13,-501.33 167.46,-499.06"/>
<polygon fill="black" stroke="black" points="170.75,-497.85 164.57,-489.25 164.04,-499.83 170.75,-497.85"/>
</g>
<!-- sss&#45;&gt;sss -->
<g id="edge19" class="edge">
<title>sss&#45;&gt;sss</title>
<g id="a_edge19"><a xlink:href="../overview.html#do-ch-fix" xlink:title="&lt;B&gt;4. do_ch_fix&lt;/B&gt;" target="_top">
<path fill="none" stroke="black" d="M271.19,-422.7C279.22,-422.21 285,-420.64 285,-418 285,-416.68 283.56,-415.63 281.11,-414.84"/>
<polygon fill="black" stroke="black" points="281.61,-411.38 271.19,-413.3 280.53,-418.3 281.61,-411.38"/>
</a>
</g>
<g id="a_edge19&#45;label"><a xlink:href="../overview.html#do-ch-fix" xlink:title="4. do_ch_fix" target="_top">
<text text-anchor="start" x="285" y="-416.5" font-family="sans-serif" font-weight="bold" font-size="10.00">4. do_ch_fix</text>
</a>
</g>
</g>
<!-- bad -->
<g id="node17" class="node">
<title>bad</title>
<polygon fill="#ee6677" stroke="black" points="232.5,-383 150.5,-383 150.5,-347 232.5,-347 232.5,-383"/>
<text text-anchor="start" x="166" y="-368.6" font-family="sans-serif" font-size="8.00" fill="#000000">./SUBJ/bads/</text>
<text text-anchor="start" x="157.5" y="-359" font-family="sans-serif" font-size="10.00" fill="#000000">*_post&#45;sss.txt</text>
</g>
<!-- sss&#45;&gt;bad -->
<g id="edge20" class="edge">
<title>sss&#45;&gt;bad</title>
<path fill="none" stroke="black" d="M218.62,-399.73C216.42,-396.99 214.1,-394.11 211.78,-391.23"/>
<polygon fill="black" stroke="black" points="214.36,-388.85 205.37,-383.25 208.9,-393.24 214.36,-388.85"/>
</g>
<!-- pca -->
<g id="node18" class="node">
<title>pca</title>
<polygon fill="#66ccee" stroke="black" points="299,-267 196,-267 196,-231 299,-231 299,-267"/>
<text text-anchor="start" x="210" y="-252.6" font-family="sans-serif" font-size="8.00" fill="#000000">./SUBJ/sss_pca_fif/</text>
<text text-anchor="start" x="203" y="-243" font-family="sans-serif" font-size="10.00" fill="#000000">*_fil55_raw_sss.fif</text>
</g>
<!-- sss&#45;&gt;pca -->
<g id="edge21" class="edge">
<title>sss&#45;&gt;pca</title>
<path fill="none" stroke="black" d="M271.24,-416.21C296.22,-413.44 327.02,-405.28 343.5,-383 369.08,-348.41 307.38,-275.82 306.5,-275 305.8,-274.35 305.09,-273.72 304.36,-273.11"/>
<polygon fill="black" stroke="black" points="306.12,-270.06 295.96,-267.07 302.04,-275.75 306.12,-270.06"/>
</g>
<!-- pro -->
<g id="node19" class="node">
<title>pro</title>
<polygon fill="#66ccee" stroke="black" points="274,-330 185,-330 185,-294 274,-294 274,-330"/>
<text text-anchor="start" x="192" y="-315.6" font-family="sans-serif" font-size="8.00" fill="#000000">./SUBJ/sss_pca_fif/</text>
<text text-anchor="start" x="209" y="-306" font-family="sans-serif" font-size="10.00" fill="#000000">*&#45;proj.fif</text>
</g>
<!-- sss&#45;&gt;pro -->
<g id="edge22" class="edge">
<title>sss&#45;&gt;pro</title>
<g id="a_edge22"><a xlink:href="../overview.html#gen-ssp" xlink:title="&lt;B&gt;5. gen_ssp&lt;/B&gt;" target="_top">
<path fill="none" stroke="black" d="M193.96,-413.65C154.23,-409.31 96.21,-400.16 82.5,-383 72.51,-370.5 72.54,-359.52 82.5,-347 94.05,-332.48 137.84,-323.61 174.65,-318.6"/>
<polygon fill="black" stroke="black" points="175.34,-322.03 184.81,-317.28 174.44,-315.09 175.34,-322.03"/>
</a>
</g>
<g id="a_edge22&#45;label"><a xlink:href="../overview.html#gen-ssp" xlink:title="5. gen_ssp" target="_top">
<text text-anchor="start" x="82.5" y="-363.5" font-family="sans-serif" font-weight="bold" font-size="10.00">5. gen_ssp</text>
</a>
</g>
</g>
<!-- pex -->
<g id="node20" class="node">
<title>pex</title>
<polygon fill="#ffd8df" stroke="black" points="336,-383 247,-383 247,-347 336,-347 336,-383"/>
<text text-anchor="start" x="254" y="-368.6" font-family="sans-serif" font-size="8.00" fill="#000000">./SUBJ/sss_pca_fif/</text>
<text text-anchor="start" x="256.5" y="-359" font-family="sans-serif" font-size="10.00" fill="#000000">*&#45;extra&#45;proj.fif</text>
</g>
<!-- sss&#45;&gt;pex -->
<g id="edge23" class="edge">
<title>sss&#45;&gt;pex</title>
<path fill="none" stroke="black" d="M252.47,-399.73C256.13,-396.58 260,-393.23 263.83,-389.92"/>
<polygon fill="black" stroke="black" points="266.27,-392.44 271.55,-383.25 261.69,-387.14 266.27,-392.44"/>
</g>
<!-- aan&#45;&gt;sss -->
<g id="edge24" class="edge">
<title>aan&#45;&gt;sss</title>
<path fill="none" stroke="black" d="M184.21,-452.73C189.09,-449.33 194.28,-445.7 199.38,-442.14"/>
<polygon fill="black" stroke="black" points="201.62,-444.84 207.81,-436.25 197.61,-439.11 201.62,-444.84"/>
</g>
<!-- bad&#45;&gt;pca -->
<g id="edge25" class="edge">
<title>bad&#45;&gt;pca</title>
<path fill="none" stroke="black" d="M182.33,-346.88C175.74,-332.06 169.47,-310.47 178.5,-294 183.06,-285.67 189.95,-278.7 197.63,-272.93"/>
<polygon fill="black" stroke="black" points="199.87,-275.64 206.2,-267.15 195.96,-269.84 199.87,-275.64"/>
</g>
<!-- bad&#45;&gt;pro -->
<g id="edge26" class="edge">
<title>bad&#45;&gt;pro</title>
<path fill="none" stroke="black" d="M204.37,-346.73C206.35,-344.08 208.43,-341.28 210.51,-338.49"/>
<polygon fill="black" stroke="black" points="213.48,-340.36 216.65,-330.25 207.87,-336.18 213.48,-340.36"/>
</g>
<!-- pca&#45;&gt;evo -->
<g id="edge27" class="edge">
<title>pca&#45;&gt;evo</title>
<g id="a_edge27"><a xlink:href="../overview.html#write-epochs" xlink:title="&lt;B&gt;7. write_epochs&lt;/B&gt;" target="_top">
<path fill="none" stroke="black" d="M195.93,-241.56C181.75,-237.87 167.1,-232.08 155.5,-223 152.02,-220.27 149.05,-216.76 146.55,-213"/>
<polygon fill="black" stroke="black" points="149.48,-211.07 141.55,-204.04 143.37,-214.48 149.48,-211.07"/>
</a>
</g>
<g id="a_edge27&#45;label"><a xlink:href="../overview.html#write-epochs" xlink:title="7. write_epochs" target="_top">
<text text-anchor="start" x="155.5" y="-216" font-family="sans-serif" font-weight="bold" font-size="10.00">7. write_epochs</text>
</a>
</g>
</g>
<!-- pca&#45;&gt;fwd -->
<g id="edge28" class="edge">
<title>pca&#45;&gt;fwd</title>
<path fill="none" stroke="black" d="M299.02,-231.55C304.74,-229 310.35,-226.15 315.5,-223 320.97,-219.66 326.34,-215.47 331.27,-211.15"/>
<polygon fill="black" stroke="black" points="333.66,-213.71 338.6,-204.35 328.89,-208.58 333.66,-213.71"/>
</g>
<!-- cov -->
<g id="node21" class="node">
<title>cov</title>
<polygon fill="#66ccee" stroke="black" points="278,-204 219,-204 219,-168 278,-168 278,-204"/>
<text text-anchor="start" x="226" y="-189.6" font-family="sans-serif" font-size="8.00" fill="#000000">./SUBJ/cov/</text>
<text text-anchor="start" x="229" y="-180" font-family="sans-serif" font-size="10.00" fill="#000000">*&#45;cov.fif</text>
</g>
<!-- pca&#45;&gt;cov -->
<g id="edge29" class="edge">
<title>pca&#45;&gt;cov</title>
<g id="a_edge29"><a xlink:href="../overview.html#gen-covs" xlink:title="&lt;B&gt;8. gen_covs&lt;/B&gt;" target="_top">
<path fill="none" stroke="black" d="M247.78,-230.68C247.87,-225.62 247.96,-219.95 248.05,-214.42"/>
<polygon fill="black" stroke="black" points="251.55,-214.21 248.22,-204.15 244.56,-214.09 251.55,-214.21"/>
</a>
</g>
<g id="a_edge29&#45;label"><a xlink:href="../overview.html#gen-covs" xlink:title="8. gen_covs" target="_top">
<text text-anchor="start" x="247.5" y="-216" font-family="sans-serif" font-weight="bold" font-size="10.00">8. gen_covs</text>
</a>
</g>
</g>
<!-- pro&#45;&gt;pca -->
<g id="edge30" class="edge">
<title>pro&#45;&gt;pca</title>
<g id="a_edge30"><a xlink:href="../overview.html#apply-ssp" xlink:title="&lt;B&gt;6. apply_ssp&lt;/B&gt;" target="_top">
<path fill="none" stroke="black" d="M222.16,-293.74C220.99,-289.18 220.39,-284.23 223.21,-276.18"/>
<polygon fill="black" stroke="black" points="226.43,-277.56 227.27,-267 220.02,-274.73 226.43,-277.56"/>
</a>
</g>
<g id="a_edge30&#45;label"><a xlink:href="../overview.html#apply-ssp" xlink:title="6. apply_ssp" target="_top">
<text text-anchor="start" x="222.5" y="-279" font-family="sans-serif" font-weight="bold" font-size="10.00">6. apply_ssp</text>
</a>
</g>
</g>
<!-- pex&#45;&gt;pca -->
<g id="edge31" class="edge">
<title>pex&#45;&gt;pca</title>
<path fill="none" stroke="black" d="M296.93,-346.91C301.88,-327.93 306.61,-297.05 293.5,-275 293.44,-274.91 293.39,-274.81 293.33,-274.72"/>
<polygon fill="black" stroke="black" points="296.02,-272.48 286.92,-267.05 290.65,-276.97 296.02,-272.48"/>
</g>
<!-- pex&#45;&gt;pro -->
<g id="edge32" class="edge">
<title>pex&#45;&gt;pro</title>
<path fill="none" stroke="black" d="M270.51,-346.73C266.57,-343.49 262.39,-340.05 258.26,-336.66"/>
<polygon fill="black" stroke="black" points="260.42,-333.9 250.47,-330.25 255.97,-339.3 260.42,-333.9"/>
</g>
<!-- cov&#45;&gt;htm -->
<g id="edge33" class="edge">
<title>cov&#45;&gt;htm</title>
<path fill="none" stroke="black" d="M248.25,-167.83C247.91,-144.01 247.3,-100.66 246.89,-72.35"/>
<polygon fill="black" stroke="black" points="250.39,-72.26 246.75,-62.31 243.39,-72.36 250.39,-72.26"/>
</g>
<!-- cov&#45;&gt;inv -->
<g id="edge34" class="edge">
<title>cov&#45;&gt;inv</title>
<path fill="none" stroke="black" d="M264.68,-167.68C270.26,-161.71 276.63,-154.9 282.64,-148.46"/>
<polygon fill="black" stroke="black" points="285.21,-150.85 289.48,-141.15 280.09,-146.07 285.21,-150.85"/>
</g>
<!-- acq -->
<g id="node22" class="node">
<title>acq</title>
<polygon fill="#ccbb44" stroke="black" points="230.5,-834 164.5,-834 164.5,-798 230.5,-798 230.5,-834"/>
<text text-anchor="start" x="171.5" y="-819.6" font-family="sans-serif" font-size="8.00" fill="#000000">user@minea</text>
<text text-anchor="start" x="177" y="-810" font-family="sans-serif" font-size="10.00" fill="#000000">*_raw.fif</text>
</g>
<!-- raw -->
<g id="node23" class="node">
<title>raw</title>
<polygon fill="#66ccee" stroke="black" points="233.5,-771 161.5,-771 161.5,-735 233.5,-735 233.5,-771"/>
<text text-anchor="start" x="168.5" y="-756.6" font-family="sans-serif" font-size="8.00" fill="#000000">./SUBJ/raw_fif/</text>
<text text-anchor="start" x="177" y="-747" font-family="sans-serif" font-size="10.00" fill="#000000">*_raw.fif</text>
</g>
<!-- acq&#45;&gt;raw -->
<g id="edge35" class="edge">
<title>acq&#45;&gt;raw</title>
<g id="a_edge35"><a xlink:href="../overview.html#fetch-raw" xlink:title="&lt;B&gt;1. fetch_raw&lt;/B&gt;" target="_top">
<path fill="none" stroke="black" d="M197.5,-797.68C197.5,-792.62 197.5,-786.95 197.5,-781.42"/>
<polygon fill="black" stroke="black" points="201,-781.15 197.5,-771.15 194,-781.15 201,-781.15"/>
</a>
</g>
<g id="a_edge35&#45;label"><a xlink:href="../overview.html#fetch-raw" xlink:title="1. fetch_raw" target="_top">
<text text-anchor="start" x="197.5" y="-783" font-family="sans-serif" font-weight="bold" font-size="10.00">1. fetch_raw</text>
</a>
</g>
</g>
<!-- raw&#45;&gt;sco -->
<g id="edge36" class="edge">
<title>raw&#45;&gt;sco</title>
<path fill="none" stroke="black" d="M161.13,-743.68C144.27,-739.4 124.12,-733.67 106.5,-727 101.35,-725.05 96.02,-722.77 90.83,-720.39"/>
<polygon fill="black" stroke="black" points="92.2,-717.17 81.67,-716.04 89.2,-723.49 92.2,-717.17"/>
</g>
<!-- raw&#45;&gt;pbd -->
<g id="edge37" class="edge">
<title>raw&#45;&gt;pbd</title>
<path fill="none" stroke="black" d="M197.5,-734.73C197.5,-732.66 197.5,-730.5 197.5,-728.32"/>
<polygon fill="black" stroke="black" points="201,-728.25 197.5,-718.25 194,-728.25 201,-728.25"/>
</g>
<!-- raw&#45;&gt;mfb -->
<g id="edge38" class="edge">
<title>raw&#45;&gt;mfb</title>
<path fill="none" stroke="black" d="M161.34,-740.85C150.33,-735.66 139.34,-728.28 132.5,-718 117.27,-695.12 116.82,-662.94 119.04,-640.25"/>
<polygon fill="black" stroke="black" points="122.52,-640.61 120.25,-630.26 115.57,-639.77 122.52,-640.61"/>
</g>
<!-- raw&#45;&gt;sss -->
<g id="edge39" class="edge">
<title>raw&#45;&gt;sss</title>
<path fill="none" stroke="black" d="M233.75,-743.65C254.92,-736.39 277.5,-723.4 277.5,-701 277.5,-701 277.5,-701 277.5,-470 277.5,-459.82 272.39,-450.7 265.62,-443.1"/>
<polygon fill="black" stroke="black" points="268,-440.53 258.42,-436.01 263.09,-445.52 268,-440.53"/>
</g>
<!-- can -->
<g id="node24" class="node">
<title>can</title>
<polygon fill="#ffd8df" stroke="black" points="394.5,-674 290.5,-674 290.5,-638 394.5,-638 394.5,-674"/>
<text text-anchor="start" x="313.5" y="-659.6" font-family="sans-serif" font-size="8.00" fill="#000000">./SUBJ/raw_fif/</text>
<text text-anchor="start" x="297.5" y="-650" font-family="sans-serif" font-size="10.00" fill="#000000">*&#45;custom&#45;annot.fif</text>
</g>
<!-- raw&#45;&gt;can -->
<g id="edge40" class="edge">
<title>raw&#45;&gt;can</title>
<path fill="none" stroke="black" d="M233.88,-747.52C251.51,-744.03 272.31,-737.86 288.5,-727 305.07,-715.88 318.74,-698 328.18,-683.1"/>
<polygon fill="black" stroke="black" points="331.32,-684.66 333.5,-674.29 325.33,-681.04 331.32,-684.66"/>
</g>
<!-- can&#45;&gt;sss -->
<g id="edge41" class="edge">
<title>can&#45;&gt;sss</title>
<path fill="none" stroke="black" d="M336.71,-637.76C331.44,-620.56 324.5,-593.25 324.5,-569 324.5,-569 324.5,-569 324.5,-470 324.5,-447.49 303.17,-434.83 281.05,-427.76"/>
<polygon fill="black" stroke="black" points="281.83,-424.34 271.25,-424.97 279.91,-431.07 281.83,-424.34"/>
</g>
</g>
</svg>
