<?xml version="1.0" encoding="UTF-8" standalone="no"?>
<!DOCTYPE svg PUBLIC "-//W3C//DTD SVG 1.1//EN"
 "http://www.w3.org/Graphics/SVG/1.1/DTD/svg11.dtd">
<!-- Generated by graphviz version 2.40.1 (20161225.0304)
 -->
<!-- Title: mnefun flow diagram Pages: 1 -->
<svg width="621pt" height="677pt"
 viewBox="0.00 0.00 620.50 677.00" xmlns="http://www.w3.org/2000/svg" xmlns:xlink="http://www.w3.org/1999/xlink">
<g id="graph0" class="graph" transform="scale(1 1) rotate(0) translate(4 673)">
<title>mnefun flow diagram</title>
<polygon fill="transparent" stroke="transparent" points="-4,4 -4,-673 616.5,-673 616.5,4 -4,4"/>
<!-- sco -->
<g id="node1" class="node">
<title>sco</title>
<polygon fill="#ee6677" stroke="#000000" points="71,-529 0,-529 0,-493 71,-493 71,-529"/>
<text text-anchor="start" x="33" y="-514.8" font-family="Arial" font-size="9.00" fill="#000000">./</text>
<text text-anchor="start" x="14" y="-504.2" font-family="Arial" font-size="11.00" fill="#000000">score.py</text>
</g>
<!-- lst -->
<g id="node2" class="node">
<title>lst</title>
<polygon fill="#66ccee" stroke="#000000" points="111,-445 16,-445 16,-409 111,-409 111,-445"/>
<text text-anchor="start" x="42" y="-430.8" font-family="Arial" font-size="9.00" fill="#000000">./subj/lists/</text>
<text text-anchor="start" x="30" y="-420.2" font-family="Arial" font-size="11.00" fill="#000000">ALL_*&#45;eve.lst</text>
</g>
<!-- sco&#45;&gt;lst -->
<g id="edge1" class="edge">
<title>sco&#45;&gt;lst</title>
<g id="a_edge1"><a xlink:href="../overview.html#do-score" xlink:title="&lt;B&gt;2. do_score&lt;/B&gt;" target="_top">
<path fill="none" stroke="#000000" d="M38.6737,-492.9614C40.5175,-483.8477 43.1443,-472.6949 46.5,-463 47.4538,-460.2445 48.5549,-457.4195 49.7288,-454.6227"/>
<polygon fill="#000000" stroke="#000000" points="52.9828,-455.9207 53.8927,-445.365 46.5987,-453.0493 52.9828,-455.9207"/>
</a>
</g>
<g id="a_edge1&#45;label"><a xlink:href="../overview.html#do-score" xlink:title="2. do_score" target="_top">
<text text-anchor="start" x="46.5" y="-467.2" font-family="Arial" font-weight="bold" font-size="11.00" fill="#000000">2. do_score</text>
</a>
</g>
</g>
<!-- evo -->
<g id="node3" class="node">
<title>evo</title>
<polygon fill="#66ccee" stroke="#000000" points="202.5,-120 56.5,-120 56.5,-84 202.5,-84 202.5,-120"/>
<text text-anchor="start" x="70.5" y="-105.8" font-family="Arial" font-size="9.00" fill="#000000">./subj/inverse/, ./subj/epochs/</text>
<text text-anchor="start" x="88.5" y="-95.2" font-family="Arial" font-size="11.00" fill="#000000">*&#45;evo.fif, *&#45;epo.fif</text>
</g>
<!-- lst&#45;&gt;evo -->
<g id="edge2" class="edge">
<title>lst&#45;&gt;evo</title>
<path fill="none" stroke="#000000" d="M76.5156,-408.7502C85.375,-394.5333 95.5,-373.9264 95.5,-354 95.5,-354 95.5,-354 95.5,-186 95.5,-165.8782 103.9865,-144.8955 112.4798,-128.9347"/>
<polygon fill="#000000" stroke="#000000" points="115.5626,-130.5932 117.4171,-120.1619 109.4623,-127.1599 115.5626,-130.5932"/>
</g>
<!-- bem -->
<g id="node4" class="node">
<title>bem</title>
<polygon fill="#66ccee" stroke="#000000" points="409,-204 320,-204 320,-168 409,-168 409,-204"/>
<text text-anchor="start" x="334" y="-189.8" font-family="Arial" font-size="9.00" fill="#000000">structural/bem/</text>
<text text-anchor="start" x="334.5" y="-179.2" font-family="Arial" font-size="11.00" fill="#000000">*&#45;bem&#45;sol.fif</text>
</g>
<!-- fwd -->
<g id="node5" class="node">
<title>fwd</title>
<polygon fill="#66ccee" stroke="#000000" points="407.5,-120 321.5,-120 321.5,-84 407.5,-84 407.5,-120"/>
<text text-anchor="start" x="335.5" y="-105.8" font-family="Arial" font-size="9.00" fill="#000000">./subj/forward/</text>
<text text-anchor="start" x="346" y="-95.2" font-family="Arial" font-size="11.00" fill="#000000">*&#45;fwd.fif</text>
</g>
<!-- bem&#45;&gt;fwd -->
<g id="edge3" class="edge">
<title>bem&#45;&gt;fwd</title>
<path fill="none" stroke="#000000" d="M364.5,-167.7733C364.5,-156.8758 364.5,-142.7946 364.5,-130.4587"/>
<polygon fill="#000000" stroke="#000000" points="368.0001,-130.1911 364.5,-120.1912 361.0001,-130.1912 368.0001,-130.1911"/>
</g>
<!-- inv -->
<g id="node6" class="node">
<title>inv</title>
<polygon fill="#66ccee" stroke="#000000" points="358,-36 273,-36 273,0 358,0 358,-36"/>
<text text-anchor="start" x="287" y="-21.8" font-family="Arial" font-size="9.00" fill="#000000">./subj/inverse/</text>
<text text-anchor="start" x="298.5" y="-11.2" font-family="Arial" font-size="11.00" fill="#000000">*&#45;inv.fif</text>
</g>
<!-- fwd&#45;&gt;inv -->
<g id="edge4" class="edge">
<title>fwd&#45;&gt;inv</title>
<g id="a_edge4"><a xlink:href="../overview.html#gen-inv" xlink:title="&lt;B&gt;10. gen_inv&lt;/B&gt;" target="_top">
<path fill="none" stroke="#000000" d="M353.8677,-83.7733C347.2541,-72.4355 338.6301,-57.6515 331.2338,-44.9723"/>
<polygon fill="#000000" stroke="#000000" points="334.1735,-43.0654 326.1115,-36.1912 328.127,-46.5925 334.1735,-43.0654"/>
</a>
</g>
<g id="a_edge4&#45;label"><a xlink:href="../overview.html#gen-inv" xlink:title="10. gen_inv" target="_top">
<text text-anchor="start" x="342.5" y="-58.2" font-family="Arial" font-weight="bold" font-size="11.00" fill="#000000">10. gen_inv</text>
</a>
</g>
</g>
<!-- pbd -->
<g id="node7" class="node">
<title>pbd</title>
<polygon fill="#ee6677" stroke="#000000" points="277.5,-529 189.5,-529 189.5,-493 277.5,-493 277.5,-529"/>
<text text-anchor="start" x="206.5" y="-514.8" font-family="Arial" font-size="9.00" fill="#000000">./subj/raw_fif/</text>
<text text-anchor="start" x="203.5" y="-504.2" font-family="Arial" font-size="11.00" fill="#000000">*_prebad.txt</text>
</g>
<!-- mfp -->
<g id="node8" class="node">
<title>mfp</title>
<polygon fill="#ccbb44" stroke="#000000" points="284,-445 129,-445 129,-409 284,-409 284,-445"/>
<text text-anchor="start" x="143" y="-430.8" font-family="Arial" font-size="9.00" fill="#000000">user@kasga:/data00/user/subj/</text>
<text text-anchor="start" x="182" y="-420.2" font-family="Arial" font-size="11.00" fill="#000000">*_raw.pos</text>
</g>
<!-- pbd&#45;&gt;mfp -->
<g id="edge5" class="edge">
<title>pbd&#45;&gt;mfp</title>
<g id="a_edge5"><a xlink:href="../overview.html#do-sss" xlink:title="&lt;B&gt;3. do_sss&lt;/B&gt;" target="_top">
<path fill="none" stroke="#000000" d="M227.6414,-492.7733C224.0679,-481.6557 219.4293,-467.2244 215.4078,-454.7132"/>
<polygon fill="#000000" stroke="#000000" points="218.7394,-453.6404 212.3472,-445.1912 212.0752,-455.7825 218.7394,-453.6404"/>
</a>
</g>
<g id="a_edge5&#45;label"><a xlink:href="../overview.html#do-sss" xlink:title="3. do_sss" target="_top">
<text text-anchor="start" x="221.5" y="-467.2" font-family="Arial" font-weight="bold" font-size="11.00" fill="#000000">3. do_sss</text>
</a>
</g>
</g>
<!-- sss -->
<g id="node9" class="node">
<title>sss</title>
<polygon fill="#66ccee" stroke="#000000" points="236.5,-372 144.5,-372 144.5,-336 236.5,-336 236.5,-372"/>
<text text-anchor="start" x="164.5" y="-357.8" font-family="Arial" font-size="9.00" fill="#000000">./subj/sss_fif/</text>
<text text-anchor="start" x="158.5" y="-347.2" font-family="Arial" font-size="11.00" fill="#000000">*_raw_sss.fif</text>
</g>
<!-- mfp&#45;&gt;sss -->
<g id="edge6" class="edge">
<title>mfp&#45;&gt;sss</title>
<path fill="none" stroke="#000000" d="M202.5449,-408.9551C200.7565,-400.7951 198.602,-390.9652 196.6126,-381.8887"/>
<polygon fill="#000000" stroke="#000000" points="200.0249,-381.1091 194.465,-372.0904 193.1872,-382.6079 200.0249,-381.1091"/>
</g>
<!-- sss&#45;&gt;sss -->
<g id="edge7" class="edge">
<title>sss&#45;&gt;sss</title>
<g id="a_edge7"><a xlink:href="../overview.html#do-ch-fix" xlink:title="&lt;B&gt;4. do_ch_fix&lt;/B&gt;" target="_top">
<path fill="none" stroke="#000000" d="M236.5242,-360.5852C246.9063,-359.9919 254.5,-357.7969 254.5,-354 254.5,-351.627 251.5337,-349.8796 246.7743,-348.758"/>
<polygon fill="#000000" stroke="#000000" points="246.8942,-345.2438 236.5242,-347.4148 245.9846,-352.1845 246.8942,-345.2438"/>
</a>
</g>
<g id="a_edge7&#45;label"><a xlink:href="../overview.html#do-ch-fix" xlink:title="4. do_ch_fix" target="_top">
<text text-anchor="start" x="254.5" y="-352.2" font-family="Arial" font-weight="bold" font-size="11.00" fill="#000000">4. do_ch_fix</text>
</a>
</g>
</g>
<!-- pca -->
<g id="node10" class="node">
<title>pca</title>
<polygon fill="#66ccee" stroke="#000000" points="302,-204 201,-204 201,-168 302,-168 302,-204"/>
<text text-anchor="start" x="215" y="-189.8" font-family="Arial" font-size="9.00" fill="#000000">./subj/sss_pca_fif/</text>
<text text-anchor="start" x="219.5" y="-179.2" font-family="Arial" font-size="11.00" fill="#000000">*_raw_sss.fif</text>
</g>
<!-- sss&#45;&gt;pca -->
<g id="edge8" class="edge">
<title>sss&#45;&gt;pca</title>
<path fill="none" stroke="#000000" d="M233.8199,-335.8148C240.7918,-331.0198 247.1397,-325.1351 251.5,-318 270.679,-286.6159 265.81,-242.7009 259.5078,-214.3026"/>
<polygon fill="#000000" stroke="#000000" points="262.8254,-213.1318 257.0694,-204.2369 256.0222,-214.7799 262.8254,-213.1318"/>
</g>
<!-- pro -->
<g id="node11" class="node">
<title>pro</title>
<polygon fill="#66ccee" stroke="#000000" points="241,-288 140,-288 140,-252 241,-252 241,-288"/>
<text text-anchor="start" x="154" y="-273.8" font-family="Arial" font-size="9.00" fill="#000000">./subj/sss_pca_fif/</text>
<text text-anchor="start" x="171.5" y="-263.2" font-family="Arial" font-size="11.00" fill="#000000">*&#45;proj.fif</text>
</g>
<!-- sss&#45;&gt;pro -->
<g id="edge9" class="edge">
<title>sss&#45;&gt;pro</title>
<g id="a_edge9"><a xlink:href="../overview.html#gen-ssp" xlink:title="&lt;B&gt;5. gen_ssp&lt;/B&gt;" target="_top">
<path fill="none" stroke="#000000" d="M190.5,-335.7733C190.5,-324.8758 190.5,-310.7946 190.5,-298.4587"/>
<polygon fill="#000000" stroke="#000000" points="194.0001,-298.1911 190.5,-288.1912 187.0001,-298.1912 194.0001,-298.1911"/>
</a>
</g>
<g id="a_edge9&#45;label"><a xlink:href="../overview.html#gen-ssp" xlink:title="5. gen_ssp" target="_top">
<text text-anchor="start" x="190.5" y="-310.2" font-family="Arial" font-weight="bold" font-size="11.00" fill="#000000">5. gen_ssp</text>
</a>
</g>
</g>
<!-- pca&#45;&gt;evo -->
<g id="edge12" class="edge">
<title>pca&#45;&gt;evo</title>
<g id="a_edge12"><a xlink:href="../overview.html#write-epochs" xlink:title="&lt;B&gt;7. write_epochs&lt;/B&gt;" target="_top">
<path fill="none" stroke="#000000" d="M200.6436,-168.5307C189.4848,-163.4771 178.1363,-157.3083 168.5,-150 160.5838,-143.9963 153.2951,-136.0616 147.2144,-128.3763"/>
<polygon fill="#000000" stroke="#000000" points="149.9145,-126.1429 141.1178,-120.2379 144.3121,-130.3397 149.9145,-126.1429"/>
</a>
</g>
<g id="a_edge12&#45;label"><a xlink:href="../overview.html#write-epochs" xlink:title="7. write_epochs" target="_top">
<text text-anchor="start" x="168.5" y="-142.2" font-family="Arial" font-weight="bold" font-size="11.00" fill="#000000">7. write_epochs</text>
</a>
</g>
</g>
<!-- pca&#45;&gt;fwd -->
<g id="edge13" class="edge">
<title>pca&#45;&gt;fwd</title>
<path fill="none" stroke="#000000" d="M294.6903,-167.9239C304.6179,-162.8342 314.8036,-156.802 323.5,-150 331.361,-143.8514 338.8173,-136.0036 345.1621,-128.4434"/>
<polygon fill="#000000" stroke="#000000" points="348.0498,-130.437 351.5773,-120.4466 342.5896,-126.0568 348.0498,-130.437"/>
</g>
<!-- cov -->
<g id="node13" class="node">
<title>cov</title>
<polygon fill="#66ccee" stroke="#000000" points="296,-120 227,-120 227,-84 296,-84 296,-120"/>
<text text-anchor="start" x="241" y="-105.8" font-family="Arial" font-size="9.00" fill="#000000">./subj/cov/</text>
<text text-anchor="start" x="243" y="-95.2" font-family="Arial" font-size="11.00" fill="#000000">*&#45;cov.fif</text>
</g>
<!-- pca&#45;&gt;cov -->
<g id="edge14" class="edge">
<title>pca&#45;&gt;cov</title>
<g id="a_edge14"><a xlink:href="../overview.html#gen-covs" xlink:title="&lt;B&gt;8. gen_covs&lt;/B&gt;" target="_top">
<path fill="none" stroke="#000000" d="M253.6699,-167.7733C254.9672,-156.8758 256.6435,-142.7946 258.1121,-130.4587"/>
<polygon fill="#000000" stroke="#000000" points="261.6276,-130.5348 259.3344,-120.1912 254.6767,-129.7073 261.6276,-130.5348"/>
</a>
</g>
<g id="a_edge14&#45;label"><a xlink:href="../overview.html#gen-covs" xlink:title="8. gen_covs" target="_top">
<text text-anchor="start" x="256.5" y="-142.2" font-family="Arial" font-weight="bold" font-size="11.00" fill="#000000">8. gen_covs</text>
</a>
</g>
</g>
<!-- pro&#45;&gt;pca -->
<g id="edge15" class="edge">
<title>pro&#45;&gt;pca</title>
<g id="a_edge15"><a xlink:href="../overview.html#apply-ssp" xlink:title="&lt;B&gt;6. apply_ssp&lt;/B&gt;" target="_top">
<path fill="none" stroke="#000000" d="M186.3563,-251.5706C185.2225,-242.144 185.4588,-230.8288 190.5,-222 192.9257,-217.7518 196.0705,-213.9547 199.6524,-210.5709"/>
<polygon fill="#000000" stroke="#000000" points="201.9589,-213.2068 207.5281,-204.1937 197.5538,-207.7666 201.9589,-213.2068"/>
</a>
</g>
<g id="a_edge15&#45;label"><a xlink:href="../overview.html#apply-ssp" xlink:title="6. apply_ssp" target="_top">
<text text-anchor="start" x="190.5" y="-226.2" font-family="Arial" font-weight="bold" font-size="11.00" fill="#000000">6. apply_ssp</text>
</a>
</g>
</g>
<!-- bad -->
<g id="node12" class="node">
<title>bad</title>
<polygon fill="#ee6677" stroke="#000000" points="434,-372 337,-372 337,-336 434,-336 434,-372"/>
<text text-anchor="start" x="362" y="-357.8" font-family="Arial" font-size="9.00" fill="#000000">./subj/bads/</text>
<text text-anchor="start" x="351" y="-347.2" font-family="Arial" font-size="11.00" fill="#000000">*_post&#45;sss.txt</text>
</g>
<!-- bad&#45;&gt;pca -->
<g id="edge10" class="edge">
<title>bad&#45;&gt;pca</title>
<path fill="none" stroke="#000000" d="M370.9046,-335.7012C347.0797,-305.8313 299.7507,-246.4934 272.3775,-212.1748"/>
<polygon fill="#000000" stroke="#000000" points="274.8465,-209.6572 265.8746,-204.0219 269.374,-214.0222 274.8465,-209.6572"/>
</g>
<!-- bad&#45;&gt;pro -->
<g id="edge11" class="edge">
<title>bad&#45;&gt;pro</title>
<path fill="none" stroke="#000000" d="M343.6676,-335.9799C313.9523,-323.1794 273.8623,-305.9099 242.1509,-292.2496"/>
<polygon fill="#000000" stroke="#000000" points="243.168,-288.8769 232.5992,-288.135 240.3986,-295.3058 243.168,-288.8769"/>
</g>
<!-- cov&#45;&gt;inv -->
<g id="edge16" class="edge">
<title>cov&#45;&gt;inv</title>
<path fill="none" stroke="#000000" d="M273.2172,-83.7733C280.5765,-72.3254 290.1945,-57.3641 298.3977,-44.6036"/>
<polygon fill="#000000" stroke="#000000" points="301.3422,-46.4956 303.8057,-36.1912 295.4539,-42.7103 301.3422,-46.4956"/>
</g>
<!-- tra -->
<g id="node14" class="node">
<title>tra</title>
<polygon fill="#ee6677" stroke="#000000" points="502,-204 427,-204 427,-168 502,-168 502,-204"/>
<text text-anchor="start" x="441" y="-189.8" font-family="Arial" font-size="9.00" fill="#000000">./subj/trans/</text>
<text text-anchor="start" x="442" y="-179.2" font-family="Arial" font-size="11.00" fill="#000000">*&#45;trans.fif</text>
</g>
<!-- tra&#45;&gt;fwd -->
<g id="edge17" class="edge">
<title>tra&#45;&gt;fwd</title>
<g id="a_edge17"><a xlink:href="../overview.html#gen-fwd" xlink:title="&lt;B&gt;9. gen_fwd&lt;/B&gt;" target="_top">
<path fill="none" stroke="#000000" d="M442.8015,-167.7733C428.5179,-155.7751 409.6398,-139.9174 393.9988,-126.779"/>
<polygon fill="#000000" stroke="#000000" points="396.0644,-123.9432 386.1562,-120.1912 391.5621,-129.3031 396.0644,-123.9432"/>
</a>
</g>
<g id="a_edge17&#45;label"><a xlink:href="../overview.html#gen-fwd" xlink:title="9. gen_fwd" target="_top">
<text text-anchor="start" x="419.5" y="-142.2" font-family="Arial" font-weight="bold" font-size="11.00" fill="#000000">9. gen_fwd</text>
</a>
</g>
</g>
<!-- acq -->
<g id="node15" class="node">
<title>acq</title>
<polygon fill="#4477aa" stroke="#000000" points="171,-641 90,-641 90,-605 171,-605 171,-641"/>
<text text-anchor="start" x="104" y="-626.8" font-family="Arial" font-size="9.00" fill="#000000">user@minea</text>
<text text-anchor="start" x="110.5" y="-616.2" font-family="Arial" font-size="11.00" fill="#000000">*_raw.fif</text>
</g>
<!-- raw -->
<g id="node16" class="node">
<title>raw</title>
<polygon fill="#66ccee" stroke="#000000" points="171.5,-529 89.5,-529 89.5,-493 171.5,-493 171.5,-529"/>
<text text-anchor="start" x="103.5" y="-514.8" font-family="Arial" font-size="9.00" fill="#000000">./subj/raw_fif/</text>
<text text-anchor="start" x="110.5" y="-504.2" font-family="Arial" font-size="11.00" fill="#000000">*_raw.fif</text>
</g>
<!-- acq&#45;&gt;raw -->
<g id="edge18" class="edge">
<title>acq&#45;&gt;raw</title>
<g id="a_edge18"><a xlink:href="../overview.html#fetch-raw" xlink:title="&lt;B&gt;1. fetch_raw&lt;/B&gt;" target="_top">
<path fill="none" stroke="#000000" d="M130.5,-604.5055C130.5,-586.7282 130.5,-559.6184 130.5,-539.1587"/>
<polygon fill="#000000" stroke="#000000" points="134.0001,-539.1503 130.5,-529.1504 127.0001,-539.1504 134.0001,-539.1503"/>
</a>
</g>
<g id="a_edge18&#45;label"><a xlink:href="../overview.html#fetch-raw" xlink:title="1. fetch_raw" target="_top">
<text text-anchor="start" x="130.5" y="-551.2" font-family="Arial" font-weight="bold" font-size="11.00" fill="#000000">1. fetch_raw</text>
</a>
</g>
</g>
<!-- raw&#45;&gt;lst -->
<g id="edge19" class="edge">
<title>raw&#45;&gt;lst</title>
<path fill="none" stroke="#000000" d="M123.9169,-492.6002C120.015,-483.1816 114.4649,-471.8647 107.5,-463 104.4588,-459.1292 100.9324,-455.4002 97.2255,-451.9047"/>
<polygon fill="#000000" stroke="#000000" points="99.2842,-449.0547 89.4604,-445.087 94.6658,-454.3149 99.2842,-449.0547"/>
</g>
<!-- raw&#45;&gt;mfp -->
<g id="edge20" class="edge">
<title>raw&#45;&gt;mfp</title>
<path fill="none" stroke="#000000" d="M146.9909,-492.7733C157.5476,-481.1053 171.4066,-465.7874 183.0939,-452.8699"/>
<polygon fill="#000000" stroke="#000000" points="185.9275,-454.9548 190.0413,-445.1912 180.7368,-450.2584 185.9275,-454.9548"/>
</g>
<!-- src -->
<g id="node17" class="node">
<title>src</title>
<polygon fill="#66ccee" stroke="#000000" points="612.5,-204 520.5,-204 520.5,-168 612.5,-168 612.5,-204"/>
<text text-anchor="start" x="536" y="-189.8" font-family="Arial" font-size="9.00" fill="#000000">structural/bem/</text>
<text text-anchor="start" x="534.5" y="-179.2" font-family="Arial" font-size="11.00" fill="#000000">*&#45;oct&#45;6&#45;src.fif</text>
</g>
<!-- src&#45;&gt;fwd -->
<g id="edge21" class="edge">
<title>src&#45;&gt;fwd</title>
<path fill="none" stroke="#000000" d="M538.1788,-167.966C522.013,-158.1987 501.1154,-146.4389 481.5,-138 461.0321,-129.1944 437.7051,-121.5631 417.294,-115.6213"/>
<polygon fill="#000000" stroke="#000000" points="418.1097,-112.2146 407.5335,-112.8424 416.1928,-118.947 418.1097,-112.2146"/>
</g>
<!-- htm -->
<g id="node18" class="node">
<title>htm</title>
<polygon fill="#66ccee" stroke="#000000" points="314,-641 189,-641 189,-605 314,-605 314,-641"/>
<text text-anchor="start" x="239" y="-626.8" font-family="Arial" font-size="9.00" fill="#000000">./subj/</text>
<text text-anchor="start" x="203" y="-616.2" font-family="Arial" font-size="11.00" fill="#000000">subj_fil*_report.html</text>
</g>
<!-- legend -->
<g id="node19" class="node">
<title>legend</title>
<polygon fill="#4477aa" stroke="transparent" points="336.5,-647 336.5,-665 354.5,-665 354.5,-647 336.5,-647"/>
<text text-anchor="start" x="340.5" y="-653.8" font-family="Arial" font-size="9.00" fill="#000000"> &#160;&#160;&#160;</text>
<text text-anchor="start" x="362.5" y="-653.8" font-family="Arial" font-size="9.00" fill="#000000">Remote: acquisiton machine</text>
<polygon fill="#ee6677" stroke="transparent" points="336.5,-625 336.5,-643 354.5,-643 354.5,-625 336.5,-625"/>
<text text-anchor="start" x="340.5" y="-631.8" font-family="Arial" font-size="9.00" fill="#000000"> &#160;&#160;&#160;</text>
<text text-anchor="start" x="362.5" y="-631.8" font-family="Arial" font-size="9.00" fill="#000000">Local: user&#45;created files</text>
<polygon fill="#66ccee" stroke="transparent" points="336.5,-603 336.5,-621 354.5,-621 354.5,-603 336.5,-603"/>
<text text-anchor="start" x="340.5" y="-609.8" font-family="Arial" font-size="9.00" fill="#000000"> &#160;&#160;&#160;</text>
<text text-anchor="start" x="362.5" y="-609.8" font-family="Arial" font-size="9.00" fill="#000000">Local: pipeline&#45;created files</text>
<polygon fill="#ccbb44" stroke="transparent" points="336.5,-581 336.5,-599 354.5,-599 354.5,-581 336.5,-581"/>
<text text-anchor="start" x="340.5" y="-587.8" font-family="Arial" font-size="9.00" fill="#000000"> &#160;&#160;&#160;</text>
<text text-anchor="start" x="362.5" y="-587.8" font-family="Arial" font-size="9.00" fill="#000000">Remote: SSS machine</text>
</g>
</g>
</svg>
