<?xml version="1.0" encoding="UTF-8" standalone="no"?>
<!DOCTYPE svg PUBLIC "-//W3C//DTD SVG 1.1//EN"
 "http://www.w3.org/Graphics/SVG/1.1/DTD/svg11.dtd">
<!-- Generated by graphviz version 2.40.1 (20161225.0304)
 -->
<!-- Title: mnefun flow diagram Pages: 1 -->
<svg width="567pt" height="877pt"
 viewBox="0.00 0.00 566.50 877.00" xmlns="http://www.w3.org/2000/svg" xmlns:xlink="http://www.w3.org/1999/xlink">
<g id="graph0" class="graph" transform="scale(1 1) rotate(0) translate(4 873)">
<title>mnefun flow diagram</title>
<polygon fill="transparent" stroke="transparent" points="-4,4 -4,-873 562.5,-873 562.5,4 -4,4"/>
<!-- htm -->
<g id="node1" class="node">
<title>htm</title>
<polygon fill="#66ccee" stroke="#000000" points="290.5,-62 176.5,-62 176.5,-26 290.5,-26 290.5,-62"/>
<text text-anchor="start" x="219" y="-47.6" font-family="sans-serif" font-size="8.00" fill="#000000">./SUBJ/</text>
<text text-anchor="start" x="183.5" y="-38" font-family="sans-serif" font-size="10.00" fill="#000000">subj_fil*_report.html</text>
</g>
<!-- legend -->
<g id="node2" class="node">
<title>legend</title>
<polygon fill="#ccbb44" stroke="transparent" points="309.5,-67 309.5,-84 330.5,-84 330.5,-67 309.5,-67"/>
<text text-anchor="start" x="313.5" y="-73.6" font-family="sans-serif" font-size="8.00" fill="#000000"> &#160;&#160;&#160;</text>
<text text-anchor="start" x="338.5" y="-73.6" font-family="sans-serif" font-size="8.00" fill="#000000">Remote: acquisiton machine</text>
<polygon fill="#ee6677" stroke="transparent" points="309.5,-46 309.5,-63 330.5,-63 330.5,-46 309.5,-46"/>
<text text-anchor="start" x="313.5" y="-52.6" font-family="sans-serif" font-size="8.00" fill="#000000"> &#160;&#160;&#160;</text>
<text text-anchor="start" x="338.5" y="-52.6" font-family="sans-serif" font-size="8.00" fill="#000000">Local: obligatory user&#45;created files</text>
<polygon fill="#ffd8df" stroke="transparent" points="309.5,-25 309.5,-42 330.5,-42 330.5,-25 309.5,-25"/>
<text text-anchor="start" x="313.5" y="-31.6" font-family="sans-serif" font-size="8.00" fill="#000000"> &#160;&#160;&#160;</text>
<text text-anchor="start" x="338.5" y="-31.6" font-family="sans-serif" font-size="8.00" fill="#000000">Local: optional user&#45;created files</text>
<polygon fill="#66ccee" stroke="transparent" points="309.5,-4 309.5,-21 330.5,-21 330.5,-4 309.5,-4"/>
<text text-anchor="start" x="313.5" y="-10.6" font-family="sans-serif" font-size="8.00" fill="#000000"> &#160;&#160;&#160;</text>
<text text-anchor="start" x="338.5" y="-10.6" font-family="sans-serif" font-size="8.00" fill="#000000">Local: pipeline&#45;created files</text>
</g>
<!-- sco -->
<g id="node3" class="node">
<title>sco</title>
<polygon fill="#ee6677" stroke="#000000" points="104.5,-709 48.5,-709 48.5,-673 104.5,-673 104.5,-709"/>
<text text-anchor="start" x="73" y="-694.6" font-family="sans-serif" font-size="8.00" fill="#000000">./</text>
<text text-anchor="start" x="55.5" y="-685" font-family="sans-serif" font-size="10.00" fill="#000000">score.py</text>
</g>
<!-- lst -->
<g id="node4" class="node">
<title>lst</title>
<polygon fill="#66ccee" stroke="#000000" points="79,-621 0,-621 0,-585 79,-585 79,-621"/>
<text text-anchor="start" x="15" y="-606.6" font-family="sans-serif" font-size="8.00" fill="#000000">./SUBJ/lists/</text>
<text text-anchor="start" x="7" y="-597" font-family="sans-serif" font-size="10.00" fill="#000000">ALL_*&#45;eve.lst</text>
</g>
<!-- sco&#45;&gt;lst -->
<g id="edge1" class="edge">
<title>sco&#45;&gt;lst</title>
<g id="a_edge1"><a xlink:href="../overview.html#do-score" xlink:title="&lt;B&gt;2. do_score&lt;/B&gt;" target="_top">
<path fill="none" stroke="#000000" d="M52.0392,-672.8801C49.8916,-670.4421 47.9768,-667.8054 46.5,-665 41.1083,-654.758 38.998,-642.2646 38.3692,-631.1835"/>
<polygon fill="#000000" stroke="#000000" points="41.867,-631.0373 38.1614,-621.1116 34.8685,-631.1817 41.867,-631.0373"/>
</a>
</g>
<g id="a_edge1&#45;label"><a xlink:href="../overview.html#do-score" xlink:title="2. do_score" target="_top">
<text text-anchor="start" x="46.5" y="-645.5" font-family="sans-serif" font-weight="bold" font-size="10.00" fill="#000000">2. do_score</text>
</a>
</g>
</g>
<!-- evo -->
<g id="node5" class="node">
<title>evo</title>
<polygon fill="#66ccee" stroke="#000000" points="193,-204 48,-204 48,-168 193,-168 193,-204"/>
<text text-anchor="start" x="55" y="-189.6" font-family="sans-serif" font-size="8.00" fill="#000000">./SUBJ/inverse/, ./SUBJ/epochs/</text>
<text text-anchor="start" x="77.5" y="-180" font-family="sans-serif" font-size="10.00" fill="#000000">*&#45;evo.fif, *&#45;epo.fif</text>
</g>
<!-- lst&#45;&gt;evo -->
<g id="edge2" class="edge">
<title>lst&#45;&gt;evo</title>
<path fill="none" stroke="#000000" d="M39.5,-584.7978C39.5,-567.0023 39.5,-539.1389 39.5,-515 39.5,-515 39.5,-515 39.5,-249 39.5,-232.1716 50.5283,-219.1845 64.4463,-209.4952"/>
<polygon fill="#000000" stroke="#000000" points="66.3137,-212.4555 72.9134,-204.1673 62.5856,-206.5309 66.3137,-212.4555"/>
</g>
<!-- evo&#45;&gt;htm -->
<g id="edge3" class="edge">
<title>evo&#45;&gt;htm</title>
<g id="a_edge3"><a xlink:href="../overview.html#gen-report" xlink:title="&lt;B&gt;11. gen_report&lt;/B&gt;" target="_top">
<path fill="none" stroke="#000000" d="M124.3345,-167.8142C128.692,-150.3728 137.1334,-123.9627 151.5,-105 162.517,-90.4585 177.9122,-77.7577 192.3913,-67.7647"/>
<polygon fill="#000000" stroke="#000000" points="194.3762,-70.6481 200.7706,-62.2005 190.5038,-64.8167 194.3762,-70.6481"/>
</a>
</g>
<g id="a_edge3&#45;label"><a xlink:href="../overview.html#gen-report" xlink:title="11. gen_report" target="_top">
<text text-anchor="start" x="151.5" y="-121.5" font-family="sans-serif" font-weight="bold" font-size="10.00" fill="#000000">11. gen_report</text>
</a>
</g>
</g>
<!-- mri -->
<g id="node6" class="node">
<title>mri</title>
<polygon fill="#66ccee" stroke="#000000" points="488,-330 413,-330 413,-294 488,-294 488,-330"/>
<text text-anchor="start" x="420" y="-315.6" font-family="sans-serif" font-size="8.00" fill="#000000">structural/mri/</text>
<text text-anchor="start" x="432" y="-306" font-family="sans-serif" font-size="10.00" fill="#000000">T1.mgz</text>
</g>
<!-- bem -->
<g id="node7" class="node">
<title>bem</title>
<polygon fill="#66ccee" stroke="#000000" points="558.5,-267 478.5,-267 478.5,-231 558.5,-231 558.5,-267"/>
<text text-anchor="start" x="485.5" y="-252.6" font-family="sans-serif" font-size="8.00" fill="#000000">structural/bem/</text>
<text text-anchor="start" x="487.5" y="-243" font-family="sans-serif" font-size="10.00" fill="#000000">*&#45;bem&#45;sol.fif</text>
</g>
<!-- mri&#45;&gt;bem -->
<g id="edge4" class="edge">
<title>mri&#45;&gt;bem</title>
<path fill="none" stroke="#000000" d="M470.1684,-293.7778C476.7361,-287.693 484.177,-280.7992 491.2177,-274.2762"/>
<polygon fill="#000000" stroke="#000000" points="493.6833,-276.7633 498.6402,-267.3995 488.9259,-271.6283 493.6833,-276.7633"/>
<g id="a_edge4&#45;label"><a xlink:title="Freesurfer">
<text text-anchor="middle" x="513" y="-278" font-family="sans-serif" font-size="10.00" fill="#000000">Freesurfer</text>
</a>
</g>
</g>
<!-- tra -->
<g id="node8" class="node">
<title>tra</title>
<polygon fill="#ee6677" stroke="#000000" points="370.5,-267 302.5,-267 302.5,-231 370.5,-231 370.5,-267"/>
<text text-anchor="start" x="309.5" y="-252.6" font-family="sans-serif" font-size="8.00" fill="#000000">./SUBJ/trans/</text>
<text text-anchor="start" x="313" y="-243" font-family="sans-serif" font-size="10.00" fill="#000000">*&#45;trans.fif</text>
</g>
<!-- mri&#45;&gt;tra -->
<g id="edge5" class="edge">
<title>mri&#45;&gt;tra</title>
<path fill="none" stroke="#000000" d="M412.7346,-299.5954C402.9458,-295.7793 392.603,-291.1944 383.5,-286 379.6751,-283.8174 373.2259,-279.0199 366.3111,-273.5797"/>
<polygon fill="#000000" stroke="#000000" points="368.1038,-270.5316 358.1091,-267.0163 363.7302,-275.9971 368.1038,-270.5316"/>
<g id="a_edge5&#45;label"><a xlink:title="mne coreg">
<text text-anchor="middle" x="409.5" y="-278" font-family="sans-serif" font-size="10.00" fill="#000000">mne coreg</text>
</a>
</g>
</g>
<!-- src -->
<g id="node9" class="node">
<title>src</title>
<polygon fill="#66ccee" stroke="#000000" points="464.5,-267 384.5,-267 384.5,-231 464.5,-231 464.5,-267"/>
<text text-anchor="start" x="391.5" y="-252.6" font-family="sans-serif" font-size="8.00" fill="#000000">structural/bem/</text>
<text text-anchor="start" x="406" y="-243" font-family="sans-serif" font-size="10.00" fill="#000000">*&#45;src.fif</text>
</g>
<!-- mri&#45;&gt;src -->
<g id="edge6" class="edge">
<title>mri&#45;&gt;src</title>
<path fill="none" stroke="#000000" d="M445.2818,-293.6932C443.8788,-289.2589 442.2527,-284.4712 439.0383,-276.815"/>
<polygon fill="#000000" stroke="#000000" points="442.0749,-275.0232 434.8624,-267.2623 435.6609,-277.827 442.0749,-275.0232"/>
</g>
<!-- fwd -->
<g id="node10" class="node">
<title>fwd</title>
<polygon fill="#66ccee" stroke="#000000" points="379,-204 300,-204 300,-168 379,-168 379,-204"/>
<text text-anchor="start" x="307" y="-189.6" font-family="sans-serif" font-size="8.00" fill="#000000">./SUBJ/forward/</text>
<text text-anchor="start" x="319.5" y="-180" font-family="sans-serif" font-size="10.00" fill="#000000">*&#45;fwd.fif</text>
</g>
<!-- bem&#45;&gt;fwd -->
<g id="edge7" class="edge">
<title>bem&#45;&gt;fwd</title>
<path fill="none" stroke="#000000" d="M478.2797,-233.496C475.9888,-232.6443 473.7168,-231.8071 471.5,-231 444.2855,-221.0911 413.6829,-210.6171 388.8007,-202.2696"/>
<polygon fill="#000000" stroke="#000000" points="389.8094,-198.9165 379.2156,-199.0641 387.5892,-205.5551 389.8094,-198.9165"/>
</g>
<!-- tra&#45;&gt;fwd -->
<g id="edge8" class="edge">
<title>tra&#45;&gt;fwd</title>
<g id="a_edge8"><a xlink:href="../overview.html#gen-fwd" xlink:title="&lt;B&gt;9. gen_fwd&lt;/B&gt;" target="_top">
<path fill="none" stroke="#000000" d="M337.3677,-230.7778C337.6082,-225.7287 337.8751,-220.1226 338.1365,-214.6335"/>
<polygon fill="#000000" stroke="#000000" points="341.6441,-214.5547 338.6238,-204.3995 334.652,-214.2217 341.6441,-214.5547"/>
</a>
</g>
<g id="a_edge8&#45;label"><a xlink:href="../overview.html#gen-fwd" xlink:title="9. gen_fwd" target="_top">
<text text-anchor="start" x="337.5" y="-216" font-family="sans-serif" font-weight="bold" font-size="10.00" fill="#000000">9. gen_fwd</text>
</a>
</g>
</g>
<!-- src&#45;&gt;fwd -->
<g id="edge9" class="edge">
<title>src&#45;&gt;fwd</title>
<path fill="none" stroke="#000000" d="M416.135,-230.7545C412.4049,-224.1658 407.4865,-217.1026 401.5,-212 397.5484,-208.6319 393.098,-205.6492 388.4416,-203.0198"/>
<polygon fill="#000000" stroke="#000000" points="389.8117,-199.7903 379.3098,-198.3901 386.6463,-206.0338 389.8117,-199.7903"/>
</g>
<!-- inv -->
<g id="node11" class="node">
<title>inv</title>
<polygon fill="#66ccee" stroke="#000000" points="333.5,-141 255.5,-141 255.5,-105 333.5,-105 333.5,-141"/>
<text text-anchor="start" x="262.5" y="-126.6" font-family="sans-serif" font-size="8.00" fill="#000000">./SUBJ/inverse/</text>
<text text-anchor="start" x="276" y="-117" font-family="sans-serif" font-size="10.00" fill="#000000">*&#45;inv.fif</text>
</g>
<!-- fwd&#45;&gt;inv -->
<g id="edge10" class="edge">
<title>fwd&#45;&gt;inv</title>
<g id="a_edge10"><a xlink:href="../overview.html#gen-inv" xlink:title="&lt;B&gt;10. gen_inv&lt;/B&gt;" target="_top">
<path fill="none" stroke="#000000" d="M326.4841,-167.7778C322.5078,-162.2109 318.0477,-155.9668 313.7493,-149.949"/>
<polygon fill="#000000" stroke="#000000" points="316.303,-147.5025 307.6425,-141.3995 310.6069,-151.5712 316.303,-147.5025"/>
</a>
</g>
<g id="a_edge10&#45;label"><a xlink:href="../overview.html#gen-inv" xlink:title="10. gen_inv" target="_top">
<text text-anchor="start" x="319.5" y="-153" font-family="sans-serif" font-weight="bold" font-size="10.00" fill="#000000">10. gen_inv</text>
</a>
</g>
</g>
<!-- inv&#45;&gt;htm -->
<g id="edge11" class="edge">
<title>inv&#45;&gt;htm</title>
<path fill="none" stroke="#000000" d="M280.3521,-104.6772C272.4991,-94.507 262.5928,-81.6775 253.9142,-70.438"/>
<polygon fill="#000000" stroke="#000000" points="256.4532,-67.9994 247.5712,-62.2234 250.9126,-72.2775 256.4532,-67.9994"/>
</g>
<!-- pbd -->
<g id="node12" class="node">
<title>pbd</title>
<polygon fill="#ee6677" stroke="#000000" points="283,-753 208,-753 208,-717 283,-717 283,-753"/>
<text text-anchor="start" x="215" y="-738.6" font-family="sans-serif" font-size="8.00" fill="#000000">./SUBJ/raw_fif/</text>
<text text-anchor="start" x="215" y="-729" font-family="sans-serif" font-size="10.00" fill="#000000">*_prebad.txt</text>
</g>
<!-- mfb -->
<g id="node13" class="node">
<title>mfb</title>
<polygon fill="#66ccee" stroke="#000000" points="223,-665 118,-665 118,-629 223,-629 223,-665"/>
<text text-anchor="start" x="140" y="-650.6" font-family="sans-serif" font-size="8.00" fill="#000000">./SUBJ/raw_fif/</text>
<text text-anchor="start" x="125" y="-641" font-family="sans-serif" font-size="10.00" fill="#000000">*_raw_maxbad.txt</text>
</g>
<!-- pbd&#45;&gt;mfb -->
<g id="edge12" class="edge">
<title>pbd&#45;&gt;mfb</title>
<g id="a_edge12"><a xlink:href="../overview.html#do-sss" xlink:title="&lt;B&gt;3. do_sss&lt;/B&gt;" target="_top">
<path fill="none" stroke="#000000" d="M207.9008,-726.3878C198.3781,-722.5259 189.0151,-716.9701 182.5,-709 174.8499,-699.6415 171.5634,-686.8445 170.3009,-675.3064"/>
<polygon fill="#000000" stroke="#000000" points="173.7852,-674.9505 169.6433,-665.1989 166.8,-675.405 173.7852,-674.9505"/>
</a>
</g>
<g id="a_edge12&#45;label"><a xlink:href="../overview.html#do-sss" xlink:title="3. do_sss" target="_top">
<text text-anchor="start" x="182.5" y="-689.5" font-family="sans-serif" font-weight="bold" font-size="10.00" fill="#000000">3. do_sss</text>
</a>
</g>
</g>
<!-- mfp -->
<g id="node14" class="node">
<title>mfp</title>
<polygon fill="#66ccee" stroke="#000000" points="239,-577 164,-577 164,-541 239,-541 239,-577"/>
<text text-anchor="start" x="171" y="-562.6" font-family="sans-serif" font-size="8.00" fill="#000000">./SUBJ/raw_fif/</text>
<text text-anchor="start" x="177" y="-553" font-family="sans-serif" font-size="10.00" fill="#000000">*_raw.pos</text>
</g>
<!-- pbd&#45;&gt;mfp -->
<g id="edge13" class="edge">
<title>pbd&#45;&gt;mfp</title>
<path fill="none" stroke="#000000" d="M244.0326,-716.7315C242.0239,-695.3951 237.6939,-659.1741 229.5,-629 225.6025,-614.6475 219.6488,-599.2456 214.2319,-586.5533"/>
<polygon fill="#000000" stroke="#000000" points="217.2753,-584.7782 210.0524,-577.027 210.8651,-587.5906 217.2753,-584.7782"/>
</g>
<!-- sss -->
<g id="node15" class="node">
<title>sss</title>
<polygon fill="#66ccee" stroke="#000000" points="295,-436 218,-436 218,-400 295,-400 295,-436"/>
<text text-anchor="start" x="227.5" y="-421.6" font-family="sans-serif" font-size="8.00" fill="#000000">./SUBJ/sss_fif/</text>
<text text-anchor="start" x="225" y="-412" font-family="sans-serif" font-size="10.00" fill="#000000">*_raw_sss.fif</text>
</g>
<!-- pbd&#45;&gt;sss -->
<g id="edge14" class="edge">
<title>pbd&#45;&gt;sss</title>
<path fill="none" stroke="#000000" d="M255.6566,-716.7338C264.3599,-699.3498 275.5,-672.1802 275.5,-647 275.5,-647 275.5,-647 275.5,-471 275.5,-462.3829 273.2469,-453.4156 270.2925,-445.3612"/>
<polygon fill="#000000" stroke="#000000" points="273.506,-443.9733 266.4452,-436.0742 267.039,-446.6524 273.506,-443.9733"/>
</g>
<!-- mfb&#45;&gt;mfp -->
<g id="edge15" class="edge">
<title>mfb&#45;&gt;mfp</title>
<path fill="none" stroke="#000000" d="M176.9232,-628.7663C181.2045,-616.6132 186.9122,-600.4107 191.7494,-586.6791"/>
<polygon fill="#000000" stroke="#000000" points="195.0635,-587.8051 195.085,-577.2103 188.4612,-585.4793 195.0635,-587.8051"/>
</g>
<!-- mfb&#45;&gt;sss -->
<g id="edge16" class="edge">
<title>mfb&#45;&gt;sss</title>
<path fill="none" stroke="#000000" d="M159.9193,-628.8631C139.8726,-591.8584 101.7632,-506.6302 141.5,-453 149.7437,-441.874 180.3423,-432.878 207.9044,-426.7934"/>
<polygon fill="#000000" stroke="#000000" points="208.8151,-430.1783 217.8745,-424.6849 207.3667,-423.3298 208.8151,-430.1783"/>
</g>
<!-- mfp&#45;&gt;sss -->
<g id="edge17" class="edge">
<title>mfp&#45;&gt;sss</title>
<path fill="none" stroke="#000000" d="M209.2191,-540.9541C215.1858,-526.867 223.5689,-506.77 230.5,-489 236.0497,-474.7717 241.9251,-458.8116 246.684,-445.6325"/>
<polygon fill="#000000" stroke="#000000" points="249.9958,-446.7657 250.0816,-436.1712 243.4077,-444.3999 249.9958,-446.7657"/>
</g>
<!-- aan -->
<g id="node16" class="node">
<title>aan</title>
<polygon fill="#66ccee" stroke="#000000" points="224,-489 149,-489 149,-453 224,-453 224,-489"/>
<text text-anchor="start" x="156" y="-474.6" font-family="sans-serif" font-size="8.00" fill="#000000">./SUBJ/raw_fif/</text>
<text text-anchor="start" x="161.5" y="-465" font-family="sans-serif" font-size="10.00" fill="#000000">*&#45;annot.fif</text>
</g>
<!-- mfp&#45;&gt;aan -->
<g id="edge18" class="edge">
<title>mfp&#45;&gt;aan</title>
<path fill="none" stroke="#000000" d="M198.392,-540.7663C196.3405,-528.7312 193.6122,-512.7249 191.2863,-499.0797"/>
<polygon fill="#000000" stroke="#000000" points="194.7347,-498.48 189.604,-489.2103 187.8342,-499.6563 194.7347,-498.48"/>
</g>
<!-- sss&#45;&gt;sss -->
<g id="edge19" class="edge">
<title>sss&#45;&gt;sss</title>
<g id="a_edge19"><a xlink:href="../overview.html#do-ch-fix" xlink:title="&lt;B&gt;4. do_ch_fix&lt;/B&gt;" target="_top">
<path fill="none" stroke="#000000" d="M295.1909,-422.7036C303.2236,-422.2085 309,-420.6406 309,-418 309,-416.6797 307.5559,-415.6276 305.1077,-414.8436"/>
<polygon fill="#000000" stroke="#000000" points="305.6109,-411.3799 295.1909,-413.2964 304.5318,-418.2962 305.6109,-411.3799"/>
</a>
</g>
<g id="a_edge19&#45;label"><a xlink:href="../overview.html#do-ch-fix" xlink:title="4. do_ch_fix" target="_top">
<text text-anchor="start" x="309" y="-416.5" font-family="sans-serif" font-weight="bold" font-size="10.00" fill="#000000">4. do_ch_fix</text>
</a>
</g>
</g>
<!-- bad -->
<g id="node17" class="node">
<title>bad</title>
<polygon fill="#ee6677" stroke="#000000" points="230.5,-383 148.5,-383 148.5,-347 230.5,-347 230.5,-383"/>
<text text-anchor="start" x="163.5" y="-368.6" font-family="sans-serif" font-size="8.00" fill="#000000">./SUBJ/bads/</text>
<text text-anchor="start" x="155.5" y="-359" font-family="sans-serif" font-size="10.00" fill="#000000">*_post&#45;sss.txt</text>
</g>
<!-- sss&#45;&gt;bad -->
<g id="edge20" class="edge">
<title>sss&#45;&gt;bad</title>
<path fill="none" stroke="#000000" d="M233.4424,-399.7604C229.1839,-396.3918 224.6754,-392.8253 220.2321,-389.3105"/>
<polygon fill="#000000" stroke="#000000" points="222.3874,-386.5527 212.3731,-383.0937 218.0446,-392.0427 222.3874,-386.5527"/>
</g>
<!-- pca -->
<g id="node18" class="node">
<title>pca</title>
<polygon fill="#66ccee" stroke="#000000" points="286,-267 183,-267 183,-231 286,-231 286,-267"/>
<text text-anchor="start" x="195.5" y="-252.6" font-family="sans-serif" font-size="8.00" fill="#000000">./SUBJ/sss_pca_fif/</text>
<text text-anchor="start" x="190" y="-243" font-family="sans-serif" font-size="10.00" fill="#000000">*_fil55_raw_sss.fif</text>
</g>
<!-- sss&#45;&gt;pca -->
<g id="edge21" class="edge">
<title>sss&#45;&gt;pca</title>
<path fill="none" stroke="#000000" d="M295.262,-412.4503C313.0928,-407.7452 332.6543,-399.0537 343.5,-383 352.4569,-369.742 347.5951,-362.4671 343.5,-347 334.075,-311.402 330.4462,-298.9804 302.5,-275 300.1305,-272.9668 297.5852,-271.0838 294.9199,-269.3411"/>
<polygon fill="#000000" stroke="#000000" points="296.4802,-266.2007 286.0683,-264.2403 292.9851,-272.2658 296.4802,-266.2007"/>
</g>
<!-- pro -->
<g id="node19" class="node">
<title>pro</title>
<polygon fill="#66ccee" stroke="#000000" points="269.5,-330 177.5,-330 177.5,-294 269.5,-294 269.5,-330"/>
<text text-anchor="start" x="184.5" y="-315.6" font-family="sans-serif" font-size="8.00" fill="#000000">./SUBJ/sss_pca_fif/</text>
<text text-anchor="start" x="203" y="-306" font-family="sans-serif" font-size="10.00" fill="#000000">*&#45;proj.fif</text>
</g>
<!-- sss&#45;&gt;pro -->
<g id="edge22" class="edge">
<title>sss&#45;&gt;pro</title>
<g id="a_edge22"><a xlink:href="../overview.html#gen-ssp" xlink:title="&lt;B&gt;5. gen_ssp&lt;/B&gt;" target="_top">
<path fill="none" stroke="#000000" d="M217.6139,-415.7593C171.6416,-412.2033 99.2403,-403.4429 82.5,-383 72.363,-370.6209 72.6429,-359.6031 82.5,-347 93.1422,-333.3931 132.7644,-324.327 167.3068,-318.838"/>
<polygon fill="#000000" stroke="#000000" points="167.9918,-322.2743 177.3549,-317.3162 166.9435,-315.3532 167.9918,-322.2743"/>
</a>
</g>
<g id="a_edge22&#45;label"><a xlink:href="../overview.html#gen-ssp" xlink:title="5. gen_ssp" target="_top">
<text text-anchor="start" x="82.5" y="-363.5" font-family="sans-serif" font-weight="bold" font-size="10.00" fill="#000000">5. gen_ssp</text>
</a>
</g>
</g>
<!-- pex -->
<g id="node20" class="node">
<title>pex</title>
<polygon fill="#ffd8df" stroke="#000000" points="336.5,-383 244.5,-383 244.5,-347 336.5,-347 336.5,-383"/>
<text text-anchor="start" x="251.5" y="-368.6" font-family="sans-serif" font-size="8.00" fill="#000000">./SUBJ/sss_pca_fif/</text>
<text text-anchor="start" x="255.5" y="-359" font-family="sans-serif" font-size="10.00" fill="#000000">*&#45;extra&#45;proj.fif</text>
</g>
<!-- sss&#45;&gt;pex -->
<g id="edge23" class="edge">
<title>sss&#45;&gt;pex</title>
<path fill="none" stroke="#000000" d="M268.2009,-399.7604C269.8757,-397.1497 271.6267,-394.4202 273.3794,-391.688"/>
<polygon fill="#000000" stroke="#000000" points="276.4391,-393.4005 278.8927,-383.0937 270.5472,-389.6208 276.4391,-393.4005"/>
</g>
<!-- aan&#45;&gt;sss -->
<g id="edge24" class="edge">
<title>aan&#45;&gt;sss</title>
<path fill="none" stroke="#000000" d="M210.59,-452.7604C215.0392,-449.3918 219.7496,-445.8253 224.3918,-442.3105"/>
<polygon fill="#000000" stroke="#000000" points="226.7428,-444.9205 232.6027,-436.0937 222.5173,-439.3397 226.7428,-444.9205"/>
</g>
<!-- bad&#45;&gt;pca -->
<g id="edge25" class="edge">
<title>bad&#45;&gt;pca</title>
<path fill="none" stroke="#000000" d="M177.5612,-346.7012C169.5066,-331.8712 161.7963,-310.7597 170.5,-294 174.6395,-286.0292 180.9105,-279.1737 187.9358,-273.3892"/>
<polygon fill="#000000" stroke="#000000" points="190.4923,-275.8514 196.4467,-267.0881 186.3271,-270.2254 190.4923,-275.8514"/>
</g>
<!-- bad&#45;&gt;pro -->
<g id="edge26" class="edge">
<title>bad&#45;&gt;pro</title>
<path fill="none" stroke="#000000" d="M201.2009,-346.7604C202.8757,-344.1497 204.6267,-341.4202 206.3794,-338.688"/>
<polygon fill="#000000" stroke="#000000" points="209.4391,-340.4005 211.8927,-330.0937 203.5472,-336.6208 209.4391,-340.4005"/>
</g>
<!-- pca&#45;&gt;evo -->
<g id="edge27" class="edge">
<title>pca&#45;&gt;evo</title>
<g id="a_edge27"><a xlink:href="../overview.html#write-epochs" xlink:title="&lt;B&gt;7. write_epochs&lt;/B&gt;" target="_top">
<path fill="none" stroke="#000000" d="M182.9672,-239.9934C170.2663,-236.157 157.2401,-230.7125 146.5,-223 142.4864,-220.1179 138.8748,-216.4165 135.7101,-212.4729"/>
<polygon fill="#000000" stroke="#000000" points="138.4976,-210.3531 129.8563,-204.223 132.7887,-214.4039 138.4976,-210.3531"/>
</a>
</g>
<g id="a_edge27&#45;label"><a xlink:href="../overview.html#write-epochs" xlink:title="7. write_epochs" target="_top">
<text text-anchor="start" x="146.5" y="-216" font-family="sans-serif" font-weight="bold" font-size="10.00" fill="#000000">7. write_epochs</text>
</a>
</g>
</g>
<!-- pca&#45;&gt;fwd -->
<g id="edge28" class="edge">
<title>pca&#45;&gt;fwd</title>
<path fill="none" stroke="#000000" d="M286.2633,-230.863C291.2055,-228.468 296.0336,-225.8451 300.5,-223 305.7445,-219.6592 310.9008,-215.5513 315.6595,-211.3018"/>
<polygon fill="#000000" stroke="#000000" points="318.3825,-213.5435 323.2382,-204.1269 313.57,-208.4602 318.3825,-213.5435"/>
</g>
<!-- cov -->
<g id="node21" class="node">
<title>cov</title>
<polygon fill="#66ccee" stroke="#000000" points="268,-204 207,-204 207,-168 268,-168 268,-204"/>
<text text-anchor="start" x="214" y="-189.6" font-family="sans-serif" font-size="8.00" fill="#000000">./SUBJ/cov/</text>
<text text-anchor="start" x="218" y="-180" font-family="sans-serif" font-size="10.00" fill="#000000">*&#45;cov.fif</text>
</g>
<!-- pca&#45;&gt;cov -->
<g id="edge29" class="edge">
<title>pca&#45;&gt;cov</title>
<g id="a_edge29"><a xlink:href="../overview.html#gen-covs" xlink:title="&lt;B&gt;8. gen_covs&lt;/B&gt;" target="_top">
<path fill="none" stroke="#000000" d="M235.3677,-230.7778C235.6082,-225.7287 235.8751,-220.1226 236.1365,-214.6335"/>
<polygon fill="#000000" stroke="#000000" points="239.6441,-214.5547 236.6238,-204.3995 232.652,-214.2217 239.6441,-214.5547"/>
</a>
</g>
<g id="a_edge29&#45;label"><a xlink:href="../overview.html#gen-covs" xlink:title="8. gen_covs" target="_top">
<text text-anchor="start" x="236.5" y="-216" font-family="sans-serif" font-weight="bold" font-size="10.00" fill="#000000">8. gen_covs</text>
</a>
</g>
</g>
<!-- pro&#45;&gt;pca -->
<g id="edge30" class="edge">
<title>pro&#45;&gt;pca</title>
<g id="a_edge30"><a xlink:href="../overview.html#apply-ssp" xlink:title="&lt;B&gt;6. apply_ssp&lt;/B&gt;" target="_top">
<path fill="none" stroke="#000000" d="M221.2656,-293.7679C221.0649,-289.4316 221.1068,-284.7459 222.5481,-277.2899"/>
<polygon fill="#000000" stroke="#000000" points="226.0578,-277.6568 224.9523,-267.1198 219.2455,-276.0463 226.0578,-277.6568"/>
</a>
</g>
<g id="a_edge30&#45;label"><a xlink:href="../overview.html#apply-ssp" xlink:title="6. apply_ssp" target="_top">
<text text-anchor="start" x="222.5" y="-279" font-family="sans-serif" font-weight="bold" font-size="10.00" fill="#000000">6. apply_ssp</text>
</a>
</g>
</g>
<!-- pex&#45;&gt;pca -->
<g id="edge31" class="edge">
<title>pex&#45;&gt;pca</title>
<path fill="none" stroke="#000000" d="M295.5647,-346.8422C299.8524,-327.4415 303.3323,-296.5729 289.5,-275 289.443,-274.9111 289.3856,-274.8225 289.3278,-274.7342"/>
<polygon fill="#000000" stroke="#000000" points="292.1326,-272.6269 282.9466,-267.3479 286.8356,-277.2032 292.1326,-272.6269"/>
</g>
<!-- pex&#45;&gt;pro -->
<g id="edge32" class="edge">
<title>pex&#45;&gt;pro</title>
<path fill="none" stroke="#000000" d="M267.4424,-346.7604C263.1839,-343.3918 258.6754,-339.8253 254.2321,-336.3105"/>
<polygon fill="#000000" stroke="#000000" points="256.3874,-333.5527 246.3731,-330.0937 252.0446,-339.0427 256.3874,-333.5527"/>
</g>
<!-- cov&#45;&gt;htm -->
<g id="edge33" class="edge">
<title>cov&#45;&gt;htm</title>
<path fill="none" stroke="#000000" d="M236.9853,-167.7267C236.3042,-143.5496 235.0968,-100.6853 234.2973,-72.3028"/>
<polygon fill="#000000" stroke="#000000" points="237.7931,-72.1006 234.0128,-62.2032 230.7958,-72.2978 237.7931,-72.1006"/>
</g>
<!-- cov&#45;&gt;inv -->
<g id="edge34" class="edge">
<title>cov&#45;&gt;inv</title>
<path fill="none" stroke="#000000" d="M253.9868,-167.7778C259.2577,-161.952 265.1998,-155.3845 270.8759,-149.1109"/>
<polygon fill="#000000" stroke="#000000" points="273.739,-151.1631 277.8528,-141.3995 268.5483,-146.4667 273.739,-151.1631"/>
</g>
<!-- acq -->
<g id="node22" class="node">
<title>acq</title>
<polygon fill="#ccbb44" stroke="#000000" points="279.5,-869 211.5,-869 211.5,-833 279.5,-833 279.5,-869"/>
<text text-anchor="start" x="218.5" y="-854.6" font-family="sans-serif" font-size="8.00" fill="#000000">user@minea</text>
<text text-anchor="start" x="225" y="-845" font-family="sans-serif" font-size="10.00" fill="#000000">*_raw.fif</text>
</g>
<!-- raw -->
<g id="node23" class="node">
<title>raw</title>
<polygon fill="#66ccee" stroke="#000000" points="283,-806 208,-806 208,-770 283,-770 283,-806"/>
<text text-anchor="start" x="215" y="-791.6" font-family="sans-serif" font-size="8.00" fill="#000000">./SUBJ/raw_fif/</text>
<text text-anchor="start" x="225" y="-782" font-family="sans-serif" font-size="10.00" fill="#000000">*_raw.fif</text>
</g>
<!-- acq&#45;&gt;raw -->
<g id="edge35" class="edge">
<title>acq&#45;&gt;raw</title>
<g id="a_edge35"><a xlink:href="../overview.html#fetch-raw" xlink:title="&lt;B&gt;1. fetch_raw&lt;/B&gt;" target="_top">
<path fill="none" stroke="#000000" d="M245.5,-832.7778C245.5,-827.7287 245.5,-822.1226 245.5,-816.6335"/>
<polygon fill="#000000" stroke="#000000" points="249.0001,-816.3995 245.5,-806.3995 242.0001,-816.3995 249.0001,-816.3995"/>
</a>
</g>
<g id="a_edge35&#45;label"><a xlink:href="../overview.html#fetch-raw" xlink:title="1. fetch_raw" target="_top">
<text text-anchor="start" x="245.5" y="-818" font-family="sans-serif" font-weight="bold" font-size="10.00" fill="#000000">1. fetch_raw</text>
</a>
</g>
</g>
<!-- raw&#45;&gt;sco -->
<g id="edge36" class="edge">
<title>raw&#45;&gt;sco</title>
<path fill="none" stroke="#000000" d="M207.7734,-783.7697C187.3594,-780.2193 162.3373,-773.7451 142.5,-762 123.5608,-750.7866 106.7475,-732.5005 94.8308,-717.2946"/>
<polygon fill="#000000" stroke="#000000" points="97.5547,-715.0939 88.7317,-709.2282 91.9711,-719.3157 97.5547,-715.0939"/>
</g>
<!-- raw&#45;&gt;pbd -->
<g id="edge37" class="edge">
<title>raw&#45;&gt;pbd</title>
<path fill="none" stroke="#000000" d="M245.5,-769.7604C245.5,-767.655 245.5,-765.4723 245.5,-763.2733"/>
<polygon fill="#000000" stroke="#000000" points="249.0001,-763.0936 245.5,-753.0937 242.0001,-763.0937 249.0001,-763.0936"/>
</g>
<!-- raw&#45;&gt;mfb -->
<g id="edge38" class="edge">
<title>raw&#45;&gt;mfb</title>
<path fill="none" stroke="#000000" d="M217.2243,-769.8064C198.5606,-755.8257 176.0329,-734.5988 167.5,-709 163.9473,-698.342 163.7857,-686.0828 164.8423,-675.2939"/>
<polygon fill="#000000" stroke="#000000" points="168.3479,-675.4888 166.2246,-665.1089 161.4115,-674.5473 168.3479,-675.4888"/>
</g>
<!-- raw&#45;&gt;sss -->
<g id="edge39" class="edge">
<title>raw&#45;&gt;sss</title>
<path fill="none" stroke="#000000" d="M283.1582,-769.9093C295.2131,-761.3515 305.5,-749.7326 305.5,-735 305.5,-735 305.5,-735 305.5,-471 305.5,-460.4737 300.2244,-451.149 293.1352,-443.3706"/>
<polygon fill="#000000" stroke="#000000" points="295.2114,-440.5126 285.5698,-436.1205 290.3681,-445.5666 295.2114,-440.5126"/>
</g>
<!-- can -->
<g id="node24" class="node">
<title>can</title>
<polygon fill="#ffd8df" stroke="#000000" points="422.5,-533 318.5,-533 318.5,-497 422.5,-497 422.5,-533"/>
<text text-anchor="start" x="340" y="-518.6" font-family="sans-serif" font-size="8.00" fill="#000000">./SUBJ/raw_fif/</text>
<text text-anchor="start" x="325.5" y="-509" font-family="sans-serif" font-size="10.00" fill="#000000">*&#45;custom&#45;annot.fif</text>
</g>
<!-- raw&#45;&gt;can -->
<g id="edge40" class="edge">
<title>raw&#45;&gt;can</title>
<path fill="none" stroke="#000000" d="M283.2242,-776.9662C314.0301,-766.796 352.5,-750.9106 352.5,-735 352.5,-735 352.5,-735 352.5,-603 352.5,-582.7252 357.1428,-560.3462 361.7126,-543.2298"/>
<polygon fill="#000000" stroke="#000000" points="365.162,-543.893 364.5063,-533.3184 358.4245,-541.9938 365.162,-543.893"/>
</g>
<!-- can&#45;&gt;sss -->
<g id="edge41" class="edge">
<title>can&#45;&gt;sss</title>
<path fill="none" stroke="#000000" d="M360.3664,-496.8662C350.7952,-481.1219 335.1493,-458.6159 316.5,-444 312.7332,-441.0478 308.5799,-438.3629 304.2696,-435.9373"/>
<polygon fill="#000000" stroke="#000000" points="305.7698,-432.7732 295.2751,-431.3199 302.5729,-439.0006 305.7698,-432.7732"/>
</g>
</g>
</svg>
